<svg xmlns="http://www.w3.org/2000/svg" xmlns:xlink="http://www.w3.org/1999/xlink" xmlns:fi="http://pattern.flaticon.com/" x="0" y="0" width="700" height="350" viewBox="0 0 700 350"><rect x="0px" y="0px" width="100%" height="100%" opacity="1" fill="#ffffff"/><defs><path d="m24 456h288c13.253906 0 24-10.746094 24-24v-376c0-13.253906-10.746094-24-24-24h-112c0-17.671875-14.328125-32-32-32s-32 14.328125-32 32h-112c-13.253906 0-24 10.746094-24 24v376c0 13.253906 10.746094 24 24 24zm144-440c8.835938 0 16 7.164062 16 16h-32c0-8.835938 7.164062-16 16-16zm-48 32h96v32h-96zm-8 48h112c4.417969 0 8-3.582031 8-8v-8h56v328h-240v-328h56v8c0 4.417969 3.582031 8 8 8zm-96-40c0-4.417969 3.582031-8 8-8h80v16h-64c-4.417969 0-8 3.582031-8 8v344c0 4.417969 3.582031 8 8 8h256c4.417969 0 8-3.582031 8-8v-344c0-4.417969-3.582031-8-8-8h-64v-16h80c4.417969 0 8 3.582031 8 8v376c0 4.417969-3.582031 8-8 8h-288c-4.417969 0-8-3.582031-8-8zm71.046875 132.695312c-10.085937 16.769532-7.449219 38.253907 6.402344 52.082032l68.878906 68.878906c3.125 3.121094 8.1875 3.121094 11.3125 0l68.878906-68.878906c12.191407-12.191406 15.835938-30.523438 9.242188-46.453125-6.59375-15.925781-22.128907-26.316407-39.371094-26.324219h-.847656c-9.226563.011719-18.207031 3.003906-25.597657 8.527344l-17.945312 13.472656-17.96875-13.472656c-7.382812-5.519532-16.355469-8.511719-25.574219-8.527344h-.847656c-14.964844.042969-28.824219 7.886719-36.5625 20.695312zm13.753906 8.234376c4.828125-7.992188 13.472657-12.890626 22.808594-12.929688h.847656c5.765625.003906 11.378907 1.871094 16 5.328125l22.742188 17.070313c2.84375 2.136718 6.757812 2.136718 9.601562 0l22.765625-17.070313c4.621094-3.457031 10.234375-5.324219 16-5.328125h.847656c10.765626.019531 20.457032 6.515625 24.570313 16.460938 4.109375 9.949218 1.828125 21.390624-5.785156 29.003906l-63.199219 63.199218-63.199219-63.199218c-8.652343-8.636719-10.300781-22.0625-4-32.535156zm0 0" transform="matrix(0.190643262006566 0.051082708097094295 -0.051082708097094295 0.190643262006566 317.7766853516952 -52.048557088483484)" fill="#000000" id="L1_265"/><g transform="matrix(0.03937007859349251 0 0 0.03937007859349251 252.5 340)" id="L1_266"><circle cx="254" cy="254" r="254" fill="#84dbff"/><path d="M122.8,102.4v302.8c0,8.8,7.2,16.4,16.4,16.4H316v-52.4c0-9.2,7.2-16.4,16.4-16.4h52.4V102.4  c0-8.8-7.2-16.4-16.4-16.4H139.2C130,86.4,122.8,93.6,122.8,102.4z" fill="#ffffff"/><path d="M316,421.6l68.8-68.8h-52c-9.2,0-16.4,7.2-16.4,16.4v52.4H316z" fill="#e6e9ee"/><path d="M320.4,244.4c-16.8,0.4-34,2-51.2,5.2c11.6,1.6,23.2,3.6,34.8,6c-28.4,18-58.4,34.4-90.4,46.8  c-0.4-34.4,13.6-71.6,38.4-102.8c0.8,12.4,2,24.4,3.6,36.4c2.8-18,7.2-36,12.4-54l0,0c10-9.6,20.8-18.4,32.4-26.4  c-4.4,11.6-8.4,22.8-12,34.4c10-16,21.6-31.6,34-46.8c10.8-5.2,22-9.6,33.2-12.8c-6.4,11.6-12,23.6-17.2,35.6  c11.2-13.6,23.2-27.2,36.4-40c25.2-4.4,50-3.2,72,3.6c-14.4,18-30,34.4-46.4,50c-16.4,1.2-32.8,3.6-49.2,7.2  c12.4,1.2,24.8,2.8,36.4,4.8c-7.6,6.8-15.2,13.2-22.8,19.6l0,0c-16.4,3.2-33.2,7.2-49.6,12.4c11.2-0.4,22.4,0,33.2,0.8  c-2.8,2-5.6,4.4-8.4,6.4C333.6,235.2,327.2,239.6,320.4,244.4z" fill="#324a5e"/><path d="M429.6,134.4c-11.2,3.6-26.8,8.8-44.8,17.2c-18,8-38.4,19.2-58.8,32.8c-10,6.8-20.4,14.4-30.4,22.4  s-19.6,16.8-29.2,26c-9.2,9.2-18.4,18.8-26.4,28.4c-8.4,9.6-16,20-23.2,30c-12.4,17.6-22.8,35.2-30.8,51.6c-1.2,2.8-0.8,5.6,1.2,8  l0,0c9.2-16.8,21.2-36,35.2-55.2c7.2-9.6,15.2-19.6,23.2-29.2c8.4-9.6,17.2-18.8,26.4-28s18.8-17.6,28.4-25.6S320,197.2,330,190  c19.6-14,39.2-25.6,56.8-34.4c17.6-8.8,32.4-15.6,43.2-20c10.8-4.4,17.2-6.4,17.2-6.4C447.2,129.2,440.4,130.8,429.6,134.4z" fill="#e6e9ee"/></g><g transform="matrix(0.08855042606592178 0 0 0.08855042606592178 67.5 67.5)" id="L1_267"><path d="m444.996094 209.125v33.8125l-70.355469 60.285156v69.746094l-39.394531 19.691406v-89.4375l-5.191406-4.453125-65.171876-55.832031v-33.8125zm0 0" fill="#6fe3ff"/><path d="m444.996094 178.65625v30.46875h-180.113282v-30.46875zm0 0" fill="#6fe3ff"/><path d="m347.214844 178.347656v.308594h-82.332032v64.28125l65.171876 55.832031-.492188.570313c-6.605469 4.46875-14.398438 6.847656-22.371094 6.835937h-260.164062c-22.101563 0-40.023438-17.921875-40.023438-40.023437v-177.371094h340.210938zm0 0" fill="#e48e66"/><path d="m347.214844 47.40625v41.375h-340.210938v-41.375c0-22.105469 17.921875-40.027344 40.023438-40.027344h260.164062c22.105469 0 40.023438 17.921875 40.023438 40.027344zm-177.730469 1.21875c.019531-6.941406-5.59375-12.585938-12.539063-12.605469-6.941406-.019531-12.585937 5.59375-12.605468 12.535157-.019532 6.945312 5.59375 12.589843 12.539062 12.609374 6.9375.023438 12.582032-5.582031 12.605469-12.519531 0-.007812 0-.011719 0-.019531zm-56.472656-.179688c.015625-6.941406-5.597657-12.589843-12.539063-12.605468-6.945312-.019532-12.589844 5.59375-12.609375 12.535156s5.589844 12.582031 12.527344 12.609375c6.945313.023437 12.59375-5.582031 12.621094-12.527344 0-.003906 0-.007812 0-.011719zm-56.476563-.167968c.023438-6.945313-5.585937-12.59375-12.527344-12.621094-6.945312-.023438-12.59375 5.585938-12.617187 12.53125-.027344 6.941406 5.582031 12.589844 12.527344 12.617188 6.941406.019531 12.589843-5.585938 12.617187-12.527344zm0 0" fill="#f8ec7d"/><path d="m156.957031 36.019531c6.945313.023438 12.554688 5.671875 12.527344 12.617188-.023437 6.941406-5.675781 12.550781-12.617187 12.527343-6.941407-.023437-12.554688-5.671874-12.527344-12.617187.019531-6.9375 5.660156-12.546875 12.597656-12.527344zm0 0" fill="#e48e66"/><path d="m100.472656 35.839844c6.941406.015625 12.554688 5.664062 12.539063 12.605468-.019531 6.945313-5.667969 12.558594-12.609375 12.539063-6.945313-.019531-12.558594-5.664063-12.539063-12.609375v-.007812c.023438-6.941407 5.667969-12.550782 12.609375-12.527344zm0 0" fill="#e48e66"/><path d="m43.996094 35.65625c6.945312.019531 12.558594 5.667969 12.539062 12.609375-.019531 6.945313-5.664062 12.558594-12.609375 12.539063-6.941406-.019532-12.554687-5.664063-12.535156-12.609376.023437-6.941406 5.664063-12.550781 12.605469-12.539062zm0 0" fill="#e48e66"/><g fill="#63316d"><path d="m335.246094 399.664062c-1.277344 0-2.558594-.351562-3.683594-1.046874-2.0625-1.277344-3.320312-3.53125-3.320312-5.957032v-86.214844l-67.914063-58.1875c-1.554687-1.332031-2.449219-3.273437-2.449219-5.320312v-64.28125c0-3.867188 3.136719-7.003906 7.003906-7.003906h180.113282c3.867187 0 7.003906 3.136718 7.003906 7.003906v64.28125c0 2.046875-.894531 3.988281-2.445312 5.320312l-67.910157 58.1875v66.523438c0 2.652344-1.496093 5.078125-3.871093 6.265625l-39.394532 19.691406c-.988281.492188-2.0625.738281-3.132812.738281zm-63.359375-159.949218 67.921875 58.191406c1.550781 1.332031 2.445312 3.273438 2.445312 5.316406v78.105469l25.382813-12.691406v-65.414063c0-2.042968.894531-3.984375 2.449219-5.316406l67.90625-58.191406v-54.054688h-166.105469zm173.109375 3.222656h.007812zm0 0"/><path d="m444.996094 216.128906h-177.371094c-3.867188 0-7.003906-3.136718-7.003906-7.003906s3.136718-7.003906 7.003906-7.003906h177.371094c3.867187 0 7.003906 3.136718 7.003906 7.003906s-3.136719 7.003906-7.003906 7.003906zm0 0"/><path d="m307.25 313.179688c-.023438 0-.046875 0-.070312 0h-260.152344c-25.929688 0-47.027344-21.097657-47.027344-47.027344v-218.746094c0-25.933594 21.097656-47.03125 47.027344-47.03125h260.164062c25.929688 0 47.027344 21.097656 47.027344 47.03125v130.941406c0 3.867188-3.136719 7.003906-7.003906 7.003906-3.867188 0-7.003906-3.136718-7.003906-7.003906v-130.941406c0-18.207031-14.8125-33.019531-33.019532-33.019531h-260.164062c-18.207032 0-33.019532 14.8125-33.019532 33.019531v218.746094c0 18.207031 14.8125 33.019531 33.019532 33.019531h260.164062.046875c6.589844 0 12.949219-1.949219 18.40625-5.632813 3.207031-2.167968 7.558594-1.324218 9.722657 1.878907 2.167968 3.207031 1.324218 7.5625-1.878907 9.726562-7.78125 5.257813-16.851562 8.035157-26.238281 8.035157zm0 0"/><path d="m347.214844 95.785156h-340.210938c-3.867187 0-7.003906-3.136718-7.003906-7.003906s3.136719-7.003906 7.003906-7.003906h340.210938c3.867187 0 7.003906 3.136718 7.003906 7.003906s-3.136719 7.003906-7.003906 7.003906zm0 0"/><path d="m100.4375 67.988281c-.019531 0-.035156 0-.054688 0-5.230468-.015625-10.140624-2.0625-13.828124-5.773437-3.6875-3.707032-5.710938-8.628906-5.695313-13.859375.03125-10.773438 8.808594-19.523438 19.578125-19.523438h.054688c10.789062.039063 19.546874 8.84375 19.523437 19.628907v.003906c-.03125 10.777344-8.808594 19.523437-19.578125 19.523437zm-.003906-25.144531c-3.058594 0-5.554688 2.488281-5.566406 5.550781-.003907 1.488281.574218 2.886719 1.621093 3.941407 1.050781 1.054687 2.445313 1.640624 3.933594 1.644531h.015625c3.0625 0 5.558594-2.488281 5.566406-5.550781.007813-3.070313-2.484375-5.574219-5.554687-5.585938-.007813 0-.011719 0-.015625 0zm12.578125 5.601562h.007812zm0 0"/><path d="m43.964844 67.808594c-.023438 0-.046875 0-.074219 0-5.226563-.019532-10.136719-2.074219-13.820313-5.785156-3.683593-3.710938-5.703124-8.632813-5.683593-13.863282.039062-10.765625 8.816406-19.507812 19.574219-19.507812h.054687c10.792969.03125 19.554687 8.835937 19.523437 19.628906v.019531c-.019531 5.230469-2.070312 10.140625-5.785156 13.824219-3.691406 3.664062-8.585937 5.683594-13.789062 5.683594zm0-25.144532c-3.0625 0-5.558594 2.484376-5.570313 5.546876-.003906 1.488281.570313 2.886718 1.617188 3.945312 1.046875 1.054688 2.445312 1.636719 3.929687 1.644531h.023438c1.480468 0 2.871094-.574219 3.921875-1.617187 1.054687-1.046875 1.636719-2.441406 1.644531-3.925782.003906-3.085937-2.484375-5.585937-5.550781-5.59375-.007813 0-.011719 0-.015625 0zm12.570312 5.613282h.011719zm0 0"/><path d="m156.914062 68.167969c-.019531 0-.039062 0-.054687 0-10.796875-.03125-19.554687-8.835938-19.523437-19.628907.027343-10.777343 8.804687-19.523437 19.574218-19.523437h.058594c10.800781.035156 19.550781 8.84375 19.519531 19.628906-.027343 10.777344-8.804687 19.523438-19.574219 19.523438zm.003907-25.144531c-3.070313 0-5.566407 2.488281-5.574219 5.550781-.007812 3.070312 2.484375 5.578125 5.550781 5.585937h.019531c3.0625 0 5.558594-2.488281 5.566407-5.554687.007812-3.066407-2.480469-5.570313-5.546875-5.582031-.003906 0-.011719 0-.015625 0zm0 0"/></g></g><g transform="matrix(0.15086206793785095 0 0 0.15086206793785095 315 140)" id="L1_268"><path d="M316.688,97.656 156.688,257.656 0,257.656 0,273.656 163.312,273.656 323.312,113.656 368,113.656 368,97.656z"/><rect x="40px" y="353px" width="32px" height="16px"/><rect x="88px" y="353px" width="72px" height="16px"/><rect x="40px" y="385px" width="88px" height="16px"/><rect x="144px" y="385px" width="16px" height="16px"/><path d="M424,62.344l-40,40v299.312h80V102.344L424,62.344z M448,385.656h-48V108.968l24-24l24,24V385.656z"/><path d="M288,161.656v240h80v-240H288z M352,385.656h-48v-208h48V385.656z"/><path d="M192,257.656v144h80v-144H192z M256,385.656h-48v-112h48V385.656z"/><path d="M99.84,199.168c2.624-3.848,4.16-8.48,4.16-13.48c0-13.232-10.768-24-24-24s-24,10.768-24,24    c0,4.992,1.536,9.632,4.16,13.48C48.176,206.08,40,218.888,40,233.688v8h80v-8C120,218.888,111.824,206.08,99.84,199.168z     M80,177.688c4.416,0,8,3.592,8,8s-3.584,8-8,8s-8-3.592-8-8S75.584,177.688,80,177.688z M57.368,225.688    c3.304-9.312,12.2-16,22.632-16s19.328,6.688,22.632,16H57.368z"/></g><g transform="matrix(0.17578125 0 0 0.17578125 217.5 217.5)" id="L1_269"><path d="M 277.5625 244.296875 L 372.878906 244.296875 C 377.019531 244.296875 380.378906 240.9375 380.378906 236.796875 C 380.378906 232.652344 377.019531 229.296875 372.878906 229.296875 L 277.5625 229.296875 C 273.421875 229.296875 270.0625 232.652344 270.0625 236.796875 C 270.0625 240.9375 273.421875 244.296875 277.5625 244.296875 Z M 277.5625 244.296875 " fill="#000000" fill-opacity="1" stroke="none"/><path d="M 277.5625 198.871094 L 447.011719 198.871094 C 451.152344 198.871094 454.511719 195.511719 454.511719 191.371094 C 454.511719 187.226562 451.152344 183.871094 447.011719 183.871094 L 277.5625 183.871094 C 273.421875 183.871094 270.0625 187.226562 270.0625 191.371094 C 270.0625 195.511719 273.421875 198.871094 277.5625 198.871094 Z M 277.5625 198.871094 " fill="#000000" fill-opacity="1" stroke="none"/><path d="M 277.5625 156.058594 L 372.878906 156.058594 C 377.019531 156.058594 380.378906 152.699219 380.378906 148.558594 C 380.378906 144.414062 377.019531 141.058594 372.878906 141.058594 L 277.5625 141.058594 C 273.421875 141.058594 270.0625 144.414062 270.0625 148.558594 C 270.0625 152.699219 273.421875 156.058594 277.5625 156.058594 Z M 277.5625 156.058594 " fill="#000000" fill-opacity="1" stroke="none"/><path d="M 277.5625 110.632812 L 447.011719 110.632812 C 451.152344 110.632812 454.511719 107.277344 454.511719 103.132812 C 454.511719 98.992188 451.152344 95.632812 447.011719 95.632812 L 277.5625 95.632812 C 273.421875 95.632812 270.0625 98.992188 270.0625 103.132812 C 270.0625 107.277344 273.421875 110.632812 277.5625 110.632812 Z M 277.5625 110.632812 " fill="#000000" fill-opacity="1" stroke="none"/><path d="M 494.007812 47.074219 C 503.929688 47.074219 512 39.003906 512 29.078125 L 512 18.492188 C 512 8.570312 503.929688 0.5 494.007812 0.5 L 17.992188 0.5 C 8.070312 0.5 0 8.570312 0 18.492188 L 0 29.078125 C 0 39.003906 8.070312 47.074219 17.992188 47.074219 L 21 47.074219 L 21 282.8125 L 17.992188 282.8125 C 8.070312 282.8125 0 290.882812 0 300.804688 L 0 311.390625 C 0 321.3125 8.070312 329.386719 17.992188 329.386719 L 148.519531 329.386719 L 90.460938 453.804688 C 85.652344 464.109375 90.125 476.40625 100.429688 481.214844 L 106.164062 483.890625 C 108.976562 485.203125 111.9375 485.824219 114.851562 485.824219 C 122.621094 485.824219 130.078125 481.414062 133.574219 473.925781 L 201.023438 329.386719 L 233.65625 329.386719 L 233.65625 433.589844 C 233.65625 444.160156 242.261719 452.765625 252.835938 452.765625 L 259.164062 452.765625 C 269.738281 452.765625 278.34375 444.160156 278.34375 433.589844 L 278.34375 329.386719 L 310.976562 329.386719 L 378.425781 473.921875 C 381.921875 481.414062 389.378906 485.824219 397.148438 485.824219 C 400.0625 485.824219 403.023438 485.203125 405.835938 483.890625 L 411.570312 481.214844 C 421.875 476.40625 426.347656 464.109375 421.539062 453.804688 L 363.480469 329.386719 L 494.007812 329.386719 C 503.929688 329.386719 512 321.3125 512 311.390625 L 512 300.804688 C 512 290.882812 503.929688 282.8125 494.007812 282.8125 L 491 282.8125 L 491 47.074219 Z M 119.980469 467.578125 C 118.667969 470.390625 115.3125 471.609375 112.507812 470.296875 L 106.773438 467.621094 C 103.960938 466.308594 102.742188 462.957031 104.054688 460.148438 L 165.074219 329.386719 L 184.46875 329.386719 Z M 263.34375 433.585938 C 263.34375 435.890625 261.46875 437.765625 259.164062 437.765625 L 252.835938 437.765625 C 250.53125 437.765625 248.65625 435.890625 248.65625 433.585938 L 248.65625 329.386719 L 263.34375 329.386719 Z M 407.945312 460.148438 C 409.257812 462.957031 408.039062 466.3125 405.226562 467.621094 L 399.492188 470.300781 C 396.683594 471.613281 393.328125 470.390625 392.019531 467.578125 L 327.53125 329.386719 L 346.925781 329.386719 Z M 117.566406 47.074219 L 476 47.074219 L 476 282.8125 L 429.867188 282.8125 C 425.722656 282.8125 422.367188 286.167969 422.367188 290.3125 C 422.367188 294.453125 425.722656 297.8125 429.867188 297.8125 L 494.007812 297.8125 C 495.65625 297.8125 497 299.15625 497 300.804688 L 497 311.390625 C 497 313.042969 495.65625 314.386719 494.007812 314.386719 L 17.992188 314.386719 C 16.34375 314.386719 15 313.042969 15 311.390625 L 15 300.804688 C 15 299.15625 16.34375 297.8125 17.992188 297.8125 L 395.011719 297.8125 C 399.152344 297.8125 402.511719 294.453125 402.511719 290.3125 C 402.511719 286.167969 399.152344 282.8125 395.011719 282.8125 L 36 282.8125 L 36 47.074219 L 82.710938 47.074219 C 86.851562 47.074219 90.210938 43.71875 90.210938 39.574219 C 90.210938 35.429688 86.851562 32.074219 82.710938 32.074219 L 17.992188 32.074219 C 16.34375 32.074219 15 30.730469 15 29.078125 L 15 18.492188 C 15 16.84375 16.34375 15.5 17.992188 15.5 L 494.007812 15.5 C 495.65625 15.5 497 16.84375 497 18.492188 L 497 29.078125 C 497 30.730469 495.65625 32.074219 494.007812 32.074219 L 117.566406 32.074219 C 113.421875 32.074219 110.066406 35.429688 110.066406 39.574219 C 110.066406 43.71875 113.421875 47.074219 117.566406 47.074219 Z M 117.566406 47.074219 " fill="#000000" fill-opacity="1" stroke="none"/><path d="M 60.78125 169.964844 C 60.78125 222.058594 103.160156 264.4375 155.253906 264.4375 C 190.703125 264.4375 221.648438 244.808594 237.808594 215.855469 C 237.902344 215.707031 238.003906 215.570312 238.089844 215.417969 C 240.285156 211.421875 242.171875 207.269531 243.761719 203.003906 C 243.847656 202.773438 243.9375 202.539062 244.023438 202.308594 C 244.15625 201.9375 244.285156 201.5625 244.417969 201.191406 C 244.609375 200.640625 244.800781 200.085938 244.984375 199.527344 C 245.0625 199.289062 245.140625 199.050781 245.21875 198.808594 C 247.261719 192.449219 248.648438 185.796875 249.300781 178.933594 C 249.304688 178.867188 249.308594 178.804688 249.316406 178.742188 C 249.394531 177.90625 249.460938 177.066406 249.515625 176.222656 C 249.527344 176.019531 249.539062 175.816406 249.554688 175.613281 C 249.597656 174.886719 249.632812 174.160156 249.65625 173.429688 C 249.667969 173.199219 249.679688 172.96875 249.683594 172.738281 C 249.710938 171.816406 249.726562 170.890625 249.726562 169.964844 C 249.726562 169.09375 249.714844 168.230469 249.691406 167.367188 C 249.679688 166.988281 249.660156 166.613281 249.648438 166.238281 C 249.628906 165.773438 249.613281 165.308594 249.589844 164.84375 C 249.5625 164.324219 249.523438 163.808594 249.488281 163.292969 C 249.46875 163.003906 249.449219 162.714844 249.425781 162.429688 C 249.375 161.777344 249.316406 161.128906 249.253906 160.480469 C 249.242188 160.382812 249.234375 160.28125 249.222656 160.183594 C 246.578125 134.1875 233.445312 110.683594 212.265625 94.632812 C 199.609375 85.042969 185.082031 78.929688 169.640625 76.585938 C 169.511719 76.566406 169.378906 76.550781 169.25 76.53125 C 168.09375 76.359375 166.933594 76.207031 165.765625 76.078125 C 165.125 76.007812 164.484375 75.945312 163.839844 75.886719 C 163.445312 75.851562 163.050781 75.8125 162.65625 75.78125 C 161.621094 75.699219 160.578125 75.640625 159.535156 75.59375 C 159.242188 75.582031 158.949219 75.570312 158.65625 75.5625 C 157.527344 75.519531 156.394531 75.492188 155.257812 75.492188 C 154.394531 75.492188 153.539062 75.507812 152.6875 75.527344 C 152.433594 75.535156 152.179688 75.550781 151.925781 75.558594 C 151.320312 75.578125 150.714844 75.601562 150.113281 75.632812 C 149.816406 75.648438 149.519531 75.671875 149.222656 75.691406 C 148.664062 75.726562 148.109375 75.761719 147.558594 75.808594 C 147.234375 75.835938 146.90625 75.863281 146.582031 75.894531 C 146.066406 75.941406 145.550781 75.992188 145.039062 76.046875 C 144.679688 76.085938 144.316406 76.128906 143.957031 76.171875 C 143.496094 76.226562 143.035156 76.285156 142.574219 76.347656 C 142.167969 76.402344 141.761719 76.457031 141.355469 76.519531 C 140.96875 76.574219 140.582031 76.636719 140.195312 76.699219 C 139.722656 76.773438 139.246094 76.851562 138.773438 76.933594 C 138.511719 76.980469 138.25 77.03125 137.988281 77.078125 C 136.671875 77.324219 135.359375 77.585938 134.058594 77.882812 C 134.003906 77.894531 133.953125 77.914062 133.898438 77.929688 C 92.054688 87.632812 60.78125 125.214844 60.78125 169.964844 Z M 234.621094 165.851562 C 234.691406 167.214844 234.726562 168.585938 234.726562 169.964844 C 234.726562 176.742188 233.855469 183.484375 232.164062 190 C 232.15625 190.023438 232.148438 190.046875 232.144531 190.074219 C 231.824219 191.300781 231.472656 192.519531 231.09375 193.730469 C 230.847656 194.507812 230.578125 195.273438 230.308594 196.039062 C 230.160156 196.476562 230.019531 196.914062 229.859375 197.351562 C 229.351562 198.734375 228.796875 200.09375 228.214844 201.4375 L 166.472656 167.566406 L 208.945312 111.433594 C 223.835938 125.105469 233.519531 144.363281 234.621094 165.851562 Z M 146.90625 90.933594 C 147.011719 90.921875 147.113281 90.90625 147.21875 90.894531 C 148.398438 90.777344 149.589844 90.691406 150.785156 90.625 C 151.0625 90.609375 151.339844 90.597656 151.617188 90.582031 C 152.824219 90.527344 154.035156 90.492188 155.253906 90.492188 C 156.492188 90.492188 157.722656 90.527344 158.949219 90.585938 C 159.214844 90.597656 159.476562 90.609375 159.742188 90.625 C 173.347656 91.386719 186.046875 95.589844 196.992188 102.371094 L 158.960938 152.636719 L 144.808594 91.199219 C 145.507812 91.105469 146.203125 91.007812 146.90625 90.933594 Z M 130.191406 94.5625 L 147.945312 171.648438 C 147.957031 171.703125 147.980469 171.753906 147.992188 171.808594 C 148.058594 172.054688 148.132812 172.300781 148.21875 172.539062 C 148.253906 172.636719 148.292969 172.730469 148.332031 172.824219 C 148.425781 173.050781 148.527344 173.265625 148.640625 173.480469 C 148.679688 173.554688 148.714844 173.628906 148.753906 173.699219 C 148.910156 173.972656 149.085938 174.234375 149.273438 174.488281 C 149.3125 174.539062 149.359375 174.585938 149.398438 174.636719 C 149.558594 174.835938 149.722656 175.027344 149.902344 175.207031 C 149.972656 175.277344 150.042969 175.347656 150.117188 175.414062 C 150.285156 175.574219 150.464844 175.726562 150.648438 175.871094 C 150.71875 175.925781 150.785156 175.984375 150.859375 176.035156 C 151.113281 176.21875 151.371094 176.386719 151.644531 176.539062 L 151.675781 176.554688 C 151.675781 176.558594 151.679688 176.558594 151.679688 176.558594 L 220.984375 214.578125 C 206.667969 235.601562 182.550781 249.4375 155.253906 249.4375 C 111.433594 249.4375 75.78125 213.785156 75.78125 169.964844 C 75.78125 134.898438 98.617188 105.085938 130.191406 94.5625 Z M 130.191406 94.5625 " fill="#000000" fill-opacity="1" stroke="none"/></g><g transform="matrix(0.07812485098838806 0 0 0.07812485098838806 155 330)" id="L1_270"><path d="m500.109375 372.640625c-5.859375 5.855469-15.355469 5.855469-21.214844 0l-98.289062-98.289063 21.214843-21.214843 98.289063 98.289062c5.855469 5.859375 5.855469 15.355469 0 21.214844zm0 0" fill="#484b63"/><path d="m7.5 62.5h315v442h-315zm0 0" fill="#d8d5ed"/><path d="m40 307.726562h60v162h-60zm0 0" fill="#ff2c5c"/><path d="m134 247.726562h60v222h-60zm0 0" fill="#ffd659"/><path d="m230 269.726562h60v200h-60zm0 0" fill="#4fc6f5"/><path d="m70 307.726562h30v162h-30zm0 0" fill="#e62753"/><path d="m164 247.726562h30v222h-30zm0 0" fill="#ffbd54"/><path d="m260 269.726562h30v200h-30zm0 0" fill="#3bb3e3"/><path d="m408.339844 54.074219c-62.09375-62.09375-162.765625-62.09375-224.859375 0-62.089844 62.089843-62.089844 162.761719 0 224.855469 62.09375 62.09375 162.765625 62.09375 224.859375 0s62.09375-162.765626 0-224.855469zm0 0" fill="#50536e"/><path d="m387.128906 257.71875c-50.296875 50.296875-132.132812 50.296875-182.433594 0-50.296874-50.296875-50.296874-132.136719 0-182.433594 50.296876-50.300781 132.136719-50.296875 182.433594 0 50.300782 50.296875 50.300782 132.136719 0 182.433594zm0 0" fill="#b5fcff"/><path d="m387.128906 75.285156c-28.960937-28.964844-68.378906-41.246094-106.214844-36.851562 27.871094 3.234375 54.882813 15.515625 76.214844 36.851562 50.296875 50.296875 50.296875 132.136719 0 182.433594-21.332031 21.335938-48.34375 33.613281-76.214844 36.851562 37.835938 4.390626 77.253907-7.890624 106.214844-36.851562 50.296875-50.296875 50.296875-132.136719 0-182.433594zm0 0" fill="#71f6fc"/><path d="m505.425781 344.152344-76.945312-76.957032c18.589843-24.496093 30.195312-53.859374 33.171875-84.644531 3.644531-37.78125-5.765625-75.953125-26.5-107.488281-2.277344-3.460938-6.929688-4.421875-10.386719-2.144531-3.460937 2.277343-4.421875 6.929687-2.144531 10.390625 39.238281 59.671875 31.007812 139.699218-19.570313 190.28125-59.074219 59.078125-155.1875 59.078125-214.257812 0-59.074219-59.078125-59.074219-155.207032 0-214.285156 59.070312-59.078126 155.1875-59.078126 214.238281-.019532l.410156.414063c2.921875 2.9375 7.667969 2.957031 10.605469.035156 2.941406-2.917969 2.957031-7.667969.039063-10.605469l-.429688-.433594c-64.921875-64.925781-170.550781-64.925781-235.472656 0-2.039063 2.039063-4.011719 4.117188-5.921875 6.234376h-164.761719c-4.140625 0-7.5 3.359374-7.5 7.5v33.171874c0 4.144532 3.359375 7.503907 7.5 7.503907 4.144531 0 7.5-3.359375 7.5-7.503907v-25.667968h145.230469c-5.730469 8.050781-10.660157 16.496094-14.789063 25.234375h-93.441406c-4.140625 0-7.5 3.355469-7.5 7.5s3.359375 7.5 7.5 7.5h87.234375c-2.152344 6.023437-3.945313 12.144531-5.382813 18.335937h-81.851562c-4.140625 0-7.5 3.355469-7.5 7.5 0 4.140625 3.359375 7.5 7.5 7.5h79.078125c-.839844 6.082032-1.34375 12.203125-1.511719 18.332032h-77.566406c-4.140625 0-7.5 3.359374-7.5 7.503906 0 4.140625 3.359375 7.5 7.5 7.5h77.828125c1.351563 21.789062 6.941406 43.359375 16.789063 63.347656h-12.613282c-4.144531 0-7.5 3.359375-7.5 7.503906v222.03125c0 4.144532 3.355469 7.503906 7.5 7.503906h60c4.144532 0 7.5-3.359374 7.5-7.503906v-166.097656c6.753906 4.652344 13.773438 8.753906 21 12.296875v153.800781c0 4.144532 3.359375 7.503906 7.5 7.503906h60c4.144532 0 7.5-3.359374 7.5-7.503906v-136.84375c5.847656-.058594 11.6875-.414062 17.503906-1.078125v115.855469c0 4.144531 3.355469 7.503906 7.5 7.503906 4.140626 0 7.5-3.359375 7.5-7.503906v-118.269531c23.707032-4.921875 46.539063-15.039063 66.65625-30.355469l76.929688 76.941406c4.253906 4.25 9.90625 6.59375 15.914062 6.59375 6.011719 0 11.664063-2.34375 15.914063-6.59375 8.769531-8.765625 8.773437-23.039062.003906-31.820312zm-318.921875 118.070312h-45v-207.03125h13.511719c6.488281 10.300782 14.207031 20.042969 23.167969 29.007813 2.703125 2.703125 5.484375 5.285156 8.320312 7.761719zm51.003906 0v-139.847656c14.546876 5.425781 29.703126 8.746094 45 9.972656v129.875zm257.3125-96.859375c-1.417968 1.417969-3.304687 2.199219-5.308593 2.199219-2.003907 0-3.890625-.78125-5.304688-2.199219l-75.980469-75.984375c1.839844-1.683594 3.652344-3.402344 5.429688-5.179687 1.773438-1.773438 3.5-3.582031 5.183594-5.429688l75.972656 75.988281c2.925781 2.925782 2.929688 7.6875.007812 10.605469zm0 0"/><path d="m322.507812 472.496094c-4.140624 0-7.5 3.355468-7.5 7.5v17.003906h-300.007812v-368.890625c0-4.144531-3.355469-7.5-7.5-7.5-4.140625 0-7.5 3.355469-7.5 7.5v376.390625c0 4.144531 3.359375 7.5 7.5 7.5h315.007812c4.144532 0 7.5-3.355469 7.5-7.5v-24.503906c0-4.144532-3.355468-7.5-7.5-7.5zm0 0"/><path d="m32.5 307.695312v162.027344c0 4.140625 3.359375 7.5 7.5 7.5h60.003906c4.140625 0 7.5-3.359375 7.5-7.5v-162.027344c0-4.140624-3.359375-7.5-7.5-7.5h-60.003906c-4.140625 0-7.5 3.359376-7.5 7.5zm15 7.503907h45.003906v147.019531h-45.003906zm0 0"/><path d="m108.082031 210.183594c4.144531 0 7.5-3.359375 7.5-7.503906 0-4.140626-3.355469-7.5-7.5-7.5h-56.082031c-4.140625 0-7.5 3.359374-7.5 7.5 0 4.144531 3.359375 7.503906 7.5 7.503906zm0 0"/><path d="m295.921875 29.988281c-36.5 0-70.78125 14.179688-96.523437 39.925781-25.742188 25.746094-39.921876 60.03125-39.921876 96.535157 0 36.503906 14.179688 70.789062 39.921876 96.535156 25.746093 25.746094 60.023437 39.925781 96.523437 39.925781s70.777344-14.179687 96.523437-39.925781c25.742188-25.746094 39.917969-60.03125 39.917969-96.535156 0-36.503907-14.175781-70.789063-39.917969-96.535157-25.746093-25.746093-60.023437-39.925781-96.523437-39.925781zm85.914063 222.386719c-22.910157 22.914062-53.421876 35.53125-85.914063 35.53125-32.496094 0-63.003906-12.617188-85.914063-35.53125-22.914062-22.914062-35.53125-53.429688-35.53125-85.925781 0-32.5 12.617188-63.015625 35.53125-85.929688 23.683594-23.6875 54.800782-35.535156 85.914063-35.535156s62.230469 11.847656 85.914063 35.535156c22.910156 22.914063 35.527343 53.429688 35.527343 85.929688 0 32.496093-12.617187 63.011719-35.527343 85.925781zm0 0"/></g><g transform="matrix(0.078125 0 0 0.078125 242.5 67.5)" id="L1_271"><path d="M256.001,512C397,512,512,397,512,255.999C512,114.999,397,0,256.001,0  C115.001,0,0,114.999,0,255.999C0,397,115.001,512,256.001,512z" fill="#0e7886"/><path d="M117.584,71.673h276.831v311.432l-57.22,57.219H117.584V71.673z" fill="#ffffff"/><path d="M337.195,383.105h57.22l-57.22,57.219V383.105z" fill="#fbb429"/><path d="M151.847,181.623h201.8v2.994h-201.8V181.623z M151.847,354.178L151.847,354.178h92.327v2.994  h-92.327V354.178z M151.847,338.199L151.847,338.199h201.8v2.993h-201.8V338.199z M151.847,318.628L151.847,318.628h201.8v2.993  h-201.8V318.628z M151.847,299.055L151.847,299.055h201.8v2.993h-201.8V299.055z M151.847,279.484L151.847,279.484h201.8v2.993  h-201.8V279.484z M151.847,259.911L151.847,259.911h201.8v2.993h-201.8V259.911z M151.847,240.341L151.847,240.341h201.8v2.992  h-201.8V240.341z M151.847,220.767L151.847,220.767h201.8v2.994h-201.8V220.767z M151.847,201.197L151.847,201.197h201.8v2.994  h-201.8V201.197z" fill="#c8cacc"/><g><path d="M195.812,166.138c-0.682,0-1.281-0.133-1.796-0.383c-0.516-0.268-0.948-0.599-1.298-1.033   c-0.332-0.415-0.599-0.898-0.782-1.463c-0.166-0.548-0.266-1.097-0.266-1.647c0-0.499,0.132-1.163,0.4-2.03   c0.25-0.864,0.581-1.828,0.998-2.895c0.398-1.081,0.848-2.195,1.33-3.358c0.499-1.182,0.965-2.295,1.415-3.359   c0.466-1.082,0.849-2.079,1.165-2.978c0.332-0.917,0.565-1.631,0.698-2.147c0.116-0.584,0.283-1.281,0.483-2.096   c0.199-0.815,0.415-1.696,0.648-2.663c0.25-0.948,0.499-1.963,0.731-3.01c0.25-1.063,0.499-2.129,0.766-3.193   c-0.467,0.1-1.016,0.184-1.68,0.268c-0.666,0.081-1.382,0.15-2.13,0.216c-1.064,0.1-2.129,0.25-3.16,0.432   c-1.048,0.199-2.112,0.417-3.193,0.667c-1.097,0.249-2.212,0.499-3.394,0.782c-1.163,0.266-2.412,0.566-3.743,0.846   c-1.946,0.433-3.909,0.898-5.855,1.416c-1.946,0.514-3.975,0.78-6.087,0.78c-0.65,0-1.248-0.166-1.815-0.515   c-0.548-0.334-1.162-0.581-1.846-0.748c-0.648,1.033-1.262,2.145-1.846,3.328c-0.581,1.198-1.13,2.411-1.613,3.658   c-0.483,1.248-0.932,2.495-1.314,3.71c-0.382,1.215-0.732,2.363-1.016,3.427c-0.165,0.599-0.315,1.347-0.414,2.28   c-0.117,0.913-0.235,1.862-0.316,2.827c-0.1,0.95-0.2,1.865-0.299,2.746c-0.1,0.879-0.2,1.578-0.299,2.096   c-0.084,0.481-0.283,0.964-0.582,1.429c-0.284,0.483-0.65,0.915-1.066,1.298c-0.432,0.398-0.898,0.717-1.415,0.948   c-0.514,0.25-1.048,0.368-1.562,0.368c-0.916,0-1.647-0.268-2.212-0.8c-0.567-0.53-1.031-1.198-1.365-1.994   c-0.35-0.798-0.581-1.664-0.714-2.613c-0.134-0.948-0.184-1.796-0.184-2.578c0-1.978,0.233-4.042,0.733-6.17   c0.482-2.13,1.13-4.292,1.962-6.471c0.832-2.196,1.814-4.407,2.928-6.637c1.114-2.229,2.329-4.44,3.627-6.652   c1.08-1.98,2.412-4.277,3.991-6.871c1.597-2.594,3.376-5.271,5.34-8.018c1.963-2.744,4.091-5.439,6.388-8.066   c2.295-2.629,4.673-4.974,7.135-7.036c2.478-2.062,5.007-3.726,7.602-4.99c2.611-1.281,5.19-1.914,7.75-1.914   c2.695,0,4.94,0.501,6.754,1.465c1.796,0.982,3.244,2.295,4.308,3.958c1.081,1.647,1.829,3.576,2.261,5.788   c0.449,2.212,0.666,4.559,0.666,7.021c0,2.18-0.133,4.425-0.416,6.719c-0.282,2.314-0.615,4.575-1.03,6.786   c-0.4,2.196-0.832,4.325-1.315,6.371c-0.464,2.046-0.898,3.909-1.28,5.555l-1.714,6.636c-0.066,0.202-0.181,0.582-0.365,1.166   c-0.166,0.581-0.398,1.298-0.682,2.128c-0.265,0.817-0.581,1.715-0.913,2.678c-0.35,0.949-0.684,1.897-1.033,2.829   c-0.331,0.913-0.665,1.779-0.981,2.545c-0.299,0.783-0.566,1.413-0.798,1.912l0.05-0.05c-0.232,0.848-0.467,1.696-0.732,2.579   c-0.265,0.882-0.615,1.662-1.064,2.361c-0.467,0.698-1.048,1.264-1.763,1.713C197.875,165.92,196.96,166.138,195.812,166.138   L195.812,166.138z M198.307,105.126L198.307,105.126c-1.465,0-2.928,0.299-4.375,0.898c-1.446,0.614-2.861,1.397-4.258,2.379   c-1.397,0.964-2.763,2.096-4.075,3.409c-1.314,1.298-2.561,2.627-3.743,3.992c-1.182,1.363-2.296,2.727-3.344,4.108   c-1.033,1.382-1.98,2.66-2.829,3.826c-0.131,0.2-0.299,0.449-0.514,0.764c-0.199,0.299-0.416,0.65-0.633,1.015   c-0.2,0.383-0.415,0.766-0.599,1.181c-0.2,0.4-0.365,0.765-0.5,1.097h5.025c1.829,0,3.908-0.133,6.238-0.398   c2.345-0.265,4.656-0.565,6.951-0.932c2.28-0.349,4.392-0.714,6.305-1.08c1.913-0.383,3.361-0.665,4.341-0.866   c0.132-0.415,0.25-0.98,0.367-1.696c0.116-0.715,0.215-1.513,0.315-2.395c0.1-0.881,0.167-1.813,0.217-2.795   c0.051-0.996,0.067-2.012,0.067-3.043c0-0.849-0.034-1.813-0.085-2.91c-0.065-1.082-0.265-2.112-0.599-3.094   c-0.315-0.964-0.813-1.796-1.479-2.461C200.435,105.457,199.504,105.125,198.307,105.126L198.307,105.126z M247.042,134.068   L247.042,134.068c-1.861,8.749-2.776,14.521-2.776,17.348c0,0.916-0.582,1.664-1.73,2.245c-1.163,0.582-2.312,0.882-3.493,0.882   c-1.298,0-2.346-0.331-3.16-0.98c-0.817-0.651-1.215-1.465-1.215-2.429c0-3.477,0.916-9.066,2.778-16.767   c-4.591,0.1-8.549,0.331-11.893,0.682c-1.946,0.198-3.277,0.299-3.961,0.299c-1.846,0-2.76-1.63-2.76-4.874   c0-1.264,0.898-2.28,2.695-3.028c1.796-0.748,7.849-1.198,18.147-1.363c3.26-11.013,5.322-17.184,6.188-18.498   c0.879-1.313,2.162-1.962,3.858-1.962c2.66,0,3.992,0.631,3.992,1.897c0,0.68-0.235,1.711-0.733,3.11   c-0.481,1.397-1.862,6.455-4.142,15.154c6.138-0.184,11.196-0.284,15.154-0.284c2.545,0,3.809,1.264,3.809,3.792   c0,2.994-1.862,4.491-5.605,4.491C257.969,133.783,252.914,133.883,247.042,134.068L247.042,134.068z" fill="#20d0c2"/><path d="M318.928,197.298l17.783,13.995l120.83-153.522l-17.783-13.994L318.928,197.298L318.928,197.298z" fill="#20d0c2"/></g><path d="M406.18,123.027l3.493-4.437l-17.757-14.026l-3.494,4.438L406.18,123.027L406.18,123.027z" fill="#15bdb1"/><path d="M315.073,227.368l21.636-16.076l-17.781-13.993l-10.486,24.85L315.073,227.368z" fill="#ff5b61"/><path d="M315.091,227.349l21.618-16.057l-3.854-3.034l-19.064,18.102L315.091,227.349L315.091,227.349z" fill="#ec4b53"/><path d="M455.198,31.667l10.483,8.251c2.882,2.268,3.217,6.696,0.743,9.84l-56.172,71.37l-20.965-16.501  l56.172-71.37C447.933,30.114,452.315,29.398,455.198,31.667L455.198,31.667z" fill="#ff5b61"/><path d="M464.542,48.276l-7.293,9.267l-17.942,22.792l-30.939,39.311l0.292,0.229l1.59,1.253l30.072-38.207  l26.1-33.163c2.474-3.144,2.139-7.572-0.741-9.843l-0.499-0.39C466.81,42.044,466.645,45.603,464.542,48.276L464.542,48.276z" fill="#ec4b53"/><path d="M299.865,239.08l0.741,0.585l14.467-12.297l-6.632-5.218L299.865,239.08z" fill="#666666"/><path d="M437.897,42.858l24.4,19.436c0.734,0.765,0.803,1.563,0.177,2.358l-32.628,41.457l-0.849,0.602  l-4.219,1.46c-2.05,0.607-3.243-2.036-0.824-3.191l3.701-1.282l31.222-39.669l-23.149-18.436L437.897,42.858L437.897,42.858z" fill="#ffffff"/><path d="M335.236,210.132l1.475,1.161l69.474-88.272l-1.473-1.159L335.236,210.132z" fill="#15bdb1"/><path d="M162.781,434.379h29.015l-0.001,75.207l-14.506-11.373l-14.508,11.373V434.379z" fill="#20d0c2"/><path d="M188.185,377.027l0.658,0.235c1.233-2.281,3.756-3.715,6.5-3.428  c3.622,0.379,6.251,3.629,5.869,7.249c-0.121,1.16-0.538,2.217-1.165,3.107c0.171,0.158,0.337,0.319,0.504,0.48  c2.055-1.589,4.95-1.875,7.338-0.494c3.157,1.819,4.235,5.858,2.415,9.011c-0.582,1.005-1.389,1.801-2.32,2.359  c0.091,0.215,0.18,0.429,0.266,0.647c2.52-0.612,5.276,0.303,6.896,2.533c2.143,2.948,1.485,7.074-1.459,9.216  c-0.943,0.685-2.005,1.083-3.086,1.213l-0.019,0.697c2.554,0.464,4.701,2.421,5.275,5.12c0.759,3.564-1.518,7.067-5.08,7.826  c-1.136,0.242-2.267,0.173-3.305-0.147l-0.303,0.632c2.141,1.463,3.304,4.123,2.731,6.819c-0.756,3.564-4.264,5.838-7.825,5.083  c-1.139-0.243-2.148-0.765-2.967-1.483c-0.174,0.153-0.351,0.304-0.53,0.453c1.365,2.209,1.347,5.115-0.276,7.346  c-2.139,2.949-6.266,3.602-9.213,1.46c-0.939-0.682-1.647-1.568-2.105-2.553c-0.222,0.07-0.445,0.135-0.671,0.198  c0.345,2.57-0.852,5.215-3.24,6.593c-3.156,1.821-7.19,0.739-9.011-2.414c-0.581-1.007-0.866-2.104-0.882-3.192  c-0.233-0.028-0.463-0.059-0.693-0.093c-0.732,2.493-2.903,4.42-5.644,4.709c-3.622,0.379-6.871-2.25-7.25-5.871  c-0.121-1.156,0.065-2.276,0.492-3.277c-0.199-0.119-0.397-0.243-0.593-0.366c-1.68,1.981-4.451,2.86-7.074,2.006  c-3.466-1.123-5.361-4.846-4.235-8.31c0.361-1.109,0.987-2.057,1.785-2.795c-0.134-0.191-0.266-0.383-0.395-0.576  c-2.34,1.127-5.228,0.805-7.279-1.043c-2.708-2.435-2.925-6.607-0.487-9.314c0.778-0.866,1.734-1.475,2.761-1.828  c-0.044-0.227-0.085-0.457-0.123-0.686c-2.596,0.075-5.103-1.392-6.223-3.913c-1.483-3.328,0.014-7.228,3.343-8.707  c1.062-0.475,2.182-0.644,3.264-0.546l0.165-0.68c-2.402-0.988-4.091-3.348-4.091-6.105c0-3.642,2.953-6.596,6.596-6.596  c1.166,0,2.26,0.304,3.211,0.833c0.139-0.185,0.282-0.37,0.427-0.553c-1.794-1.877-2.381-4.723-1.259-7.245  c1.48-3.329,5.382-4.825,8.709-3.343c1.062,0.473,1.937,1.194,2.59,2.062c0.205-0.112,0.409-0.223,0.615-0.331  c-0.872-2.444-0.251-5.281,1.8-7.127c2.704-2.438,6.88-2.217,9.313,0.49c0.78,0.864,1.288,1.88,1.53,2.94  c0.231-0.018,0.463-0.038,0.695-0.052c0.196-2.589,1.917-4.931,4.543-5.782c3.464-1.127,7.187,0.772,8.311,4.234  C188.343,374.831,188.393,375.963,188.185,377.027L188.185,377.027z" fill="#ff5b61"/><path d="M177.028,438.918c16.685,0,30.294-13.609,30.294-30.295c0-16.685-13.609-30.294-30.294-30.294  c-16.686,0-30.295,13.609-30.295,30.294C146.733,425.31,160.342,438.918,177.028,438.918z" fill="#ffffff"/><path d="M177.027,435.565c14.837,0,26.942-12.103,26.942-26.943c0-14.837-12.104-26.94-26.942-26.94  c-14.839,0-26.942,12.103-26.942,26.94C150.085,423.462,162.188,435.565,177.027,435.565z" fill="#fbb429"/><path d="M177.028,388.454l4.49,14.678l14.621-0.029l-11.845,9.04l4.545,14.658l-11.811-9.088l-11.812,9.088  l4.543-14.658l-11.843-9.04l14.621,0.029L177.028,388.454L177.028,388.454z" fill="#ffffff"/></g><g transform="matrix(0.13798940992418823 -0.03697415095323338 0.03697415095323338 0.13798940992418823 132.13392914965362 150.251263116738)" id="L1_272"><path d="M480,54.99H10c-5.523,0-10,4.477-10,10v360.02c0,5.523,4.477,10,10,10h470c5.522,0,10-4.477,10-10V64.99   C490,59.467,485.522,54.99,480,54.99z M470,74.99v48.077H20V74.99H470z M20,415.01V143.067h450V415.01H20z"/><g><path d="M62.574,109.028h5.5c5.522,0,10-4.476,10-10c0-5.522-4.478-10-10-10h-5.5c-5.522,0-10,4.478-10,10    C52.574,104.552,57.052,109.028,62.574,109.028z"/><path d="M103.741,109.028h5.5c5.522,0,10-4.476,10-10c0-5.522-4.478-10-10-10h-5.5c-5.523,0-10,4.478-10,10    C93.741,104.552,98.219,109.028,103.741,109.028z"/><path d="M144.908,109.028h5.5c5.522,0,10-4.476,10-10c0-5.522-4.478-10-10-10h-5.5c-5.523,0-10,4.478-10,10    C134.908,104.552,139.386,109.028,144.908,109.028z"/></g><path d="M338.354,243.361c-2.843-20.132-18.031-36.885-37.795-41.688c-5.361-1.302-10.774,1.989-12.078,7.355   c-1.305,5.366,1.988,10.774,7.355,12.079c11.878,2.887,21.006,12.953,22.715,25.05c0.705,4.995,4.985,8.604,9.889,8.604   c0.466,0,0.938-0.033,1.411-0.1C335.32,253.89,339.127,248.83,338.354,243.361z"/><path d="M359.357,306.206c12.141-15.35,19.398-34.732,19.398-55.779c0-49.668-40.408-90.076-90.077-90.076   c-49.668,0-90.076,40.408-90.076,90.076c0,49.669,40.408,90.077,90.076,90.077c21.429,0,41.131-7.526,56.61-20.068l83.468,77.752   c1.927,1.795,4.373,2.683,6.814,2.683c2.678,0,5.35-1.069,7.319-3.184c3.765-4.041,3.54-10.369-0.501-14.133L359.357,306.206z    M218.602,250.427c0-38.641,31.437-70.076,70.076-70.076c38.641,0,70.077,31.436,70.077,70.076   c0,38.641-31.436,70.077-70.077,70.077C250.039,320.504,218.602,289.067,218.602,250.427z"/></g><g transform="matrix(0.10080645233392715 0 0 0.10080645233392715 62.5 237.5)" id="L1_273"><path d="m496 0h-352v162.359375c-9.214844 2.753906-17.441406 7.816406-24 14.527344v-16.886719c0-30.871094-25.121094-56-56-56h-40v8c0 30.871094 25.121094 56 56 56h24v72h-48v48h16v30.601562c0 4.605469-1.320312 9.09375-3.816406 12.972657l-61.015625 94.929687c-4.6875 7.296875-7.167969 15.726563-7.167969 24.390625 0 24.875 20.230469 45.105469 45.105469 45.105469h133.796875c20.3125 0 37.523437-13.503906 43.144531-32h273.953125zm-416 152c-19.320312 0-35.480469-13.769531-39.191406-32h23.191406c19.320312 0 35.480469 13.769531 39.191406 32zm80 24h23.191406c-3.710937 18.230469-19.878906 32-39.191406 32h-23.191406c3.710937-18.230469 19.871094-32 39.191406-32zm-88 80h80v16h-80zm70.351562 84.230469 41.71875 64.90625c-4.085937 1.679687-8.972656 2.863281-16.101562 2.863281-11.878906 0-17.519531-3.214844-24.046875-6.945312-6.066406-3.460938-12.875-7.261719-23.921875-8.558594v-104.496094h16v30.601562c0 7.679688 2.191406 15.160157 6.351562 21.628907zm-60.703124-.007813c4.160156-6.460937 6.351562-13.941406 6.351562-21.621094v-30.601562h16v104.480469c-11.113281 1.28125-17.945312 5.09375-24.023438 8.574219-6.527343 3.730468-12.152343 6.945312-24.03125 6.945312-7.089843 0-11.953124-1.175781-16.035156-2.847656zm97.246093 139.777344h-133.789062c-16.050781 0-29.105469-13.054688-29.105469-29.105469 0-5.589843 1.601562-11.03125 4.625-15.734375l10.535156-16.398437c5.902344 2.804687 13.449219 5.238281 24.785156 5.238281 16.117188 0 24.535157-4.816406 31.964844-9.054688 6.523438-3.730468 12.152344-6.945312 24.027344-6.945312 11.878906 0 17.519531 3.214844 24.046875 6.945312 7.429687 4.238282 15.847656 9.054688 31.984375 9.054688 11.367188 0 18.941406-2.441406 24.855469-5.246094l10.550781 16.414063c3.023438 4.695312 4.625 10.136719 4.625 15.726562 0 16.050781-13.054688 29.105469-29.105469 29.105469zm301.105469-32h-256.207031c-.488281-7.632812-2.800781-15.023438-6.960938-21.496094l-61.023437-94.917968c-2.488282-3.890626-3.808594-8.378907-3.808594-12.984376v-30.601562h16v-48h-48v-16h24c30.878906 0 56-25.128906 56-56v-8h-40v-144h320zm0 0"/><path d="m336 272c66.167969 0 120-53.832031 120-120s-53.832031-120-120-120-120 53.832031-120 120 53.832031 120 120 120zm-67.574219-41.113281 22.695313-22.6875c12.320312 9.863281 27.902344 15.800781 44.878906 15.800781 3.671875 0 7.246094-.359375 10.769531-.894531l8.320313 31.0625c-6.195313 1.152343-12.5625 1.832031-19.089844 1.832031-25.800781 0-49.382812-9.496094-67.574219-25.113281zm67.574219-134.886719c30.878906 0 56 25.128906 56 56s-25.121094 56-56 56-56-25.128906-56-56 25.121094-56 56-56zm34.535156 153.984375-8.304687-31c18.617187-7.3125 33.441406-22.136719 40.753906-40.753906l31 8.304687c-10.457031 29.570313-33.878906 52.984375-63.449219 63.449219zm67.632813-78.894531-31.0625-8.320313c.535156-3.523437.894531-7.097656.894531-10.769531 0-16.976562-5.9375-32.566406-15.800781-44.886719l22.695312-22.6875c15.609375 18.191407 25.105469 41.773438 25.105469 67.574219 0 6.527344-.679688 12.894531-1.832031 19.089844zm-34.59375-97.976563-22.695313 22.6875c-12.320312-9.863281-27.902344-15.800781-44.878906-15.800781-3.671875 0-7.246094.359375-10.769531.894531l-8.320313-31.0625c6.195313-1.152343 12.5625-1.832031 19.089844-1.832031 25.800781 0 49.382812 9.496094 67.574219 25.113281zm-102.109375-19.097656 8.304687 31c-18.617187 7.3125-33.441406 22.144531-40.753906 40.753906l-31-8.304687c10.457031-29.570313 33.878906-52.984375 63.449219-63.449219zm-67.632813 78.894531 31.0625 8.320313c-.535156 3.523437-.894531 7.097656-.894531 10.769531 0 16.976562 5.9375 32.566406 15.800781 44.886719l-22.695312 22.6875c-15.609375-18.191407-25.105469-41.773438-25.105469-67.574219 0-6.527344.679688-12.894531 1.832031-19.089844zm0 0"/><path d="m448 416h-16v-72h-16v72h-16v-120h-16v120h-16v-88h-16v88h-16v-32h-16v32h-16v-72h-16v72h-16v-48h-16v64h208v-152h-16zm0 0"/></g><g transform="matrix(0.0390625 0 0 0.0390625 77.5 340)" id="L1_274"><path d="M509.07,93.916l-91-90.987C416.195,1.054,413.652,0,411,0H114C97.458,0,84,13.458,84,30v19.064    C34.875,68.334,0,116.215,0,172.091c0,5.522,4.478,10,10,10h122.091c5.522,0,10-4.478,10-10V50c0-5.522-4.478-10-10-10    c-9.638,0-19.034,1.047-28.091,3.017V30c0-5.514,4.486-10,10-10h287v61c0,16.542,13.458,30,30,30h61v371c0,5.514-4.486,10-10,10    H114c-5.514,0-10-4.486-10-10v-85.667c0-5.522-4.478-10-10-10c-5.522,0-10,4.478-10,10V482c0,16.542,13.458,30,30,30h368    c16.542,0,30-13.458,30-30V100.987C512,98.335,510.946,95.791,509.07,93.916z M122.09,60.443v101.648H20.442    C25.223,108.243,68.243,65.224,122.09,60.443z M431,91c-5.514,0-10-4.486-10-10V34.14L477.868,91H431z"/><path d="M101.069,352.93C99.21,351.069,96.63,350,94,350s-5.21,1.069-7.07,2.93C85.07,354.79,84,357.37,84,360    s1.069,5.21,2.93,7.069C88.79,368.93,91.37,370,94,370s5.21-1.07,7.069-2.931C102.93,365.21,104,362.63,104,360    S102.93,354.79,101.069,352.93z"/><path d="M167.909,75.819c-5.522,0-10,4.478-10,10v112.09H45.819c-5.522,0-10,4.478-10,10C35.819,280.744,95.074,340,167.909,340    S300,280.744,300,207.909S240.744,75.819,167.909,75.819z M177.909,96.262c23.41,2.078,44.771,11.388,61.836,25.67l-61.836,61.835    V96.262z M167.909,320c-58.437,0-106.574-44.949-111.647-102.091h111.647c2.76,0,5.258-1.118,7.068-2.926    c0.001-0.001,0.002-0.001,0.004-0.003l78.909-78.908c16.291,19.467,26.11,44.527,26.11,71.837    C280,269.716,229.716,320,167.909,320z"/><path d="M438.073,315.605c-16.542,0-30,13.458-30,30c0,4.146,0.846,8.097,2.373,11.692l-57.613,57.613    c-3.959-1.929-8.403-3.014-13.095-3.014c-4.581,0-8.923,1.036-12.81,2.879l-38.258-38.258c1.326-3.384,2.062-7.063,2.062-10.913    c0-16.542-13.458-30-30-30s-30,13.458-30,30c0,4.482,0.995,8.734,2.765,12.557l-36.695,36.695    c-3.909-1.87-8.283-2.919-12.897-2.919c-16.542,0-30,13.458-30,30s13.458,30,30,30s30-13.458,30-30    c0-4.637-1.058-9.031-2.944-12.954l36.49-36.49c4.007,1.988,8.515,3.111,13.283,3.111c5.385,0,10.438-1.433,14.811-3.927    l37.179,37.179c-1.912,3.945-2.986,8.369-2.986,13.04c0,16.542,13.458,30,30,30s30-13.458,30-30c0-4.558-1.026-8.88-2.853-12.752    l57.075-57.075c4.209,2.254,9.014,3.536,14.113,3.536c16.542,0,30-13.458,30-30S454.615,315.605,438.073,315.605z     M183.904,451.938c-5.514,0-10-4.486-10-10c0-5.514,4.486-10,10-10c2.685,0,5.12,1.069,6.918,2.797    c0.04,0.042,0.075,0.087,0.116,0.128c0.048,0.048,0.1,0.088,0.149,0.134c1.74,1.8,2.817,4.246,2.817,6.941    C193.904,447.451,189.418,451.938,183.904,451.938z M260.732,375.604c-5.514,0-10-4.486-10-10c0-5.514,4.486-10,10-10    c5.514,0,10,4.486,10,10C270.732,371.118,266.246,375.604,260.732,375.604z M339.736,451.896c-5.514,0-10-4.486-10-10    c0-5.514,4.486-10,10-10c5.514,0,10,4.486,10,10C349.736,447.41,345.25,451.896,339.736,451.896z M438.071,355.604    c-5.514,0-10-4.486-10-10c0-5.514,4.487-10,10-10c5.514,0,10,4.486,10,10C448.071,351.118,443.585,355.604,438.071,355.604z"/><path d="M388.09,235h-52.779c-5.522,0-10,4.478-10,10c0,5.522,4.477,10,10,10h52.779c5.522,0,10-4.478,10-10    C398.09,239.478,393.612,235,388.09,235z"/><path d="M440.689,237.93c-1.859-1.86-4.439-2.93-7.069-2.93s-5.21,1.069-7.07,2.93c-1.86,1.86-2.93,4.44-2.93,7.07    s1.069,5.21,2.93,7.069c1.86,1.86,4.43,2.931,7.07,2.931c2.63,0,5.21-1.07,7.069-2.931c1.86-1.859,2.931-4.439,2.931-7.069    S442.55,239.79,440.689,237.93z"/><path d="M457.465,139H335.311c-5.522,0-10,4.478-10,10c0,5.522,4.477,10,10,10h122.154c5.522,0,10-4.478,10-10    C467.465,143.478,462.987,139,457.465,139z"/><path d="M457.465,187H335.311c-5.522,0-10,4.478-10,10c0,5.522,4.477,10,10,10h122.154c5.522,0,10-4.478,10-10    C467.465,191.478,462.987,187,457.465,187z"/></g></defs><g fi:class="KUsePattern"><pattern id="pattern_L1_265" width="350" height="350" patternUnits="userSpaceOnUse"><use xlink:href="#L1_265" x="-350" y="-350"/><use xlink:href="#L1_265" x="0" y="-350"/><use xlink:href="#L1_265" x="350" y="-350"/><use xlink:href="#L1_265" x="-350" y="0"/><use xlink:href="#L1_265" x="0" y="0"/><use xlink:href="#L1_265" x="350" y="0"/><use xlink:href="#L1_265" x="-350" y="350"/><use xlink:href="#L1_265" x="0" y="350"/><use xlink:href="#L1_265" x="350" y="350"/></pattern><rect x="0" y="0" width="100%" height="100%" fill="url(#pattern_L1_265)"/></g><g fi:class="KUsePattern"><pattern id="pattern_L1_266" width="350" height="350" patternUnits="userSpaceOnUse"><use xlink:href="#L1_266" x="-350" y="-350"/><use xlink:href="#L1_266" x="0" y="-350"/><use xlink:href="#L1_266" x="350" y="-350"/><use xlink:href="#L1_266" x="-350" y="0"/><use xlink:href="#L1_266" x="0" y="0"/><use xlink:href="#L1_266" x="350" y="0"/><use xlink:href="#L1_266" x="-350" y="350"/><use xlink:href="#L1_266" x="0" y="350"/><use xlink:href="#L1_266" x="350" y="350"/></pattern><rect x="0" y="0" width="100%" height="100%" fill="url(#pattern_L1_266)"/></g><g fi:class="KUsePattern"><pattern id="pattern_L1_267" width="350" height="350" patternUnits="userSpaceOnUse"><use xlink:href="#L1_267" x="-350" y="-350"/><use xlink:href="#L1_267" x="0" y="-350"/><use xlink:href="#L1_267" x="350" y="-350"/><use xlink:href="#L1_267" x="-350" y="0"/><use xlink:href="#L1_267" x="0" y="0"/><use xlink:href="#L1_267" x="350" y="0"/><use xlink:href="#L1_267" x="-350" y="350"/><use xlink:href="#L1_267" x="0" y="350"/><use xlink:href="#L1_267" x="350" y="350"/></pattern><rect x="0" y="0" width="100%" height="100%" fill="url(#pattern_L1_267)"/></g><g fi:class="KUsePattern"><pattern id="pattern_L1_268" width="350" height="350" patternUnits="userSpaceOnUse"><use xlink:href="#L1_268" x="-350" y="-350"/><use xlink:href="#L1_268" x="0" y="-350"/><use xlink:href="#L1_268" x="350" y="-350"/><use xlink:href="#L1_268" x="-350" y="0"/><use xlink:href="#L1_268" x="0" y="0"/><use xlink:href="#L1_268" x="350" y="0"/><use xlink:href="#L1_268" x="-350" y="350"/><use xlink:href="#L1_268" x="0" y="350"/><use xlink:href="#L1_268" x="350" y="350"/></pattern><rect x="0" y="0" width="100%" height="100%" fill="url(#pattern_L1_268)"/></g><g fi:class="KUsePattern"><pattern id="pattern_L1_269" width="350" height="350" patternUnits="userSpaceOnUse"><use xlink:href="#L1_269" x="-350" y="-350"/><use xlink:href="#L1_269" x="0" y="-350"/><use xlink:href="#L1_269" x="350" y="-350"/><use xlink:href="#L1_269" x="-350" y="0"/><use xlink:href="#L1_269" x="0" y="0"/><use xlink:href="#L1_269" x="350" y="0"/><use xlink:href="#L1_269" x="-350" y="350"/><use xlink:href="#L1_269" x="0" y="350"/><use xlink:href="#L1_269" x="350" y="350"/></pattern><rect x="0" y="0" width="100%" height="100%" fill="url(#pattern_L1_269)"/></g><g fi:class="KUsePattern"><pattern id="pattern_L1_270" width="350" height="350" patternUnits="userSpaceOnUse"><use xlink:href="#L1_270" x="-350" y="-350"/><use xlink:href="#L1_270" x="0" y="-350"/><use xlink:href="#L1_270" x="350" y="-350"/><use xlink:href="#L1_270" x="-350" y="0"/><use xlink:href="#L1_270" x="0" y="0"/><use xlink:href="#L1_270" x="350" y="0"/><use xlink:href="#L1_270" x="-350" y="350"/><use xlink:href="#L1_270" x="0" y="350"/><use xlink:href="#L1_270" x="350" y="350"/></pattern><rect x="0" y="0" width="100%" height="100%" fill="url(#pattern_L1_270)"/></g><g fi:class="KUsePattern"><pattern id="pattern_L1_271" width="350" height="350" patternUnits="userSpaceOnUse"><use xlink:href="#L1_271" x="-350" y="-350"/><use xlink:href="#L1_271" x="0" y="-350"/><use xlink:href="#L1_271" x="350" y="-350"/><use xlink:href="#L1_271" x="-350" y="0"/><use xlink:href="#L1_271" x="0" y="0"/><use xlink:href="#L1_271" x="350" y="0"/><use xlink:href="#L1_271" x="-350" y="350"/><use xlink:href="#L1_271" x="0" y="350"/><use xlink:href="#L1_271" x="350" y="350"/></pattern><rect x="0" y="0" width="100%" height="100%" fill="url(#pattern_L1_271)"/></g><g fi:class="KUsePattern"><pattern id="pattern_L1_272" width="350" height="350" patternUnits="userSpaceOnUse"><use xlink:href="#L1_272" x="-350" y="-350"/><use xlink:href="#L1_272" x="0" y="-350"/><use xlink:href="#L1_272" x="350" y="-350"/><use xlink:href="#L1_272" x="-350" y="0"/><use xlink:href="#L1_272" x="0" y="0"/><use xlink:href="#L1_272" x="350" y="0"/><use xlink:href="#L1_272" x="-350" y="350"/><use xlink:href="#L1_272" x="0" y="350"/><use xlink:href="#L1_272" x="350" y="350"/></pattern><rect x="0" y="0" width="100%" height="100%" fill="url(#pattern_L1_272)"/></g><g fi:class="KUsePattern"><pattern id="pattern_L1_273" width="350" height="350" patternUnits="userSpaceOnUse"><use xlink:href="#L1_273" x="-350" y="-350"/><use xlink:href="#L1_273" x="0" y="-350"/><use xlink:href="#L1_273" x="350" y="-350"/><use xlink:href="#L1_273" x="-350" y="0"/><use xlink:href="#L1_273" x="0" y="0"/><use xlink:href="#L1_273" x="350" y="0"/><use xlink:href="#L1_273" x="-350" y="350"/><use xlink:href="#L1_273" x="0" y="350"/><use xlink:href="#L1_273" x="350" y="350"/></pattern><rect x="0" y="0" width="100%" height="100%" fill="url(#pattern_L1_273)"/></g><g fi:class="KUsePattern"><pattern id="pattern_L1_274" width="350" height="350" patternUnits="userSpaceOnUse"><use xlink:href="#L1_274" x="-350" y="-350"/><use xlink:href="#L1_274" x="0" y="-350"/><use xlink:href="#L1_274" x="350" y="-350"/><use xlink:href="#L1_274" x="-350" y="0"/><use xlink:href="#L1_274" x="0" y="0"/><use xlink:href="#L1_274" x="350" y="0"/><use xlink:href="#L1_274" x="-350" y="350"/><use xlink:href="#L1_274" x="0" y="350"/><use xlink:href="#L1_274" x="350" y="350"/></pattern><rect x="0" y="0" width="100%" height="100%" fill="url(#pattern_L1_274)"/></g></svg>