<svg xmlns="http://www.w3.org/2000/svg" xmlns:xlink="http://www.w3.org/1999/xlink" xmlns:fi="http://pattern.flaticon.com/" x="0" y="0" width="1440" height="720" viewBox="0 0 1260 630"><rect x="0px" y="0px" width="100%" height="100%" opacity="1" fill="#74c151"/><defs><path d="M165,0C74.019,0,0,74.019,0,165s74.019,165,165,165c90.982,0,165-74.019,165-165S255.982,0,165,0z" transform="matrix(0.03030303120613098 0 0 0.03030303120613098 345 82.5)" id="L1_115" fill="#a2593d"/><g transform="matrix(-0.12242399156093597 0 0 0.12242399156093597 117.48775586485863 57.49999962639163)" id="L1_113"><path d="M9.9,22.05h18.4v287.2c0,14.5,11.8,26.3,26.3,26.3h382.8c14.5,0,26.3-11.8,26.3-26.3V22.05h16.5    c5.5,0,9.9-4.4,9.9-9.9s-4.4-9.9-9.9-9.9H9.9c-5.5,0-9.9,4.4-9.9,9.9S4.5,22.05,9.9,22.05z M48.1,22.05h395.8v287.2    c0,3.6-2.9,6.5-6.5,6.5H54.6c-3.6,0-6.5-2.9-6.5-6.5V22.05z" fill="#2c2f33"/><path d="M171,470.95c-3.9,3.9-3.9,10.1,0,14c1.9,1.9,4.5,2.9,7,2.9s5.1-1,7-2.9l55.9-55.9v48.9    c0,5.5,4.4,9.9,9.9,9.9s9.9-4.4,9.9-9.9v-48.9l55.6,55.6c1.9,1.9,4.5,2.9,7,2.9s5.1-1,7-2.9c3.9-3.9,3.9-10.1,0-14l-69.6-69.6    v-25.8h34.5c5.5,0,9.9-4.4,9.9-9.9s-4.4-9.9-9.9-9.9H205c-5.5,0-9.9,4.4-9.9,9.9s4.4,9.9,9.9,9.9h35.9v25.8L171,470.95z" fill="#2c2f33"/><path d="M406.9,173.75l-16.3,16.4c-3.9,3.9-3.8,10.1,0,14c1.9,1.9,4.5,2.9,7,2.9s5.1-1,7-2.9l23.3-23.5    c1.9-1.9,2.9-4.4,2.9-7s-1.1-5.1-2.9-7l-23.5-23.3c-3.9-3.9-10.1-3.8-14,0c-3.9,3.9-3.8,10.1,0,14L406.9,173.75z" fill="#2c2f33"/><path d="M89.3,204.05c1.9,1.9,4.5,2.9,7,2.9s5-1,7-2.9c3.9-3.9,3.9-10.1,0-14L87,173.65l16.4-16.3    c3.9-3.9,3.9-10.1,0-14s-10.1-3.9-14,0l-23.5,23.3c-1.9,1.9-2.9,4.4-2.9,7s1,5.1,2.9,7L89.3,204.05z" fill="#2c2f33"/><path d="M130.6,274.75h229c5.5,0,9.9-4.4,9.9-9.9V73.05c0-5.5-4.4-9.9-9.9-9.9h-229c-5.5,0-9.9,4.4-9.9,9.9    v191.9C120.7,270.35,125.1,274.75,130.6,274.75z M140.5,82.95h209.2v96.1l-47.7-47.7c-3.9-3.9-10.1-3.9-14,0l-73.3,73.3    l-22.7-22.6c-1.9-1.9-4.4-2.9-7-2.9s-5.1,1-7,2.9l-37.5,37.5V82.95z M140.5,247.55l44.5-44.5l22.7,22.7c1.9,1.9,4.4,2.9,7,2.9    s5.1-1,7-2.9l73.3-73.3l54.7,54.7v47.9H140.5V247.55z" fill="#3c92ca"/><path d="M229.2,133.65c0-16.8-13.7-30.5-30.5-30.5s-30.5,13.7-30.5,30.5s13.7,30.5,30.5,30.5    S229.2,150.45,229.2,133.65z M188,133.65c0-5.9,4.8-10.7,10.7-10.7s10.7,4.8,10.7,10.7s-4.8,10.7-10.7,10.7S188,139.55,188,133.65    z" fill="#3c92ca"/></g><path d="M165,0C74.019,0,0,74.019,0,165s74.019,165,165,165c90.982,0,165-74.019,165-165S255.982,0,165,0z" transform="matrix(0.03030303120613098 0 0 0.03030303120613098 82.5 257.5)" id="L1_116" fill="#15ee16"/><g transform="matrix(-0.26962900161743164 0 0 0.26962900161743164 204.85763835906982 232.50000016456852)" id="L1_119"><path d="M210.064,33.64H161.74v-9.353c0-2.579-2.094-4.677-4.676-4.677s-4.677,2.098-4.677,4.677v9.353h-48.32    c-6.878,0-12.471,5.596-12.471,12.471V62.53l-6.491-2.165c-1.696-0.603-16.824-5.873-30.759-6.558l-1.857,3.708h-0.052    l5.252,40.879l-6.235,10.897l-6.235-10.897l5.249-40.879h-0.055l-1.854-3.715c-14.453,0.709-30.233,6.373-30.939,6.628    c-0.256,0.092-0.423,0.286-0.661,0.405c-0.512,0.243-0.98,0.518-1.428,0.864c-0.38,0.296-0.697,0.606-1.004,0.962    c-0.341,0.38-0.637,0.773-0.898,1.221c-0.262,0.45-0.454,0.91-0.627,1.409c-0.095,0.274-0.277,0.487-0.344,0.779l-12.47,56.118    c-0.929,4.201,1.714,8.36,5.916,9.298c0.575,0.128,1.142,0.188,1.696,0.188c3.574,0,6.798-2.479,7.608-6.107l11.511-51.782    c0.804-0.25,1.714-0.518,2.704-0.794v53.203l-6.202,77.138c-0.411,5.146,3.422,9.657,8.574,10.065    c0.255,0.019,0.505,0.031,0.761,0.031c4.82,0,8.915-3.709,9.308-8.604l5.605-69.715c1.16,0.512,2.433,0.804,3.772,0.804    c1.343,0,2.622-0.292,3.772-0.804l5.608,69.715c0.393,4.896,4.488,8.604,9.308,8.604c0.255,0,0.505-0.007,0.761-0.031    c5.151-0.408,8.984-4.926,8.573-10.065l-6.205-77.138V72.991c3.961,1.123,6.634,2.076,6.705,2.098    c0.03,0.012,0.061,0.006,0.1,0.012c0.031,0.013,0.055,0.037,0.085,0.049l11.429,3.809v41.976c0,6.881,5.593,12.471,12.471,12.471    h22.7l-19.905,74.324c-0.667,2.497,0.816,5.061,3.304,5.724c0.404,0.109,0.818,0.158,1.211,0.158c2.067,0,3.955-1.376,4.516-3.471    l20.563-76.741h15.941v54.382c0,2.582,2.095,4.677,4.676,4.677c2.582,0,4.677-2.095,4.677-4.677v-54.382h15.941l20.557,76.741    c0.566,2.095,2.454,3.471,4.524,3.471c0.39,0,0.804-0.049,1.212-0.158c2.484-0.663,3.977-3.232,3.301-5.724l-19.906-74.324h22.701    c6.874,0,12.47-5.59,12.47-12.471V46.11C222.535,39.235,216.932,33.64,210.064,33.64z M216.299,120.934    c0,3.435-2.795,6.235-6.235,6.235H104.067c-3.443,0-6.235-2.801-6.235-6.235V81.041l19.744,6.585    c0.822,0.268,1.65,0.399,2.472,0.399c3.258,0,6.309-2.07,7.393-5.331c0.183-0.548,0.146-1.097,0.201-1.653l46.855-21.681    c0.78-0.359,1.121-1.291,0.756-2.07c-0.359-0.779-1.285-1.126-2.07-0.758L127.3,77.762c-0.749-2.226-2.388-4.128-4.786-4.932    l-24.677-8.223V46.11c0-3.435,2.792-6.235,6.235-6.235H210.07c3.44,0,6.235,2.801,6.235,6.235v74.823H216.299z"/><path d="M51.454,52.129c10.872,0,19.701-12.62,19.701-23.501c0-10.887-8.829-19.71-19.701-19.71    c-10.888,0-19.717,8.829-19.717,19.71S40.566,52.129,51.454,52.129z"/><path d="M166.337,89.097l3.228-2.013l-3.16-5.062l-3.222,2.012c-1.474-1.577-3.221-2.81-5.121-3.666l0.853-3.696l-5.814-1.343    l-0.847,3.705c-2.089-0.082-4.201,0.262-6.211,1.042l-2.021-3.23l-5.061,3.16l2.021,3.23c-1.583,1.474-2.819,3.218-3.665,5.127    l-3.702-0.855l-1.34,5.812l3.702,0.853c-0.073,2.083,0.268,4.192,1.047,6.211l-3.233,2.016l3.167,5.063l3.233-2.022    c1.461,1.589,3.209,2.819,5.121,3.657l-0.853,3.702l5.809,1.346l0.858-3.702c2.077,0.079,4.189-0.262,6.211-1.041l2.01,3.227    l5.054-3.16l-2.003-3.224c1.577-1.465,2.813-3.225,3.659-5.118l3.702,0.853l1.334-5.815l-3.708-0.861    C167.458,93.219,167.117,91.106,166.337,89.097z M157.35,103.833c-5.018,3.13-11.624,1.607-14.767-3.413    c-3.13-5.011-1.607-11.627,3.404-14.763c5.023-3.13,11.636-1.61,14.778,3.41C163.896,94.081,162.361,100.703,157.35,103.833z"/><path d="M198.64,79.613l-2.867,0.974c-0.853-1.492-1.979-2.771-3.301-3.778l1.34-2.712l-4.269-2.107l-1.334,2.719    c-1.602-0.438-3.306-0.563-5.005-0.326l-0.98-2.874l-4.5,1.528l0.969,2.874c-1.492,0.846-2.771,1.982-3.775,3.303l-2.723-1.339    l-2.106,4.265l2.722,1.34c-0.438,1.602-0.566,3.3-0.328,5.015l-2.868,0.971l1.522,4.503l2.88-0.974    c0.847,1.498,1.979,2.776,3.3,3.778l-1.339,2.712l4.262,2.11l1.34-2.713c1.607,0.441,3.301,0.561,5.012,0.323l0.968,2.874    l4.506-1.525l-0.974-2.868c1.497-0.85,2.776-1.985,3.781-3.307l2.716,1.34l2.101-4.263l-2.71-1.343    c0.438-1.601,0.561-3.303,0.329-5.005l2.868-0.975L198.64,79.613z M187.631,94.878c-4.47,1.516-9.311-0.88-10.833-5.343    c-1.51-4.466,0.883-9.322,5.347-10.839c4.47-1.507,9.316,0.886,10.833,5.35C194.494,88.512,192.094,93.362,187.631,94.878z"/></g><g transform="matrix(0.6666666865348816 0 0 0.6666666865348816 242.5 67.5)" id="L1_120"><rect x="1px" y="0px" width="58px" height="6px" fill="#556080"/><rect x="3px" y="6px" width="54px" height="42px" fill="#ecf0f1"/><path d="M54,26.474H41.026V13.5h0C48.191,13.5,54,19.309,54,26.474L54,26.474z" fill="#d8625e"/><path d="M37.974,16.553C30.809,16.553,25,22.361,25,29.526S30.809,42.5,37.974,42.5   s12.974-5.809,12.974-12.974H37.974V16.553z" fill="#26b99a"/><path d="M14,26.5H6c-0.552,0-1-0.447-1-1s0.448-1,1-1h8c0.552,0,1,0.447,1,1S14.552,26.5,14,26.5z" fill="#ffffff"/><path d="M8,22.5c-0.552,0-1-0.447-1-1v-4c0-0.553,0.448-1,1-1s1,0.447,1,1v4C9,22.053,8.552,22.5,8,22.5z" fill="#ffffff"/><path d="M11,22.5c-0.552,0-1-0.447-1-1v-4c0-0.553,0.448-1,1-1s1,0.447,1,1v4C12,22.053,11.552,22.5,11,22.5   z" fill="#ffffff"/><path d="M19.001,35.5c-0.352,0-0.692-0.186-0.875-0.515l-5-9c-0.269-0.482-0.094-1.091,0.388-1.359   c0.483-0.27,1.092-0.094,1.36,0.389l5,9c0.269,0.482,0.094,1.091-0.388,1.359C19.332,35.46,19.165,35.5,19.001,35.5z" fill="#ffffff"/><path d="M31,35.5H19c-0.552,0-1-0.447-1-1s0.448-1,1-1h12c0.552,0,1,0.447,1,1S31.552,35.5,31,35.5z" fill="#ffffff"/><path d="M59,49.5H1c-0.552,0-1-0.447-1-1s0.448-1,1-1h58c0.552,0,1,0.447,1,1S59.552,49.5,59,49.5z" fill="#556080"/><path d="M30,52.5c-0.552,0-1-0.447-1-1v-3c0-0.553,0.448-1,1-1s1,0.447,1,1v3C31,52.053,30.552,52.5,30,52.5   z" fill="#556080"/><path d="M30,59.5c-2.206,0-4-1.794-4-4s1.794-4,4-4s4,1.794,4,4S32.206,59.5,30,59.5z M30,53.5   c-1.103,0-2,0.897-2,2s0.897,2,2,2s2-0.897,2-2S31.103,53.5,30,53.5z" fill="#556080"/></g><g transform="matrix(1 0 0 1 231 337)" id="L1_121"><rect x="3px" y="6px" width="54px" height="42px" fill="#ecf0f1"/><rect x="1px" y="0px" width="58px" height="6px" fill="#556080"/><rect x="12px" y="24px" width="6px" height="16px" fill="#71c285"/><rect x="24px" y="28px" width="6px" height="12px" fill="#71c285"/><rect x="30px" y="22px" width="6px" height="18px" fill="#26b99a"/><rect x="36px" y="15px" width="6px" height="25px" fill="#71c285"/><rect x="42px" y="18px" width="6px" height="22px" fill="#26b99a"/><rect x="18px" y="18px" width="6px" height="22px" fill="#f3d55b"/><path d="M30,52.5c-0.552,0-1-0.447-1-1v-3c0-0.553,0.448-1,1-1s1,0.447,1,1v3C31,52.053,30.552,52.5,30,52.5   z" fill="#556080"/><path d="M30,59.5c-2.206,0-4-1.794-4-4s1.794-4,4-4s4,1.794,4,4S32.206,59.5,30,59.5z M30,53.5   c-1.103,0-2,0.897-2,2s0.897,2,2,2s2-0.897,2-2S31.103,53.5,30,53.5z" fill="#556080"/><path d="M59,49.5H1c-0.552,0-1-0.447-1-1s0.448-1,1-1h58c0.552,0,1,0.447,1,1S59.552,49.5,59,49.5z" fill="#556080"/><path d="M52,41.5H8c-0.552,0-1-0.447-1-1s0.448-1,1-1h44c0.552,0,1,0.447,1,1S52.552,41.5,52,41.5z" fill="#ffffff"/></g><g transform="matrix(0.7979064583778381 0 0 0.7979064583778381 104.85547772049904 325.85547772049904)" id="L1_123"><path d="M26.5,9c-8.837,0-16,7.164-16,16c0,7.089,4.615,13.091,11,15.192V50h2v3h6v-3h2v-9.808  c6.385-2.101,11-8.103,11-15.192C42.5,16.164,35.337,9,26.5,9z" fill="#efce4a"/><g><path d="M26.5,0c-0.553,0-1,0.447-1,1v4c0,0.553,0.447,1,1,1s1-0.447,1-1V1C27.5,0.447,27.053,0,26.5,0z" fill="#efce4a"/><path d="M50.5,24h-4c-0.553,0-1,0.447-1,1s0.447,1,1,1h4c0.553,0,1-0.447,1-1S51.053,24,50.5,24z" fill="#efce4a"/><path d="M6.5,24h-4c-0.553,0-1,0.447-1,1s0.447,1,1,1h4c0.553,0,1-0.447,1-1S7.053,24,6.5,24z" fill="#efce4a"/><path d="M42.764,7.322l-2.828,2.828c-0.391,0.391-0.391,1.023,0,1.414c0.195,0.195,0.451,0.293,0.707,0.293   s0.512-0.098,0.707-0.293l2.828-2.828c0.391-0.391,0.391-1.023,0-1.414S43.154,6.932,42.764,7.322z" fill="#efce4a"/><path d="M11.65,38.436l-2.828,2.828c-0.391,0.391-0.391,1.023,0,1.414c0.195,0.195,0.451,0.293,0.707,0.293   s0.512-0.098,0.707-0.293l2.828-2.828c0.391-0.391,0.391-1.023,0-1.414S12.041,38.045,11.65,38.436z" fill="#efce4a"/><path d="M41.35,38.436c-0.391-0.391-1.023-0.391-1.414,0s-0.391,1.023,0,1.414l2.828,2.828   c0.195,0.195,0.451,0.293,0.707,0.293s0.512-0.098,0.707-0.293c0.391-0.391,0.391-1.023,0-1.414L41.35,38.436z" fill="#efce4a"/><path d="M10.236,7.322c-0.391-0.391-1.023-0.391-1.414,0s-0.391,1.023,0,1.414l2.828,2.828   c0.195,0.195,0.451,0.293,0.707,0.293s0.512-0.098,0.707-0.293c0.391-0.391,0.391-1.023,0-1.414L10.236,7.322z" fill="#efce4a"/></g><path d="M15.5,26c-0.553,0-1-0.447-1-1c0-6.617,5.383-12,12-12c0.553,0,1,0.447,1,1s-0.447,1-1,1  c-5.514,0-10,4.486-10,10C16.5,25.553,16.053,26,15.5,26z" fill="#f7e6a1"/><path d="M21.5,43 21.5,50 23.5,50 23.5,53 29.5,53 29.5,50 31.5,50 31.5,43z" fill="#556080"/></g><g transform="matrix(1.034482717514038 0 0 1.034482717514038 77 147)" id="L1_124"><path d="M41.595,58H16.405C14.525,58,13,56.475,13,54.595V3.405C13,1.525,14.525,0,16.405,0h25.189  C43.475,0,45,1.525,45,3.405v51.189C45,56.475,43.475,58,41.595,58z" fill="#424a60"/><rect x="13px" y="6px" width="32px" height="40px" fill="#e7eced"/><circle cx="29" cy="52" r="3" fill="#262b35"/><path d="M29,4h-4c-0.553,0-1-0.447-1-1s0.447-1,1-1h4c0.553,0,1,0.447,1,1S29.553,4,29,4z" fill="#262b35"/><path d="M33,4h-1c-0.553,0-1-0.447-1-1s0.447-1,1-1h1c0.553,0,1,0.447,1,1S33.553,4,33,4z" fill="#262b35"/><path d="M30.962,17.019h-3.924c-0.573,0-1.038-0.465-1.038-1.038v-3.924c0-0.573,0.465-1.038,1.038-1.038  h3.924c0.573,0,1.038,0.465,1.038,1.038v3.924C32,16.554,31.535,17.019,30.962,17.019z" fill="#3083c9"/><path d="M21.962,17.019h-3.924c-0.573,0-1.038-0.465-1.038-1.038v-3.924c0-0.573,0.465-1.038,1.038-1.038  h3.924c0.573,0,1.038,0.465,1.038,1.038v3.924C23,16.554,22.535,17.019,21.962,17.019z" fill="#88c057"/><path d="M39.962,17.019h-3.924c-0.573,0-1.038-0.465-1.038-1.038v-3.924c0-0.573,0.465-1.038,1.038-1.038  h3.924c0.573,0,1.038,0.465,1.038,1.038v3.924C41,16.554,40.535,17.019,39.962,17.019z" fill="#dc691d"/><path d="M30.962,26h-3.924C26.465,26,26,25.535,26,24.962v-3.924C26,20.465,26.465,20,27.038,20h3.924  C31.535,20,32,20.465,32,21.038v3.924C32,25.535,31.535,26,30.962,26z" fill="#ebba16"/><path d="M21.962,26h-3.924C17.465,26,17,25.535,17,24.962v-3.924C17,20.465,17.465,20,18.038,20h3.924  C22.535,20,23,20.465,23,21.038v3.924C23,25.535,22.535,26,21.962,26z" fill="#7383bf"/><path d="M39.962,26h-3.924C35.465,26,35,25.535,35,24.962v-3.924C35,20.465,35.465,20,36.038,20h3.924  C40.535,20,41,20.465,41,21.038v3.924C41,25.535,40.535,26,39.962,26z" fill="#dd352e"/><path d="M30.962,35h-3.924C26.465,35,26,34.535,26,33.962v-3.924C26,29.465,26.465,29,27.038,29h3.924  C31.535,29,32,29.465,32,30.038v3.924C32,34.535,31.535,35,30.962,35z" fill="#a485be"/><path d="M21.962,35h-3.924C17.465,35,17,34.535,17,33.962v-3.924C17,29.465,17.465,29,18.038,29h3.924  C22.535,29,23,29.465,23,30.038v3.924C23,34.535,22.535,35,21.962,35z" fill="#ea6248"/><path d="M39.962,35h-3.924C35.465,35,35,34.535,35,33.962v-3.924C35,29.465,35.465,29,36.038,29h3.924  C40.535,29,41,29.465,41,30.038v3.924C41,34.535,40.535,35,39.962,35z" fill="#25ae88"/></g><g transform="matrix(0.11718760430812836 0 0 0.11718760430812836 270 218)" id="L1_125"><path d="M 413.476562 341.910156 C 399.714844 379.207031 378.902344 411.636719 351.609375 438.289062 C 320.542969 468.625 279.863281 492.730469 230.699219 509.925781 C 229.085938 510.488281 227.402344 510.949219 225.710938 511.289062 C 223.476562 511.730469 221.203125 511.96875 218.949219 512 L 218.507812 512 C 216.105469 512 213.691406 511.757812 211.296875 511.289062 C 209.605469 510.949219 207.945312 510.488281 206.339844 509.9375 C 157.117188 492.769531 116.386719 468.675781 85.289062 438.339844 C 57.984375 411.6875 37.175781 379.277344 23.433594 341.980469 C -1.554688 274.167969 -0.132812 199.464844 1.011719 139.433594 L 1.03125 138.511719 C 1.261719 133.554688 1.410156 128.347656 1.492188 122.597656 C 1.910156 94.367188 24.355469 71.011719 52.589844 69.4375 C 111.457031 66.152344 156.996094 46.953125 195.90625 9.027344 L 196.246094 8.714844 C 202.707031 2.789062 210.847656 -0.117188 218.949219 0.00390625 C 226.761719 0.105469 234.542969 3.007812 240.773438 8.714844 L 241.105469 9.027344 C 280.023438 46.953125 325.5625 66.152344 384.429688 69.4375 C 412.664062 71.011719 435.109375 94.367188 435.527344 122.597656 C 435.609375 128.386719 435.757812 133.585938 435.988281 138.511719 L 436 138.902344 C 437.140625 199.046875 438.554688 273.898438 413.476562 341.910156 Z M 413.476562 341.910156 " fill="#00dd80" fill-opacity="1" stroke="none"/><path d="M 413.476562 341.910156 C 399.714844 379.207031 378.902344 411.636719 351.609375 438.289062 C 320.542969 468.625 279.863281 492.730469 230.699219 509.925781 C 229.085938 510.488281 227.402344 510.949219 225.710938 511.289062 C 223.476562 511.730469 221.203125 511.96875 218.949219 512 L 218.949219 0.00390625 C 226.761719 0.105469 234.542969 3.007812 240.773438 8.714844 L 241.105469 9.027344 C 280.023438 46.953125 325.5625 66.152344 384.429688 69.4375 C 412.664062 71.011719 435.109375 94.367188 435.527344 122.597656 C 435.609375 128.386719 435.757812 133.585938 435.988281 138.511719 L 436 138.902344 C 437.140625 199.046875 438.554688 273.898438 413.476562 341.910156 Z M 413.476562 341.910156 " fill="#00aa63" fill-opacity="1" stroke="none"/><path d="M 346.101562 256 C 346.101562 326.207031 289.097656 383.355469 218.949219 383.605469 L 218.5 383.605469 C 148.144531 383.605469 90.894531 326.359375 90.894531 256 C 90.894531 185.644531 148.144531 128.398438 218.5 128.398438 L 218.949219 128.398438 C 289.097656 128.648438 346.101562 185.796875 346.101562 256 Z M 346.101562 256 " fill="#ffffff" fill-opacity="1" stroke="none"/><path d="M 346.101562 256 C 346.101562 326.207031 289.097656 383.355469 218.949219 383.605469 L 218.949219 128.398438 C 289.097656 128.648438 346.101562 185.796875 346.101562 256 Z M 346.101562 256 " fill="#e1ebf0" fill-opacity="1" stroke="none"/><path d="M 276.417969 237.625 L 218.949219 295.101562 L 206.53125 307.519531 C 203.597656 310.453125 199.75 311.917969 195.90625 311.917969 C 192.058594 311.917969 188.214844 310.453125 185.277344 307.519531 L 158.578125 280.808594 C 152.710938 274.941406 152.710938 265.4375 158.578125 259.566406 C 164.4375 253.699219 173.953125 253.699219 179.820312 259.566406 L 195.90625 275.652344 L 255.175781 216.382812 C 261.042969 210.511719 270.558594 210.511719 276.417969 216.382812 C 282.285156 222.25 282.285156 231.765625 276.417969 237.625 Z M 276.417969 237.625 " fill="#b4d2d7" fill-opacity="1" stroke="none"/><path d="M 276.417969 237.625 L 218.949219 295.101562 L 218.949219 252.605469 L 255.175781 216.382812 C 261.042969 210.511719 270.558594 210.511719 276.417969 216.382812 C 282.285156 222.25 282.285156 231.765625 276.417969 237.625 Z M 276.417969 237.625 " fill="#6fa5aa" fill-opacity="1" stroke="none"/></g><g transform="matrix(-0.1209658831357956 0 0 0.1209658831357956 222.12864229799015 146)" id="L1_126"><path d="m424.003906 184.007812c0-134.214843-150.238281-233.34375-291.71875-138.382812-9 6.039062-16.769531 13.847656-22.800781 22.855469-69.265625 103.457031-34.90625 211.390625 40.984375 262 26.511719 17.679687 41.535156 48.238281 41.535156 80.109375v29.417968h112v-30.503906c0-31.398437 14.960938-61.410156 41.128906-78.761718 47.527344-31.503907 78.871094-85.445313 78.871094-146.734376zm0 0" fill="#e7eced"/><path d="m96.003906 88.007812c0-22.089843-17.910156-40-40-40 22.089844 0 40-17.914062 40-40 0 22.085938 17.910156 40 40 40-22.089844 0-40 17.910157-40 40zm0 0" fill="#f8cf6a"/><path d="m48.003906 168.007812c0-22.089843-17.910156-40-40-40 22.089844 0 40-17.914062 40-40 0 22.085938 17.910156 40 40 40-22.089844 0-40 17.910157-40 40zm0 0" fill="#f8cf6a"/><path d="m208.003906 440.007812v8c0 22.085938 17.910156 40 40 40s40-17.914062 40-40v-8" fill="#34b9f5"/><path d="m236.003906 485.976562c16.183594-5.121093 28-20.082031 28-37.96875v-8h-56v8c0 17.878907 11.816406 32.839844 28 37.96875zm0 0" fill="#bab8b9"/><path d="m232.308594 72.007812c0-13.257812-10.746094-24-24-24-12.777344 0-23.121094 10.007813-23.855469 22.59375-4.304687-4.058593-10.066406-6.59375-16.449219-6.59375-13.257812 0-24 10.742188-24 24 0 6.246094 2.449219 11.894532 6.367188 16.167969-16.902344.863281-30.367188 14.71875-30.367188 31.832031 0 9.808594 4.511719 18.480469 11.457032 24.351563-1.136719-.167969-2.273438-.351563-3.457032-.351563-13.257812 0-24 10.742188-24 24 0 13.253907 10.742188 24 24 24 1.183594 0 2.320313-.183593 3.457032-.351562-6.945313 5.871094-11.457032 14.542969-11.457032 24.351562 0 16.808594 13 30.433594 29.464844 31.742188-3.960938 4.28125-6.441406 9.960938-6.441406 16.257812 0 13.253907 10.746094 24 24 24 6.679687 0 12.710937-2.734374 17.054687-7.136718.472657 12.847656 10.960938 23.136718 23.921875 23.136718 13.257813 0 24-10.746093 24-24zm0 0" fill="#f5685d"/><path d="m263.699219 72.007812c0-13.257812 10.746093-24 24-24 12.777343 0 23.121093 10.007813 23.855469 22.59375 4.304687-4.058593 10.066406-6.59375 16.449218-6.59375 13.257813 0 24 10.742188 24 24 0 6.246094-2.449218 11.894532-6.367187 16.167969 16.902343.863281 30.367187 14.71875 30.367187 31.832031 0 9.808594-4.511718 18.480469-11.457031 24.351563 1.136719-.167969 2.273437-.351563 3.457031-.351563 13.257813 0 24 10.742188 24 24 0 13.253907-10.742187 24-24 24-1.183594 0-2.320312-.183593-3.457031-.351562 6.945313 5.871094 11.457031 14.542969 11.457031 24.351562 0 16.808594-13 30.433594-29.464844 31.742188 3.960938 4.28125 6.441407 9.960938 6.441407 16.257812 0 13.253907-10.746094 24-24 24-6.679688 0-12.710938-2.734374-17.058594-7.136718-.46875 12.847656-10.957031 23.136718-23.917969 23.136718-13.257812 0-24-10.746093-24-24zm0 0" fill="#f5685d"/><path d="m208.003906 328.007812c-17.648437 0-32-14.351562-32-32h16c0 8.824219 7.175782 16 16 16 8.824219 0 16-7.175781 16-16v-224c0-8.824218-7.175781-16-16-16-8.824218 0-16 7.175782-16 16h-16c0-17.648437 14.351563-32 32-32 17.648438 0 32 14.351563 32 32v224c0 17.648438-14.351562 32-32 32zm0 0"/><path d="m168.003906 120.007812c-17.648437 0-32-14.351562-32-32 0-17.648437 14.351563-32 32-32 17.648438 0 32 14.351563 32 32h-16c0-8.824218-7.175781-16-16-16-8.824218 0-16 7.175782-16 16 0 8.824219 7.175782 16 16 16zm0 0"/><path d="m152.003906 176.007812c-22.054687 0-40-17.945312-40-40 0-22.054687 17.945313-40 40-40v16c-13.230468 0-24 10.769532-24 24 0 13.230469 10.769532 24 24 24 13.230469 0 24-10.769531 24-24h16c0 22.054688-17.945312 40-40 40zm0 0"/><path d="m168.003906 312.007812c-17.648437 0-32-14.351562-32-32 0-17.648437 14.351563-32 32-32v16c-8.824218 0-16 7.175782-16 16 0 8.824219 7.175782 16 16 16 8.824219 0 16-7.175781 16-16h16c0 17.648438-14.351562 32-32 32zm0 0"/><path d="m152.003906 272.007812c-22.054687 0-40-17.945312-40-40 0-22.054687 17.945313-40 40-40 22.054688 0 40 17.945313 40 40h-16c0-13.230468-10.769531-24-24-24-13.230468 0-24 10.769532-24 24 0 13.230469 10.769532 24 24 24zm0 0"/><path d="m128.003906 216.007812c-17.648437 0-32-14.351562-32-32 0-17.648437 14.351563-32 32-32v16c-8.824218 0-16 7.175782-16 16 0 8.824219 7.175782 16 16 16zm0 0"/><path d="m288.003906 328.007812c-17.648437 0-32-14.351562-32-32v-224c0-17.648437 14.351563-32 32-32 17.648438 0 32 14.351563 32 32h-16c0-8.824218-7.175781-16-16-16-8.824218 0-16 7.175782-16 16v224c0 8.824219 7.175782 16 16 16 8.824219 0 16-7.175781 16-16h16c0 17.648438-14.351562 32-32 32zm0 0"/><path d="m328.003906 120.007812v-16c8.824219 0 16-7.175781 16-16 0-8.824218-7.175781-16-16-16-8.824218 0-16 7.175782-16 16h-16c0-17.648437 14.351563-32 32-32 17.648438 0 32 14.351563 32 32 0 17.648438-14.351562 32-32 32zm0 0"/><path d="m344.003906 176.007812c-22.054687 0-40-17.945312-40-40h16c0 13.230469 10.769532 24 24 24 13.230469 0 24-10.769531 24-24 0-13.230468-10.769531-24-24-24v-16c22.054688 0 40 17.945313 40 40 0 22.054688-17.945312 40-40 40zm0 0"/><path d="m328.003906 312.007812c-17.648437 0-32-14.351562-32-32h16c0 8.824219 7.175782 16 16 16 8.824219 0 16-7.175781 16-16 0-8.824218-7.175781-16-16-16v-16c17.648438 0 32 14.351563 32 32 0 17.648438-14.351562 32-32 32zm0 0"/><path d="m344.003906 272.007812v-16c13.230469 0 24-10.769531 24-24 0-13.230468-10.769531-24-24-24-13.230468 0-24 10.769532-24 24h-16c0-22.054687 17.945313-40 40-40 22.054688 0 40 17.945313 40 40 0 22.054688-17.945312 40-40 40zm0 0"/><path d="m368.003906 216.007812v-16c8.824219 0 16-7.175781 16-16 0-8.824218-7.175781-16-16-16v-16c17.648438 0 32 14.351563 32 32 0 17.648438-14.351562 32-32 32zm0 0"/><path d="m304.003906 448.007812h-112c-4.417968 0-8-3.578124-8-8v-29.144531c0-30.28125-14.25-57.878906-38.121094-73.832031-53.199218-35.542969-83.78125-94.945312-81.789062-158.878906l15.988281.496094c-1.8125 58.382812 26.113281 112.613281 74.691407 145.085937 28.328124 18.921875 45.230468 51.496094 45.230468 87.128906v21.144531h96v-22.496093c0-34.9375 16.710938-66.871094 44.710938-85.441407 47.144531-31.238281 75.289062-83.597656 75.289062-140.0625 0-46.855468-18.816406-90.351562-52.984375-122.457031-34.144531-32.078125-78.832031-48.136719-125.785156-45.207031l-.992187-15.96875c51.386718-3.222656 100.34375 14.394531 137.730468 49.519531 36.878906 34.648438 58.03125 83.535157 58.03125 134.113281 0 61.832032-30.824218 119.175782-82.449218 153.40625-23.511719 15.585938-37.550782 42.539063-37.550782 72.097657v30.496093c0 4.421876-3.585937 8-8 8zm0 0"/><path d="m248.003906 496.007812c-26.472656 0-48-21.527343-48-48v-8h16v8c0 17.648438 14.351563 32 32 32 17.648438 0 32-14.351562 32-32v-8h16v8c0 26.472657-21.527344 48-48 48zm0 0"/><path d="m168.003906 400.007812h160v16h-160zm0 0"/><path d="m152.003906 368.007812h192v16h-192zm0 0"/><path d="m96.003906 96.007812c-4.417968 0-8-3.578124-8-8 0-17.648437-14.351562-32-32-32-4.417968 0-8-3.578124-8-8 0-4.425781 3.582032-8 8-8 17.648438 0 32-14.351562 32-32 0-4.425781 3.582032-7.9999995 8-7.9999995 4.414063 0 8 3.5742185 8 7.9999995 0 17.648438 14.351563 32 32 32 4.414063 0 8 3.574219 8 8 0 4.421876-3.585937 8-8 8-17.648437 0-32 14.351563-32 32 0 4.421876-3.585937 8-8 8zm-13.496094-48c5.34375 3.550782 9.945313 8.152344 13.496094 13.496094 3.550782-5.34375 8.152344-9.945312 13.496094-13.496094-5.34375-3.550781-9.945312-8.152343-13.496094-13.496093-3.550781 5.34375-8.152344 9.945312-13.496094 13.496093zm0 0"/><path d="m48.003906 176.007812c-4.417968 0-8-3.578124-8-8 0-17.648437-14.351562-32-32-32-4.417968 0-7.99999975-3.578124-7.99999975-8 0-4.425781 3.58203175-8 7.99999975-8 17.648438 0 32-14.351562 32-32 0-4.425781 3.582032-8 8-8 4.414063 0 8 3.574219 8 8 0 17.648438 14.351563 32 32 32 4.414063 0 8 3.574219 8 8 0 4.421876-3.585937 8-8 8-17.648437 0-32 14.351563-32 32 0 4.421876-3.585937 8-8 8zm-13.496094-48c5.34375 3.550782 9.9375 8.152344 13.496094 13.496094 3.550782-5.34375 8.152344-9.9375 13.496094-13.496094-5.34375-3.550781-9.9375-8.152343-13.496094-13.496093-3.550781 5.34375-8.152344 9.945312-13.496094 13.496093zm0 0"/></g><g transform="matrix(0.08562621048660952 0.03866990313834368 -0.03866990313834368 0.08562621048660952 279.9791853188439 134.18019491201198)" id="L1_127"><circle cx="256" cy="256" r="256" fill="#e6f3ff"/><path d="M270.239,511.6c130.045-7.132,234.227-111.314,241.361-241.359L386.229,144.87l-30.658,20.449  l-74.505-74.505l-96.88,83.027L88.778,279.043l74.147,74.147l-29.327,21.766L270.239,511.6z" fill="#cfdbe6"/><path d="M411.726,227.556h-16.355c-3.686-18.156-10.847-35.044-20.732-49.969l11.588-11.588  c5.834-5.834,5.834-15.294,0-21.128l-19.097-19.097c-5.834-5.834-15.294-5.834-21.128,0l-11.588,11.588  c-14.926-9.885-31.813-17.046-49.969-20.732v-16.355c0-8.251-6.689-14.941-14.941-14.941h-27.008  c-8.251,0-14.941,6.689-14.941,14.941v16.355c-18.156,3.686-35.044,10.845-49.969,20.732l-11.588-11.588  c-5.835-5.834-15.294-5.834-21.128,0l-19.097,19.097c-5.834,5.835-5.834,15.294,0,21.128l11.588,11.588  c-9.885,14.927-17.046,31.813-20.732,49.969h-16.355c-8.251,0-14.941,6.689-14.941,14.941v27.008  c0,8.251,6.689,14.941,14.941,14.941h16.355c3.686,18.156,10.845,35.044,20.732,49.969l-11.588,11.588  c-5.834,5.834-5.834,15.294,0,21.128l19.097,19.097c5.834,5.834,15.294,5.834,21.128,0l11.588-11.588  c14.927,9.885,31.813,17.046,49.969,20.732v16.355c0,8.251,6.689,14.941,14.941,14.941h27.008c8.251,0,14.941-6.689,14.941-14.941  v-16.355c18.156-3.686,35.044-10.847,49.969-20.732l11.588,11.588c5.834,5.834,15.294,5.834,21.128,0l19.097-19.097  c5.835-5.834,5.835-15.294,0-21.128l-11.588-11.588c9.885-14.926,17.046-31.813,20.732-49.969h16.355  c8.251,0,14.941-6.689,14.941-14.941v-27.008C426.667,234.244,419.976,227.556,411.726,227.556z M256,355.556  c-54.982,0-99.556-44.573-99.556-99.556s44.573-99.556,99.556-99.556s99.556,44.573,99.556,99.556S310.982,355.556,256,355.556z" fill="#f9b54c"/><path d="M411.726,227.556h-16.355c-3.686-18.156-10.847-35.044-20.732-49.969l11.588-11.588  c5.835-5.834,5.835-15.294,0-21.128l-19.097-19.097c-5.834-5.834-15.294-5.834-21.128,0l-11.588,11.588  c-14.926-9.885-31.813-17.046-49.969-20.732v-16.355c0-8.251-6.689-14.941-14.941-14.941h-14.077v71.125  c0.191-0.002,0.381-0.014,0.574-0.014c54.984,0,99.556,44.573,99.556,99.556S310.984,355.556,256,355.556  c-0.193,0-0.381-0.014-0.574-0.014v71.125h14.077c8.251,0,14.941-6.689,14.941-14.941v-16.355  c18.156-3.686,35.044-10.847,49.969-20.732l11.588,11.588c5.834,5.834,15.294,5.834,21.128,0l19.097-19.097  c5.835-5.834,5.835-15.294,0-21.128l-11.588-11.588c9.885-14.926,17.046-31.813,20.732-49.969h16.355  c8.251,0,14.941-6.689,14.941-14.941v-27.008C426.667,234.244,419.976,227.556,411.726,227.556z" fill="#f4a200"/><path d="M256,316.369l-22.1-22.099c-26.85-26.85-26.85-70.38,0-97.23l22.099-22.099l22.099,22.099  c26.85,26.85,26.85,70.38,0,97.23L256,316.369z" fill="#79d720"/><path d="M278.099,197.042L256,174.944l-0.574,0.574v140.281l0.574,0.574l22.099-22.099  C304.947,267.423,304.947,223.891,278.099,197.042z" fill="#66b31b"/><path d="M256,341.061c-2.857,0-5.172-2.315-5.172-5.172V229.295c0-2.857,2.315-5.172,5.172-5.172  s5.172,2.315,5.172,5.172v106.594C261.172,338.746,258.857,341.061,256,341.061z" fill="#599b13"/><path d="M256,224.123c-0.197,0-0.383,0.036-0.574,0.059v116.822c0.191,0.021,0.378,0.059,0.574,0.059  c2.857,0,5.172-2.315,5.172-5.172V229.297C261.172,226.438,258.857,224.123,256,224.123z" fill="#4f870e"/></g><g transform="matrix(0.11718681454658508 0 0 0.11718681454658508 134 41)" id="L1_128"><path d="M434.266,353.509l-25.031,8.484l-5.728,15.91c-114.551,76.793-291.257,43.488-299.529,42.003  l-9.759-2.122l-2.122-9.759c-1.485-8.272-34.79-184.979,42.003-299.529l15.91-5.728l8.484-25.031l1.485-1.485  c14.85-14.849,31.82-26.729,49.427-36.7l25.456,20.79l2.545-33.941C271.56,12.612,307.623,5.399,341.988,2.004l7.213,10.183  l22.912-11.879c51.759-1.696,94.399,4.031,111.58,6.788l21.213,21.213c2.758,17.181,8.484,59.821,6.788,111.58l-17.607,9.971  l15.911,20.153c-3.395,34.365-10.608,70.428-24.397,104.581l-33.941,2.545l20.79,25.456c-9.971,17.607-21.85,34.578-36.7,49.427  L434.266,353.509z" fill="#77dd00"/><g><path d="M434.266,353.509l-25.031,8.484l-5.728,15.91c-114.551,76.793-291.257,43.488-299.529,42.003   l-9.759-2.122L494.3,17.703l10.607,10.607c2.758,17.181,8.484,59.821,6.788,111.58l-17.607,9.971l15.911,20.153   c-3.395,34.365-10.608,70.428-24.397,104.581l-33.941,2.545l20.79,25.456c-9.971,17.607-21.85,34.578-36.7,49.427L434.266,353.509z   " fill="#66bb00"/><rect x="182px" y="209px" width="209px" height="30px" transform="matrix(-0.7071 0.7071 -0.7071 -0.7071 649.2969 180.5373)" fill="#66bb00"/><path d="M339.868,276.08 253.318,258.685 235.923,172.135 265.408,166.408 278.774,233.229    345.595,246.595z" fill="#66bb00"/><rect x="-22px" y="406px" width="226px" height="30px" transform="matrix(-0.7071 0.7071 -0.7071 -0.7071 452.6302 655.3209)" fill="#66bb00"/><path d="M504.906,28.31l-90.368,90.368l-21.213-21.213l90.368-90.368c4.031,0.636,7.213,1.273,8.061,1.271   l9.759,2.122l2.122,9.759C503.633,21.097,504.27,24.279,504.906,28.31z" fill="#66bb00"/><path d="M253.657,107.533l-16.214-81.071c-9.542,3.874-18.888,8.224-27.951,13.212l14.749,73.743   L253.657,107.533z" fill="#66bb00"/></g><path d="M398.586,287.763l73.743,14.749c4.987-9.063,9.338-18.409,13.212-27.951l-81.071-16.214  L398.586,287.763z" fill="#5cac00"/><path d="M391.543,96.927L372.215,0.289c-9.835,0.334-19.885,0.917-30.216,1.884l20.127,100.637  L391.543,96.927z" fill="#66bb00"/><path d="M409.193,149.877l100.637,20.127c0.967-10.331,1.55-20.381,1.884-30.216l-96.638-19.328  L409.193,149.877z" fill="#5cac00"/><path d="M200.624,287.845L158.613,77.823c-9.3,9.494-17.233,19.88-24.458,30.675l37.052,185.231  L200.624,287.845z" fill="#66bb00"/><g><path d="M218.274,340.796l185.231,37.052c10.796-7.225,21.181-15.158,30.675-24.458l-210.023-42.011   L218.274,340.796z" fill="#5cac00"/><path d="M504.906,28.31l-90.368,90.368l-10.607-10.607l97.582-97.581l2.122,9.759   C503.633,21.097,504.27,24.279,504.906,28.31z" fill="#5cac00"/><rect x="285px" y="125px" width="15px" height="209px" transform="matrix(0.7071 0.7071 -0.7071 0.7071 248.3614 -139.4916)" fill="#5cac00"/><rect x="88px" y="313px" width="15px" height="226px" transform="matrix(0.7071 0.7071 -0.7071 0.7071 329.8195 57.1708)" fill="#5cac00"/><path d="M339.868,276.08 253.318,258.685 278.774,233.229 345.595,246.595z" fill="#5cac00"/></g><g><path d="M213.012,171.711c-17.546-17.546-17.546-46.093,0-63.64s46.093-17.546,63.64,0   c17.546,17.546,17.546,46.093,0,63.64C259.105,189.258,230.559,189.258,213.012,171.711z" fill="#ede9e8"/><path d="M223.619,288.384c-17.607-17.607-46.032-17.607-63.64,0c-17.606,17.606-17.607,46.032,0,63.64   c17.607,17.607,46.034,17.606,63.64,0C241.226,334.416,241.226,305.991,223.619,288.384z" fill="#ede9e8"/></g><path d="M223.619,352.024c-17.606,17.606-46.032,17.607-63.64,0l63.64-63.64  C241.226,305.991,241.226,334.416,223.619,352.024z" fill="#dfd7d5"/><path d="M414.538,97.465c-17.607-17.607-46.032-17.607-63.64,0c-17.606,17.606-17.607,46.032,0,63.64  c17.607,17.607,46.034,17.606,63.64,0C432.145,143.498,432.145,115.073,414.538,97.465z" fill="#ede9e8"/><g><path d="M340.292,298.991c-17.546-17.546-17.546-46.093,0-63.64c17.546-17.546,46.093-17.546,63.64,0   s17.546,46.093,0,63.64S357.838,316.537,340.292,298.991z" fill="#dfd7d5"/><path d="M350.898,161.105l63.64-63.64c17.607,17.607,17.607,46.032,0,63.64   C396.932,178.711,368.505,178.712,350.898,161.105z" fill="#dfd7d5"/></g><path d="M202.406,330.81c-5.939,5.939-15.273,5.94-21.213,0s-5.939-15.274,0-21.213  c5.94-5.94,15.273-5.94,21.213,0C208.346,315.538,208.346,324.87,202.406,330.81z" fill="#77dd00"/><path d="M202.406,330.81c-5.939,5.939-15.273,5.94-21.213,0l21.213-21.213  C208.346,315.538,208.346,324.87,202.406,330.81z" fill="#66bb00"/><path d="M393.325,139.892c-5.939,5.939-15.273,5.94-21.213,0s-5.939-15.274,0-21.213  c5.94-5.94,15.273-5.94,21.213,0S399.265,133.951,393.325,139.892z" fill="#77dd00"/><g><path d="M393.325,139.892c-5.939,5.939-15.273,5.94-21.213,0l21.213-21.213   C399.265,124.619,399.265,133.951,393.325,139.892z" fill="#66bb00"/><path d="M361.505,277.777L361.505,277.777c-5.858-5.858-5.858-15.355,0-21.213l0,0   c5.858-5.858,15.355-5.858,21.213,0l0,0c5.858,5.858,5.858,15.355,0,21.213l0,0C376.86,283.635,367.363,283.635,361.505,277.777z" fill="#66bb00"/></g><path d="M234.226,150.498L234.226,150.498c-5.858-5.858-5.858-15.355,0-21.213l0,0  c5.858-5.858,15.355-5.858,21.213,0l0,0c5.858,5.858,5.858,15.355,0,21.213l0,0C249.581,156.356,240.083,156.356,234.226,150.498z" fill="#77dd00"/></g><g transform="matrix(0.1171875 0 0 0.1171875 347 156)" id="L1_129"><path d="m256 426.667969c-94.105469 0-170.667969-76.5625-170.667969-170.667969s76.5625-170.667969 170.667969-170.667969 170.667969 76.5625 170.667969 170.667969-76.5625 170.667969-170.667969 170.667969zm0-324.269531c-84.691406 0-153.601562 68.910156-153.601562 153.601562s68.910156 153.601562 153.601562 153.601562 153.601562-68.910156 153.601562-153.601562-68.910156-153.601562-153.601562-153.601562zm0 0"/><path d="m256 512c-4.710938 0-8.535156-3.824219-8.535156-8.535156v-51.199219c0-4.710937 3.824218-8.53125 8.535156-8.53125s8.535156 3.820313 8.535156 8.53125v51.199219c0 4.710937-3.824218 8.535156-8.535156 8.535156zm0 0"/><path d="m256 68.265625c-4.710938 0-8.535156-3.820313-8.535156-8.53125v-51.199219c0-4.710937 3.824218-8.535156 8.535156-8.535156s8.535156 3.824219 8.535156 8.535156v51.199219c0 4.710937-3.824218 8.53125-8.535156 8.53125zm0 0"/><path d="m59.734375 264.535156h-51.199219c-4.710937 0-8.535156-3.824218-8.535156-8.535156s3.824219-8.535156 8.535156-8.535156h51.199219c4.710937 0 8.53125 3.824218 8.53125 8.535156s-3.820313 8.535156-8.53125 8.535156zm0 0"/><path d="m503.464844 264.535156h-51.199219c-4.710937 0-8.53125-3.824218-8.53125-8.535156s3.820313-8.535156 8.53125-8.535156h51.199219c4.710937 0 8.535156 3.824218 8.535156 8.535156s-3.824219 8.535156-8.535156 8.535156zm0 0"/><path d="m213.332031 384c-1.3125 0-2.636719-.296875-3.863281-.921875-3.492188-1.773437-5.324219-5.707031-4.445312-9.53125l23.183593-100.480469h-40.472656c-3.347656 0-6.375-1.953125-7.765625-4.984375-1.390625-3.035156-.878906-6.605469 1.3125-9.128906l110.933594-128c2.570312-2.96875 6.828125-3.796875 10.316406-2.023437 3.5 1.773437 5.335938 5.710937 4.445312 9.53125l-23.183593 100.472656h40.472656c3.347656 0 6.375 1.953125 7.765625 4.984375 1.390625 3.035156.878906 6.605469-1.3125 9.128906l-110.933594 128c-1.664062 1.929687-4.035156 2.953125-6.453125 2.953125zm-6.910156-128h32.511719c2.601562 0 5.058594 1.1875 6.671875 3.21875 1.621093 2.027344 2.21875 4.691406 1.640625 7.234375l-17.878906 77.484375 76.210937-87.9375h-32.511719c-2.601562 0-5.058594-1.1875-6.679687-3.21875-1.613281-2.027344-2.21875-4.691406-1.640625-7.234375l17.886718-77.484375zm0 0"/><path d="m430.984375 439.519531c-2.183594 0-4.367187-.839843-6.03125-2.5l-36.199219-36.199219c-3.335937-3.335937-3.335937-8.730468 0-12.066406 3.335938-3.335937 8.730469-3.335937 12.066406 0l36.199219 36.199219c3.335938 3.335937 3.335938 8.726563 0 12.066406-1.664062 1.660157-3.851562 2.5-6.035156 2.5zm0 0"/><path d="m117.222656 125.746094c-2.183594 0-4.371094-.835938-6.035156-2.5l-36.207031-36.199219c-3.335938-3.335937-3.335938-8.726563 0-12.066406 3.328125-3.335938 8.730469-3.335938 12.066406 0l36.207031 36.199219c3.339844 3.335937 3.339844 8.730468 0 12.066406-1.664062 1.671875-3.855468 2.5-6.03125 2.5zm0 0"/><path d="m81.015625 439.519531c-2.183594 0-4.371094-.839843-6.035156-2.5-3.335938-3.339843-3.335938-8.730469 0-12.066406l36.207031-36.199219c3.339844-3.335937 8.738281-3.335937 12.066406 0 3.339844 3.335938 3.339844 8.730469 0 12.066406l-36.207031 36.199219c-1.664063 1.660157-3.847656 2.5-6.03125 2.5zm0 0"/><path d="m394.785156 125.746094c-2.183594 0-4.367187-.835938-6.03125-2.5-3.335937-3.335938-3.335937-8.730469 0-12.066406l36.199219-36.199219c3.335937-3.335938 8.726563-3.335938 12.066406 0 3.335938 3.339843 3.335938 8.730469 0 12.066406l-36.199219 36.199219c-1.671874 1.671875-3.851562 2.5-6.035156 2.5zm0 0"/></g><g transform="matrix(0.11718452721834183 0 0 0.11718452721834183 337 231)" id="L1_130"><g><path d="M167.613,250.605 112.689,308.643 94.975,378.932 126.032,396.511 175.495,349.228    198.67,268.184z" fill="#efedee"/><path d="M410.154,372.28 405.163,294.305 361.246,233.17 327.579,245.005 327.579,311.081    368.622,361.748 376.487,384.117z" fill="#efedee"/></g><path d="M327.579,245.005l-51.931-5.765l-24.557,21.074v37.541l45.866,131.863  c0,0,69.792-30.01,72.788-66.587L327.579,245.005z" fill="#ffc4b0"/><path d="M251.088,297.856l75.226,42.58c8.86,5.015,11.976,16.261,6.961,25.12l0,0  c-5.015,8.86-16.261,11.976-25.12,6.961c8.86,5.015,11.976,16.261,6.961,25.12l0,0c-5.015,8.86-16.261,11.976-25.12,6.961  c8.86,5.015,11.976,16.261,6.961,25.12l0,0c-5.015,8.86-16.261,11.976-25.12,6.961c8.86,5.015,11.976,16.261,6.961,25.12l0,0  c-5.015,8.86-16.261,11.976-25.12,6.961l-127.644-72.251l72.637-128.327l20.336,11.511L251.088,297.856z" fill="#e6b09c"/><path d="M141.163,382.046 100.055,358.778 94.975,378.932 119.203,392.646 126.032,396.511z" fill="#d4d2d3"/><rect x="10px" y="233px" width="147px" height="109px" transform="matrix(0.4926 -0.8703 0.8703 0.4926 -208.0267 219.0153)" fill="#49c3e0"/><path d="M402.299,353.991 369.901,365.382 376.487,384.117 410.154,372.28 408.834,351.669z" fill="#d4d2d3"/><path d="M512.013,336.088 464.189,196.977 361.246,233.17 410.153,372.28z" fill="#da5b65"/><path d="M512.013,336.088 505.555,317.302 403.565,353.541 410.154,372.28 410.154,372.28z" fill="#c0344a"/><g><path d="M256.013,95.073c-4.268,0-7.726-3.459-7.726-7.726V48.583c0-4.267,3.458-7.726,7.726-7.726   c4.268,0,7.726,3.459,7.726,7.726v38.764C263.74,91.614,260.28,95.073,256.013,95.073z" fill="#ffcd38"/><path d="M167.774,119.667c-2.616,0-5.168-1.329-6.62-3.731l-20.049-33.175   c-2.208-3.652-1.035-8.402,2.617-10.609c3.651-2.207,8.401-1.036,10.609,2.617l20.05,33.176c2.208,3.652,1.035,8.402-2.617,10.609   C170.514,119.308,169.136,119.667,167.774,119.667z" fill="#ffcd38"/><path d="M104.955,186.36c-1.21,0-2.438-0.285-3.585-0.888l-34.318-18.023   c-3.778-1.984-5.231-6.655-3.247-10.433c1.983-3.778,6.651-5.233,10.433-3.248l34.318,18.023c3.778,1.984,5.231,6.655,3.247,10.433   C110.421,184.856,107.734,186.36,104.955,186.36z" fill="#ffcd38"/><path d="M344.252,119.667c-1.361,0-2.739-0.36-3.989-1.115c-3.652-2.207-4.824-6.957-2.617-10.609   l20.049-33.176c2.208-3.652,6.958-4.823,10.609-2.617c3.652,2.207,4.824,6.957,2.617,10.609l-20.049,33.176   C349.421,118.338,346.868,119.667,344.252,119.667z" fill="#ffcd38"/><path d="M407.072,186.36c-2.779,0-5.466-1.504-6.847-4.135c-1.984-3.778-0.531-8.449,3.247-10.433   l34.318-18.023c3.778-1.985,8.45-0.53,10.433,3.248c1.984,3.778,0.531,8.449-3.247,10.433l-34.318,18.023   C409.511,186.075,408.281,186.36,407.072,186.36z" fill="#ffcd38"/></g><rect x="-2px" y="333px" width="109px" height="20px" transform="matrix(0.8703 0.4926 -0.4926 0.8703 175.9188 18.7176)" fill="#00a5c6"/><path d="M275.647,239.241c-19.598-2.176-38.578,7.666-48.093,24.937l-28.254,51.285  c-4.912,8.916-1.666,20.127,7.25,25.039l0,0c8.916,4.912,20.127,1.666,25.039-7.25l19.499-35.396L275.647,239.241z" fill="#ffc4b0"/><path d="M278.797,461.802c0.228-0.404,0.42-0.816,0.615-1.228c0.033-0.072,0.074-0.141,0.107-0.213  l-143.614-81.292l-9.872,17.442l36.64,20.74l91.003,51.511c3.322,1.88,6.98,2.618,10.519,2.337c0.59-0.046,1.176-0.122,1.757-0.225  C271.184,469.951,275.976,466.784,278.797,461.802z" fill="#d9a693"/></g><g transform="matrix(0.1171877309679985 0 0 0.1171877309679985 146 278)" id="L1_131"><path d="M228.935,269.061v41.212c0,14.946,12.116,27.062,27.062,27.062c14.946,0,27.062-12.116,27.062-27.062  v-41.212L228.935,269.061L228.935,269.061z" fill="#bab8b9"/><path d="M249.308,310.273v-41.211h-20.372v41.211c0,14.946,12.116,27.062,27.062,27.062  c3.605,0,7.041-0.711,10.186-1.989C256.288,331.321,249.308,321.614,249.308,310.273z" fill="#a19fa0"/><path d="M255.998,59.39c-48.42,0-87.672,39.252-87.672,87.672c0,58.819,43.545,70.366,43.545,97.071  l44.127,15.64l44.127-15.64c0-26.704,43.545-38.252,43.545-97.071C343.67,98.641,304.419,59.39,255.998,59.39z" fill="#ffcd38"/><path d="M232.244,244.132c0-26.704-43.545-38.252-43.545-97.071c0-44.972,33.868-82.014,77.486-87.064  c-3.344-0.387-6.738-0.608-10.186-0.608c-48.42,0-87.672,39.252-87.672,87.672c0,58.819,43.545,70.367,43.545,97.071l44.127,15.64  l10.186-3.61L232.244,244.132z" fill="#ebaf03"/><path d="M503.306,422.874c0-58.75-49.401-106.547-110.123-106.547c-60.721,0-110.122,47.796-110.122,106.547  H503.306z" fill="#333e40"/><path d="M408.463,317.357c-4.995-0.674-10.094-1.03-15.279-1.03c-60.721,0-110.122,47.796-110.122,106.547  h30.558C313.619,369.14,354.947,324.576,408.463,317.357z" fill="#283234"/><path d="M228.937,422.874c0-58.75-49.401-106.547-110.123-106.547c-60.721,0-110.122,47.796-110.122,106.547  v39.37c0,13.858,11.234,25.091,25.091,25.091h170.061c13.858,0,25.091-11.234,25.091-25.091v-39.37H228.937z" fill="#c76d5f"/><path d="M39.25,462.244v-39.37c0-53.734,41.328-98.297,94.843-105.517c-4.995-0.674-10.094-1.03-15.279-1.03  c-60.721,0-110.122,47.796-110.122,106.547v39.37c0,13.858,11.234,25.091,25.091,25.091h30.558  C50.484,487.335,39.25,476.101,39.25,462.244z" fill="#af4e42"/><g><circle cx="211" cy="422" r="23" fill="#e6b09c"/><circle cx="485" cy="422" r="23" fill="#e6b09c"/></g><path d="M211.514,422.451c-0.187-38.827-40.693-64.742-76.055-48.707c-2.671,1.211-5.092,2.47-7.208,3.667  c-5.861,3.315-13.015,3.315-18.876,0c-2.117-1.197-4.537-2.456-7.208-3.667c-35.362-16.035-75.866,9.88-76.055,48.707  c-0.001,0.141-0.001,0.282-0.001,0.423c0,49.222,41.503,89.125,92.701,89.125s92.701-39.903,92.701-89.125  C211.515,422.733,211.514,422.592,211.514,422.451z" fill="#ffc4b0"/><path d="M46.485,422.874c0-0.141,0-0.282,0.001-0.423c0.131-27.069,19.858-47.855,43.775-52.534  c-24.511-4.826-49.047,8.365-59.231,30.345c-1.443-0.406-3.071-0.628-4.917-0.628c-12.835,0-23.24,10.404-23.24,23.239  c0,12.835,10.404,23.24,23.24,23.24c1.119,0,2.155-0.085,3.123-0.237c10.55,38.073,46.654,66.124,89.578,66.124  c3.443,0,6.84-0.186,10.186-0.538C82.596,506.585,46.485,468.786,46.485,422.874z" fill="#e6b09c"/><path d="M485.883,422.451c-0.187-38.827-40.693-64.742-76.055-48.707c-2.671,1.211-5.092,2.47-7.208,3.667  c-5.861,3.315-13.015,3.315-18.876,0c-2.117-1.197-4.537-2.456-7.209-3.667c-35.362-16.035-75.866,9.88-76.055,48.707  c-0.001,0.141-0.001,0.282-0.001,0.423c0,49.222,41.503,89.125,92.701,89.125s92.701-39.903,92.701-89.125  C485.884,422.733,485.884,422.592,485.883,422.451z" fill="#ffc4b0"/><path d="M320.854,422.874c0-0.141,0-0.282,0.001-0.423c0.131-27.069,19.858-47.855,43.775-52.534  c-24.511-4.826-49.048,8.365-59.232,30.346c-1.441-0.407-3.068-0.63-4.916-0.63c-12.835,0-23.24,10.404-23.24,23.239  c0,12.835,10.404,23.24,23.24,23.24c1.12,0,2.156-0.085,3.123-0.237c10.55,38.074,46.654,66.124,89.578,66.124  c3.443,0,6.84-0.186,10.186-0.538C356.965,506.585,320.854,468.786,320.854,422.874z" fill="#e6b09c"/><g><path d="M74.176,434.288c-4.22,0-7.64-3.421-7.64-7.64v-7.464c0-4.219,3.419-7.64,7.64-7.64   c4.22,0,7.64,3.421,7.64,7.64v7.464C81.815,430.868,78.396,434.288,74.176,434.288z" fill="#3a484a"/><path d="M165.851,434.288c-4.22,0-7.64-3.421-7.64-7.64v-7.464c0-4.219,3.419-7.64,7.64-7.64   c4.22,0,7.64,3.421,7.64,7.64v7.464C173.49,430.868,170.071,434.288,165.851,434.288z" fill="#3a484a"/><path d="M118.813,439.804c-7.079,0-13.734-2.969-18.259-8.146c-2.777-3.177-2.452-8.003,0.725-10.78   c3.177-2.776,8.002-2.452,10.78,0.725c1.623,1.856,4.084,2.92,6.753,2.92c2.671,0,5.133-1.064,6.754-2.92   c2.778-3.178,7.604-3.501,10.78-0.724c3.177,2.777,3.502,7.603,0.725,10.78C132.548,436.835,125.893,439.804,118.813,439.804z" fill="#3a484a"/><path d="M348.182,434.288c-4.22,0-7.64-3.421-7.64-7.64v-7.464c0-4.219,3.419-7.64,7.64-7.64   c4.22,0,7.64,3.421,7.64,7.64v7.464C355.822,430.868,352.402,434.288,348.182,434.288z" fill="#3a484a"/><path d="M439.857,434.288c-4.22,0-7.64-3.421-7.64-7.64v-7.464c0-4.219,3.419-7.64,7.64-7.64   c4.22,0,7.64,3.421,7.64,7.64v7.464C447.497,430.868,444.077,434.288,439.857,434.288z" fill="#3a484a"/><path d="M393.183,439.804c-7.079,0-13.734-2.969-18.259-8.146c-2.777-3.177-2.452-8.003,0.725-10.78   c3.177-2.776,8.002-2.452,10.78,0.725c1.623,1.856,4.084,2.92,6.753,2.92c2.67,0,5.132-1.064,6.755-2.921   c2.779-3.177,7.602-3.501,10.78-0.722c3.176,2.777,3.501,7.603,0.723,10.78C406.916,436.836,400.262,439.804,393.183,439.804z" fill="#3a484a"/></g><path d="M300.125,275.412l-44.127-15.64l-44.127,15.64c-8.638,0-15.64,7.002-15.64,15.64l0,0  c0,8.638,7.002,15.64,15.64,15.64h88.254c8.638,0,15.64-7.002,15.64-15.64l0,0C315.765,282.414,308.763,275.412,300.125,275.412z" fill="#a19fa0"/><path d="M216.603,291.052L216.603,291.052c0-8.638,7.002-15.64,15.64-15.64l33.941-12.03l-10.186-3.61  l-44.127,15.64c-8.638,0-15.64,7.003-15.64,15.64l0,0c0,8.638,7.002,15.64,15.64,15.64h20.372  C223.606,306.692,216.603,299.69,216.603,291.052z" fill="#878586"/><path d="M300.125,244.132h-88.254c-8.638,0-15.64,7.002-15.64,15.64l0,0c0,8.638,7.002,15.64,15.64,15.64  h88.254c8.638,0,15.64-7.002,15.64-15.64l0,0C315.765,251.135,308.763,244.132,300.125,244.132z" fill="#bab8b9"/><path d="M216.604,259.771L216.604,259.771c0-8.638,7.002-15.64,15.64-15.64h-20.372  c-8.638,0-15.64,7.002-15.64,15.64l0,0c0,8.638,7.002,15.64,15.64,15.64h20.372C223.606,275.412,216.604,268.409,216.604,259.771z" fill="#a19fa0"/><g><path d="M212.538,155.483c-4.22,0-7.64-3.42-7.64-7.64v-7.866c0-4.219,3.419-7.64,7.64-7.64   s7.64,3.421,7.64,7.64v7.866C220.177,152.062,216.757,155.483,212.538,155.483z" fill="#3a484a"/><path d="M299.459,155.483c-4.22,0-7.64-3.42-7.64-7.64v-7.866c0-4.219,3.419-7.64,7.64-7.64   s7.64,3.421,7.64,7.64v7.866C307.099,152.062,303.678,155.483,299.459,155.483z" fill="#3a484a"/><path d="M255.999,161.296c-7.341,0-14.241-3.077-18.932-8.443c-2.777-3.177-2.452-8.002,0.725-10.78   c3.177-2.778,8.002-2.452,10.78,0.724c1.788,2.045,4.495,3.219,7.427,3.219c2.932,0,5.639-1.173,7.428-3.219   c2.777-3.177,7.603-3.501,10.78-0.723c3.176,2.777,3.501,7.603,0.723,10.78C270.239,158.219,263.34,161.296,255.999,161.296z" fill="#3a484a"/></g><path d="M255.999,35.949c-4.22,0-7.64-3.42-7.64-7.64V7.64c0-4.219,3.419-7.64,7.64-7.64s7.64,3.42,7.64,7.64  v20.67C263.639,32.528,260.218,35.949,255.999,35.949z" fill="#ebaf03"/><path d="M167.365,72.662c-1.955,0-3.91-0.746-5.403-2.238l-14.616-14.616c-2.984-2.984-2.984-7.821,0-10.803  c2.985-2.984,7.821-2.984,10.804,0l14.616,14.616c2.984,2.984,2.984,7.821,0,10.803C171.275,71.916,169.319,72.662,167.365,72.662z" fill="#ffcd38"/><path d="M130.652,161.296h-20.67c-4.22,0-7.64-3.42-7.64-7.64c0-4.219,3.419-7.64,7.64-7.64h20.67  c4.22,0,7.64,3.42,7.64,7.64C138.291,157.876,134.872,161.296,130.652,161.296z" fill="#ebaf03"/><path d="M344.631,72.662c-1.955,0-3.91-0.746-5.403-2.238c-2.983-2.984-2.983-7.821,0-10.803l14.616-14.616  c2.985-2.984,7.821-2.984,10.804,0c2.983,2.984,2.983,7.821,0,10.803l-14.615,14.617C348.542,71.916,346.586,72.662,344.631,72.662z  " fill="#ffcd38"/><path d="M402.015,161.296h-20.67c-4.22,0-7.64-3.42-7.64-7.64c0-4.219,3.419-7.64,7.64-7.64h20.67  c4.22,0,7.64,3.42,7.64,7.64C409.654,157.876,406.235,161.296,402.015,161.296z" fill="#ebaf03"/></g><g transform="matrix(0.11718795448541641 0 0 0.11718795448541641 327 327)" id="L1_132"><path d="M376.118,332.642 297.104,349.51 297.104,415.316 376.118,441.204 455.131,415.316   455.131,349.51z" fill="#efedee"/><path d="M333.615,349.512 297.104,349.512 297.104,415.316 333.615,427.279z" fill="#d4d2d3"/><rect x="297px" y="415px" width="158px" height="96px" fill="#da5b65"/><rect x="297px" y="415px" width="36px" height="96px" fill="#c0344a"/><circle cx="415" cy="382" r="12" fill="#3a484a"/><path d="M135.877,332.642 214.891,349.51 214.891,415.316 135.877,441.204 56.863,415.316   56.863,349.51z" fill="#efedee"/><circle cx="96" cy="382" r="12" fill="#3a484a"/><rect x="56px" y="415px" width="158px" height="96px" fill="#49c3e0"/><g><path d="M508.805,235.289c-5.945-9.148-18.181-11.744-27.328-5.799l-26.343,17.12v-70.612   c0-10.91-8.844-19.754-19.754-19.754l0,0c-10.91,0-19.754,8.844-19.754,19.754c0-10.91-8.844-19.754-19.754-19.754l0,0   c-10.91,0-19.754,8.844-19.754,19.754c0-10.91-8.844-19.754-19.754-19.754l0,0c-10.91,0-19.754,8.844-19.754,19.754   c0-10.91-8.844-19.754-19.754-19.754l0,0c-10.91,0-19.754,8.844-19.754,19.754v173.511h158.033v-55.78l0,0l47.871-31.111   C512.153,256.672,514.75,244.437,508.805,235.289z" fill="#ffc4b0"/><path d="M195.139,156.243L195.139,156.243c-10.91,0-19.754,8.844-19.754,19.754   c0-10.91-8.844-19.754-19.754-19.754l0,0c-10.91,0-19.754,8.844-19.754,19.754c0-10.91-8.844-19.754-19.754-19.754l0,0   c-10.91,0-19.754,8.844-19.754,19.754c0-10.91-8.844-19.754-19.754-19.754l0,0c-10.91,0-19.754,8.844-19.754,19.754v70.612   l-26.343-17.12c-9.148-5.945-21.382-3.348-27.328,5.799c-5.945,9.148-3.349,21.382,5.799,27.328l47.871,31.111l0,0v55.78h158.03   v-173.51C214.893,165.088,206.049,156.243,195.139,156.243z" fill="#ffc4b0"/></g><g><path d="M249.018,56.286c-4.268,0-7.726-3.459-7.726-7.726V8.311c0-4.267,3.458-7.726,7.726-7.726   c4.268,0,7.726,3.459,7.726,7.726V48.56C256.744,52.827,253.285,56.286,249.018,56.286z" fill="#ffcd38"/><path d="M331.015,67.32c-1.25,0-2.516-0.304-3.69-0.944c-3.747-2.042-5.129-6.734-3.087-10.481   l19.257-35.341c2.042-3.747,6.735-5.129,10.482-3.087s5.129,6.734,3.087,10.481l-19.257,35.341   C336.405,65.861,333.753,67.32,331.015,67.32z" fill="#ffcd38"/><path d="M395.129,100.821c-2.356,0-4.682-1.073-6.2-3.107c-2.552-3.42-1.847-8.262,1.573-10.813   l32.261-24.065c3.419-2.551,8.262-1.847,10.813,1.573c2.552,3.42,1.847,8.262-1.573,10.813l-32.261,24.065   C398.356,100.321,396.735,100.821,395.129,100.821z" fill="#ffcd38"/><path d="M167.021,67.32c-2.737,0-5.389-1.458-6.792-4.031l-19.258-35.341   c-2.041-3.747-0.659-8.439,3.087-10.481c3.749-2.042,8.439-0.659,10.482,3.087l19.258,35.341c2.041,3.747,0.659,8.439-3.087,10.481   C169.536,67.016,168.269,67.32,167.021,67.32z" fill="#ffcd38"/><path d="M102.907,100.821c-1.607,0-3.228-0.5-4.614-1.534l-32.26-24.065   c-3.42-2.552-4.125-7.393-1.573-10.813c2.553-3.42,7.394-4.125,10.813-1.573l32.26,24.065c3.42,2.552,4.125,7.393,1.573,10.813   C107.589,99.747,105.263,100.821,102.907,100.821z" fill="#ffcd38"/></g><path d="M214.893,349.512 178.383,349.512 178.383,415.316 214.893,427.279z" fill="#d4d2d3"/><rect x="178px" y="415px" width="36px" height="96px" fill="#00a5c6"/><g><path d="M195.139,156.243L195.139,156.243c-7.078,0-13.269,3.734-16.757,9.329v183.936h36.511V175.997   C214.893,165.088,206.049,156.243,195.139,156.243z" fill="#e6b09c"/><path d="M316.858,156.243L316.858,156.243c7.078,0,13.269,3.734,16.757,9.329v183.936h-36.512V175.997   C297.104,165.088,305.948,156.243,316.858,156.243z" fill="#e6b09c"/></g></g></defs><g fi:class="KUsePattern"><pattern id="pattern_L1_115" width="350" height="350" patternUnits="userSpaceOnUse"><use xlink:href="#L1_115" x="-350" y="-350"/><use xlink:href="#L1_115" x="0" y="-350"/><use xlink:href="#L1_115" x="350" y="-350"/><use xlink:href="#L1_115" x="-350" y="0"/><use xlink:href="#L1_115" x="0" y="0"/><use xlink:href="#L1_115" x="350" y="0"/><use xlink:href="#L1_115" x="-350" y="350"/><use xlink:href="#L1_115" x="0" y="350"/><use xlink:href="#L1_115" x="350" y="350"/></pattern><rect x="0" y="0" width="100%" height="100%" fill="url(#pattern_L1_115)"/></g><g fi:class="KUsePattern"><pattern id="pattern_L1_113" width="350" height="350" patternUnits="userSpaceOnUse"><use xlink:href="#L1_113" x="-350" y="-350"/><use xlink:href="#L1_113" x="0" y="-350"/><use xlink:href="#L1_113" x="350" y="-350"/><use xlink:href="#L1_113" x="-350" y="0"/><use xlink:href="#L1_113" x="0" y="0"/><use xlink:href="#L1_113" x="350" y="0"/><use xlink:href="#L1_113" x="-350" y="350"/><use xlink:href="#L1_113" x="0" y="350"/><use xlink:href="#L1_113" x="350" y="350"/></pattern><rect x="0" y="0" width="100%" height="100%" fill="url(#pattern_L1_113)"/></g><g fi:class="KUsePattern"><pattern id="pattern_L1_116" width="350" height="350" patternUnits="userSpaceOnUse"><use xlink:href="#L1_116" x="-350" y="-350"/><use xlink:href="#L1_116" x="0" y="-350"/><use xlink:href="#L1_116" x="350" y="-350"/><use xlink:href="#L1_116" x="-350" y="0"/><use xlink:href="#L1_116" x="0" y="0"/><use xlink:href="#L1_116" x="350" y="0"/><use xlink:href="#L1_116" x="-350" y="350"/><use xlink:href="#L1_116" x="0" y="350"/><use xlink:href="#L1_116" x="350" y="350"/></pattern><rect x="0" y="0" width="100%" height="100%" fill="url(#pattern_L1_116)"/></g><g fi:class="KUsePattern"><pattern id="pattern_L1_119" width="350" height="350" patternUnits="userSpaceOnUse"><use xlink:href="#L1_119" x="-350" y="-350"/><use xlink:href="#L1_119" x="0" y="-350"/><use xlink:href="#L1_119" x="350" y="-350"/><use xlink:href="#L1_119" x="-350" y="0"/><use xlink:href="#L1_119" x="0" y="0"/><use xlink:href="#L1_119" x="350" y="0"/><use xlink:href="#L1_119" x="-350" y="350"/><use xlink:href="#L1_119" x="0" y="350"/><use xlink:href="#L1_119" x="350" y="350"/></pattern><rect x="0" y="0" width="100%" height="100%" fill="url(#pattern_L1_119)"/></g><g fi:class="KUsePattern"><pattern id="pattern_L1_120" width="350" height="350" patternUnits="userSpaceOnUse"><use xlink:href="#L1_120" x="-350" y="-350"/><use xlink:href="#L1_120" x="0" y="-350"/><use xlink:href="#L1_120" x="350" y="-350"/><use xlink:href="#L1_120" x="-350" y="0"/><use xlink:href="#L1_120" x="0" y="0"/><use xlink:href="#L1_120" x="350" y="0"/><use xlink:href="#L1_120" x="-350" y="350"/><use xlink:href="#L1_120" x="0" y="350"/><use xlink:href="#L1_120" x="350" y="350"/></pattern><rect x="0" y="0" width="100%" height="100%" fill="url(#pattern_L1_120)"/></g><g fi:class="KUsePattern"><pattern id="pattern_L1_121" width="350" height="350" patternUnits="userSpaceOnUse"><use xlink:href="#L1_121" x="-350" y="-350"/><use xlink:href="#L1_121" x="0" y="-350"/><use xlink:href="#L1_121" x="350" y="-350"/><use xlink:href="#L1_121" x="-350" y="0"/><use xlink:href="#L1_121" x="0" y="0"/><use xlink:href="#L1_121" x="350" y="0"/><use xlink:href="#L1_121" x="-350" y="350"/><use xlink:href="#L1_121" x="0" y="350"/><use xlink:href="#L1_121" x="350" y="350"/></pattern><rect x="0" y="0" width="100%" height="100%" fill="url(#pattern_L1_121)"/></g><g fi:class="KUsePattern"><pattern id="pattern_L1_123" width="350" height="350" patternUnits="userSpaceOnUse"><use xlink:href="#L1_123" x="-350" y="-350"/><use xlink:href="#L1_123" x="0" y="-350"/><use xlink:href="#L1_123" x="350" y="-350"/><use xlink:href="#L1_123" x="-350" y="0"/><use xlink:href="#L1_123" x="0" y="0"/><use xlink:href="#L1_123" x="350" y="0"/><use xlink:href="#L1_123" x="-350" y="350"/><use xlink:href="#L1_123" x="0" y="350"/><use xlink:href="#L1_123" x="350" y="350"/></pattern><rect x="0" y="0" width="100%" height="100%" fill="url(#pattern_L1_123)"/></g><g fi:class="KUsePattern"><pattern id="pattern_L1_124" width="350" height="350" patternUnits="userSpaceOnUse"><use xlink:href="#L1_124" x="-350" y="-350"/><use xlink:href="#L1_124" x="0" y="-350"/><use xlink:href="#L1_124" x="350" y="-350"/><use xlink:href="#L1_124" x="-350" y="0"/><use xlink:href="#L1_124" x="0" y="0"/><use xlink:href="#L1_124" x="350" y="0"/><use xlink:href="#L1_124" x="-350" y="350"/><use xlink:href="#L1_124" x="0" y="350"/><use xlink:href="#L1_124" x="350" y="350"/></pattern><rect x="0" y="0" width="100%" height="100%" fill="url(#pattern_L1_124)"/></g><g fi:class="KUsePattern"><pattern id="pattern_L1_125" width="350" height="350" patternUnits="userSpaceOnUse"><use xlink:href="#L1_125" x="-350" y="-350"/><use xlink:href="#L1_125" x="0" y="-350"/><use xlink:href="#L1_125" x="350" y="-350"/><use xlink:href="#L1_125" x="-350" y="0"/><use xlink:href="#L1_125" x="0" y="0"/><use xlink:href="#L1_125" x="350" y="0"/><use xlink:href="#L1_125" x="-350" y="350"/><use xlink:href="#L1_125" x="0" y="350"/><use xlink:href="#L1_125" x="350" y="350"/></pattern><rect x="0" y="0" width="100%" height="100%" fill="url(#pattern_L1_125)"/></g><g fi:class="KUsePattern"><pattern id="pattern_L1_126" width="350" height="350" patternUnits="userSpaceOnUse"><use xlink:href="#L1_126" x="-350" y="-350"/><use xlink:href="#L1_126" x="0" y="-350"/><use xlink:href="#L1_126" x="350" y="-350"/><use xlink:href="#L1_126" x="-350" y="0"/><use xlink:href="#L1_126" x="0" y="0"/><use xlink:href="#L1_126" x="350" y="0"/><use xlink:href="#L1_126" x="-350" y="350"/><use xlink:href="#L1_126" x="0" y="350"/><use xlink:href="#L1_126" x="350" y="350"/></pattern><rect x="0" y="0" width="100%" height="100%" fill="url(#pattern_L1_126)"/></g><g fi:class="KUsePattern"><pattern id="pattern_L1_127" width="350" height="350" patternUnits="userSpaceOnUse"><use xlink:href="#L1_127" x="-350" y="-350"/><use xlink:href="#L1_127" x="0" y="-350"/><use xlink:href="#L1_127" x="350" y="-350"/><use xlink:href="#L1_127" x="-350" y="0"/><use xlink:href="#L1_127" x="0" y="0"/><use xlink:href="#L1_127" x="350" y="0"/><use xlink:href="#L1_127" x="-350" y="350"/><use xlink:href="#L1_127" x="0" y="350"/><use xlink:href="#L1_127" x="350" y="350"/></pattern><rect x="0" y="0" width="100%" height="100%" fill="url(#pattern_L1_127)"/></g><g fi:class="KUsePattern"><pattern id="pattern_L1_128" width="350" height="350" patternUnits="userSpaceOnUse"><use xlink:href="#L1_128" x="-350" y="-350"/><use xlink:href="#L1_128" x="0" y="-350"/><use xlink:href="#L1_128" x="350" y="-350"/><use xlink:href="#L1_128" x="-350" y="0"/><use xlink:href="#L1_128" x="0" y="0"/><use xlink:href="#L1_128" x="350" y="0"/><use xlink:href="#L1_128" x="-350" y="350"/><use xlink:href="#L1_128" x="0" y="350"/><use xlink:href="#L1_128" x="350" y="350"/></pattern><rect x="0" y="0" width="100%" height="100%" fill="url(#pattern_L1_128)"/></g><g fi:class="KUsePattern"><pattern id="pattern_L1_129" width="350" height="350" patternUnits="userSpaceOnUse"><use xlink:href="#L1_129" x="-350" y="-350"/><use xlink:href="#L1_129" x="0" y="-350"/><use xlink:href="#L1_129" x="350" y="-350"/><use xlink:href="#L1_129" x="-350" y="0"/><use xlink:href="#L1_129" x="0" y="0"/><use xlink:href="#L1_129" x="350" y="0"/><use xlink:href="#L1_129" x="-350" y="350"/><use xlink:href="#L1_129" x="0" y="350"/><use xlink:href="#L1_129" x="350" y="350"/></pattern><rect x="0" y="0" width="100%" height="100%" fill="url(#pattern_L1_129)"/></g><g fi:class="KUsePattern"><pattern id="pattern_L1_130" width="350" height="350" patternUnits="userSpaceOnUse"><use xlink:href="#L1_130" x="-350" y="-350"/><use xlink:href="#L1_130" x="0" y="-350"/><use xlink:href="#L1_130" x="350" y="-350"/><use xlink:href="#L1_130" x="-350" y="0"/><use xlink:href="#L1_130" x="0" y="0"/><use xlink:href="#L1_130" x="350" y="0"/><use xlink:href="#L1_130" x="-350" y="350"/><use xlink:href="#L1_130" x="0" y="350"/><use xlink:href="#L1_130" x="350" y="350"/></pattern><rect x="0" y="0" width="100%" height="100%" fill="url(#pattern_L1_130)"/></g><g fi:class="KUsePattern"><pattern id="pattern_L1_131" width="350" height="350" patternUnits="userSpaceOnUse"><use xlink:href="#L1_131" x="-350" y="-350"/><use xlink:href="#L1_131" x="0" y="-350"/><use xlink:href="#L1_131" x="350" y="-350"/><use xlink:href="#L1_131" x="-350" y="0"/><use xlink:href="#L1_131" x="0" y="0"/><use xlink:href="#L1_131" x="350" y="0"/><use xlink:href="#L1_131" x="-350" y="350"/><use xlink:href="#L1_131" x="0" y="350"/><use xlink:href="#L1_131" x="350" y="350"/></pattern><rect x="0" y="0" width="100%" height="100%" fill="url(#pattern_L1_131)"/></g><g fi:class="KUsePattern"><pattern id="pattern_L1_132" width="350" height="350" patternUnits="userSpaceOnUse"><use xlink:href="#L1_132" x="-350" y="-350"/><use xlink:href="#L1_132" x="0" y="-350"/><use xlink:href="#L1_132" x="350" y="-350"/><use xlink:href="#L1_132" x="-350" y="0"/><use xlink:href="#L1_132" x="0" y="0"/><use xlink:href="#L1_132" x="350" y="0"/><use xlink:href="#L1_132" x="-350" y="350"/><use xlink:href="#L1_132" x="0" y="350"/><use xlink:href="#L1_132" x="350" y="350"/></pattern><rect x="0" y="0" width="100%" height="100%" fill="url(#pattern_L1_132)"/></g></svg>