<svg xmlns="http://www.w3.org/2000/svg" xmlns:xlink="http://www.w3.org/1999/xlink" xmlns:fi="http://pattern.flaticon.com/" x="0" y="0" width="850" height="425" viewBox="0 0 1487.5 743.75"><rect x="0px" y="0px" width="100%" height="100%" opacity="1" fill="#ffffff"/><defs><path d="M165,0C74.019,0,0,74.019,0,165s74.019,165,165,165c90.982,0,165-74.019,165-165S255.982,0,165,0z" transform="matrix(0.03030303120613098 0 0 0.03030303120613098 257.5 257.5)" id="L1_9" fill="#02a18b"/><g transform="matrix(0.05859375 0 0 0.05859375 335 160)" id="L1_10"><path d="M494.933,418.133V119.467c-0.015-14.132-11.468-25.585-25.6-25.6h-17.067V25.6c-0.015-14.132-11.468-25.585-25.6-25.6     H290.133c-14.132,0.015-25.585,11.468-25.6,25.6v68.267h-17.067V25.6c-0.015-14.132-11.468-25.585-25.6-25.6H85.333     c-14.132,0.015-25.585,11.468-25.6,25.6v68.267H42.667c-14.132,0.015-25.585,11.468-25.6,25.6v298.667     C7.646,418.146,0.012,425.779,0,435.2v34.133C0.028,492.886,19.114,511.972,42.667,512h426.667     c23.553-0.028,42.639-19.114,42.667-42.667V435.2C511.988,425.779,504.354,418.146,494.933,418.133z M452.267,110.933h17.067     c4.711,0.003,8.53,3.822,8.533,8.533v298.667H460.8V145.067c-0.021-6.069-3.272-11.667-8.533-14.692V110.933z M281.6,25.6     c0.003-4.711,3.822-8.53,8.533-8.533h136.533c4.712,0.003,8.53,3.822,8.533,8.533V128h-41.217     c-1.017,0.019-2.023,0.222-2.968,0.598c-0.193,0.072-0.382,0.13-0.568,0.215c-0.856,0.389-1.64,0.918-2.322,1.565     c-0.145,0.138-0.258,0.293-0.393,0.441c-0.271,0.265-0.524,0.548-0.756,0.847L358.4,172.783l-28.575-41.117     c-0.232-0.299-0.485-0.582-0.756-0.847c-0.135-0.148-0.248-0.303-0.394-0.441c-0.682-0.647-1.466-1.175-2.321-1.565     c-0.187-0.085-0.376-0.144-0.57-0.216c-0.945-0.376-1.951-0.579-2.968-0.598H281.6V25.6z M247.467,110.933h17.067V128h-17.067     V110.933z M76.8,25.6c0.003-4.711,3.822-8.53,8.533-8.533h136.533c4.711,0.003,8.53,3.822,8.533,8.533V128h-41.217     c-1.017,0.019-2.023,0.222-2.968,0.598c-0.193,0.072-0.382,0.13-0.568,0.215c-0.856,0.389-1.64,0.918-2.322,1.565     c-0.145,0.138-0.258,0.293-0.393,0.441c-0.271,0.265-0.524,0.548-0.756,0.847L153.6,172.783l-28.575-41.117     c-0.232-0.299-0.485-0.582-0.756-0.847c-0.135-0.148-0.249-0.303-0.394-0.441c-0.682-0.647-1.466-1.175-2.321-1.565     c-0.187-0.085-0.376-0.144-0.57-0.216c-0.945-0.376-1.951-0.579-2.968-0.598H76.8V25.6z M68.267,145.067h45.292l33.033,47.533     c1.594,2.297,4.213,3.667,7.008,3.667c2.796,0,5.414-1.37,7.008-3.667l33.033-47.533h124.717l33.033,47.533     c1.594,2.297,4.213,3.667,7.008,3.667s5.414-1.37,7.008-3.667l33.033-47.533h45.292v273.067h-102.4H68.267V145.067z      M327.525,435.2l-6.175,12.35c-1.436,2.9-4.397,4.73-7.633,4.717H198.283c-3.236,0.013-6.198-1.817-7.633-4.717l-6.175-12.35     H327.525z M34.133,119.467c0.003-4.712,3.822-8.53,8.533-8.533h17.067v19.442c-5.261,3.025-8.513,8.623-8.533,14.692v273.067     H34.133V119.467z M494.933,452.267h-93.867c-4.713,0-8.533,3.821-8.533,8.533s3.821,8.533,8.533,8.533h93.867     c-0.015,14.132-11.468,25.585-25.6,25.6H42.667c-14.132-0.015-25.585-11.468-25.6-25.6h93.867c4.713,0,8.533-3.82,8.533-8.533     s-3.82-8.533-8.533-8.533H17.067V435.2h148.325l9.992,19.983c4.314,8.694,13.194,14.181,22.9,14.15h115.433     c9.706,0.031,18.586-5.456,22.9-14.15l9.992-19.983h148.325V452.267z"/><path d="M153.6,452.267h-8.533c-4.713,0-8.533,3.821-8.533,8.533s3.82,8.533,8.533,8.533h8.533c4.713,0,8.533-3.82,8.533-8.533     S158.313,452.267,153.6,452.267z"/><path d="M358.4,469.333h8.533c4.713,0,8.533-3.82,8.533-8.533s-3.82-8.533-8.533-8.533H358.4c-4.713,0-8.533,3.821-8.533,8.533     S353.687,469.333,358.4,469.333z"/><path d="M187.733,213.333c-39.715-0.034-74.194,27.357-83.141,66.051c-8.947,38.694,10.006,78.441,45.705,95.845     c0.248,0.136,0.503,0.259,0.764,0.369c23.169,11.203,50.189,11.201,73.356-0.005c0.254-0.107,0.502-0.227,0.743-0.359     c35.702-17.401,54.661-57.148,45.716-95.845C261.93,240.693,227.45,213.299,187.733,213.333z M215.513,360.966     c-17.665,7.957-37.894,7.957-55.558,0c-4.138-5.709-6.362-12.581-6.354-19.632c0.025-12.485,6.856-23.963,17.819-29.938     c10.11,5.785,22.527,5.783,32.636-0.004c10.959,5.98,17.787,17.457,17.812,29.941     C221.875,348.384,219.65,355.257,215.513,360.966z M170.667,281.6c0-9.426,7.641-17.067,17.067-17.067S204.8,272.174,204.8,281.6     c-0.012,9.421-7.646,17.054-17.067,17.067C178.308,298.667,170.667,291.026,170.667,281.6z M238.716,343.909     c0.044-0.863,0.218-1.708,0.218-2.576c-0.021-16.803-8.307-32.52-22.157-42.033c3.303-5.315,5.065-11.443,5.091-17.701     c0-18.851-15.282-34.133-34.133-34.133S153.6,262.749,153.6,281.6c0.025,6.258,1.788,12.385,5.091,17.701     c-13.851,9.513-22.136,25.23-22.157,42.033c0,0.867,0.174,1.713,0.218,2.576c-24.393-27.392-22.781-69.163,3.65-94.594     s68.233-25.431,94.664,0C261.496,274.746,263.108,316.517,238.716,343.909z"/><path d="M298.667,256h102.4c4.713,0,8.533-3.82,8.533-8.533s-3.82-8.533-8.533-8.533h-102.4c-4.713,0-8.533,3.82-8.533,8.533     S293.954,256,298.667,256z"/><path d="M298.667,290.133h102.4c4.713,0,8.533-3.82,8.533-8.533s-3.82-8.533-8.533-8.533h-102.4     c-4.713,0-8.533,3.821-8.533,8.533S293.954,290.133,298.667,290.133z"/><path d="M298.667,324.267h102.4c4.713,0,8.533-3.82,8.533-8.533s-3.82-8.533-8.533-8.533h-102.4c-4.713,0-8.533,3.82-8.533,8.533     S293.954,324.267,298.667,324.267z"/><path d="M409.6,349.867c0-4.713-3.82-8.533-8.533-8.533h-102.4c-4.713,0-8.533,3.82-8.533,8.533s3.82,8.533,8.533,8.533h102.4     C405.78,358.4,409.6,354.58,409.6,349.867z"/><path d="M128,76.8c0-4.713-3.82-8.533-8.533-8.533h-8.533c-4.713,0-8.533,3.82-8.533,8.533s3.82,8.533,8.533,8.533h8.533     C124.18,85.333,128,81.513,128,76.8z"/><path d="M145.067,85.333h8.533c4.713,0,8.533-3.82,8.533-8.533s-3.821-8.533-8.533-8.533h-8.533c-4.713,0-8.533,3.82-8.533,8.533     S140.354,85.333,145.067,85.333z"/><path d="M179.2,85.333h8.533c4.713,0,8.533-3.82,8.533-8.533s-3.82-8.533-8.533-8.533H179.2c-4.713,0-8.533,3.82-8.533,8.533     S174.487,85.333,179.2,85.333z"/><path d="M332.8,76.8c0-4.713-3.82-8.533-8.533-8.533h-8.533c-4.713,0-8.533,3.82-8.533,8.533s3.82,8.533,8.533,8.533h8.533     C328.979,85.333,332.8,81.513,332.8,76.8z"/><path d="M349.867,85.333h8.533c4.713,0,8.533-3.82,8.533-8.533s-3.82-8.533-8.533-8.533h-8.533c-4.713,0-8.533,3.82-8.533,8.533     S345.154,85.333,349.867,85.333z"/><path d="M384,85.333h8.533c4.713,0,8.533-3.82,8.533-8.533s-3.821-8.533-8.533-8.533H384c-4.713,0-8.533,3.82-8.533,8.533     S379.287,85.333,384,85.333z"/></g><g transform="matrix(0.07466666400432587 0 0 0.07466666400432587 140 140)" id="L1_22"><path d="M 921.875 594 L 890.625 594 L 890.625 78.375 C 890.570312 35.25 855.625 0.304688 812.5 0.25 L 125 0.25 C 81.875 0.304688 46.929688 35.25 46.875 78.375 L 46.875 594 L 15.625 594 C 6.992188 594 0 600.992188 0 609.625 L 0 656.5 C 0 691.015625 27.984375 719 62.5 719 L 875 719 C 909.515625 719 937.5 691.015625 937.5 656.5 L 937.5 609.625 C 937.5 600.992188 930.507812 594 921.875 594 Z M 78.125 78.375 C 78.125 52.492188 99.117188 31.5 125 31.5 L 812.5 31.5 C 838.382812 31.5 859.375 52.492188 859.375 78.375 L 859.375 594 L 828.125 594 L 828.125 109.625 C 828.125 83.742188 807.132812 62.75 781.25 62.75 L 156.25 62.75 C 130.367188 62.75 109.375 83.742188 109.375 109.625 L 109.375 594 L 78.125 594 Z M 796.875 109.625 L 796.875 594 L 564.34375 594 C 547.664062 593.90625 532.402344 603.332031 525 618.265625 C 522.890625 622.5625 518.496094 625.28125 513.703125 625.25 L 423.71875 625.25 C 418.921875 625.28125 414.539062 622.5625 412.421875 618.265625 C 405.03125 603.351562 389.800781 593.941406 373.15625 594 L 140.625 594 L 140.625 109.625 C 140.625 100.992188 147.617188 94 156.25 94 L 781.25 94 C 789.882812 94 796.875 100.992188 796.875 109.625 Z M 906.25 656.5 C 906.25 673.761719 892.261719 687.75 875 687.75 L 62.5 687.75 C 45.238281 687.75 31.25 673.761719 31.25 656.5 L 31.25 625.25 L 373.15625 625.25 C 377.953125 625.21875 382.335938 627.9375 384.453125 632.234375 C 391.84375 647.148438 407.074219 656.558594 423.71875 656.5 L 513.78125 656.5 C 530.460938 656.59375 545.722656 647.167969 553.125 632.234375 C 555.230469 627.960938 559.574219 625.25 564.34375 625.25 L 906.25 625.25 Z M 906.25 656.5 " fill="#000000" fill-opacity="1" stroke="none"/><path d="M 414.824219 362.847656 C 414.953125 362.847656 415.042969 363.015625 415.164062 363.082031 L 416.015625 363.421875 C 419.578125 365.085938 423.203125 366.546875 426.953125 367.902344 C 427.558594 368.121094 428.167969 368.359375 428.78125 368.5625 C 432.300781 369.761719 435.890625 370.78125 439.546875 371.6875 C 440.375 371.890625 441.1875 372.132812 442.015625 372.324219 C 445.464844 373.078125 448.96875 373.640625 452.53125 374.085938 C 453.484375 374.21875 454.417969 374.445312 455.375 374.527344 C 464.289062 375.53125 473.273438 375.53125 482.183594 374.527344 C 483.144531 374.445312 484.078125 374.21875 485.035156 374.085938 C 488.59375 373.640625 492.09375 373.078125 495.546875 372.324219 C 496.375 372.132812 497.109375 371.890625 498.015625 371.6875 C 501.671875 370.804688 505.265625 369.789062 508.785156 368.5625 C 509.394531 368.359375 510.003906 368.121094 510.617188 367.902344 C 514.332031 366.578125 517.949219 365.085938 521.542969 363.421875 L 522.390625 363.082031 C 522.515625 363.082031 522.609375 362.90625 522.734375 362.847656 C 575.414062 337.664062 603.640625 279.371094 590.734375 222.421875 C 577.828125 165.484375 527.21875 125.0625 468.824219 125.0625 C 410.4375 125.0625 359.835938 165.484375 346.921875 222.421875 C 334.015625 279.371094 362.246094 337.664062 414.921875 362.847656 Z M 500 338.53125 L 499.796875 338.605469 C 495.007812 340.289062 490.109375 341.582031 485.109375 342.46875 C 484.625 342.5625 484.136719 342.628906 483.652344 342.707031 C 473.785156 344.3125 463.714844 344.3125 453.847656 342.707031 C 453.363281 342.628906 452.875 342.5625 452.390625 342.46875 C 447.390625 341.582031 442.492188 340.289062 437.703125 338.605469 L 437.5 338.53125 L 437.5 312.75 C 437.5 295.488281 451.488281 281.5 468.75 281.5 C 486.011719 281.5 500 295.488281 500 312.75 Z M 453.125 234.625 C 453.125 225.992188 460.117188 219 468.75 219 C 477.382812 219 484.375 225.992188 484.375 234.625 C 484.375 243.257812 477.382812 250.25 468.75 250.25 C 460.117188 250.25 453.125 243.257812 453.125 234.625 Z M 468.75 156.5 C 507.597656 156.453125 542.441406 180.398438 556.308594 216.679688 C 570.191406 252.964844 560.214844 294.046875 531.25 319.9375 L 531.25 312.75 C 531.195312 293.042969 521.816406 274.527344 505.953125 262.828125 C 512.195312 254.742188 515.585938 244.828125 515.625 234.625 C 515.625 208.742188 494.632812 187.75 468.75 187.75 C 442.867188 187.75 421.875 208.742188 421.875 234.625 C 421.929688 244.8125 425.320312 254.695312 431.546875 262.75 C 415.664062 274.460938 406.273438 293.015625 406.25 312.75 L 406.25 319.9375 C 377.285156 294.046875 367.308594 252.964844 381.191406 216.679688 C 395.058594 180.398438 429.902344 156.453125 468.75 156.5 Z M 468.75 156.5 " fill="#000000" fill-opacity="1" stroke="none"/><path d="M 718.75 406.5 L 218.75 406.5 C 210.117188 406.5 203.125 413.492188 203.125 422.125 L 203.125 547.125 C 203.125 555.757812 210.117188 562.75 218.75 562.75 L 718.75 562.75 C 727.382812 562.75 734.375 555.757812 734.375 547.125 L 734.375 422.125 C 734.375 413.492188 727.382812 406.5 718.75 406.5 Z M 703.125 531.5 L 234.375 531.5 L 234.375 437.75 L 703.125 437.75 Z M 703.125 531.5 " fill="#000000" fill-opacity="1" stroke="none"/><path d="M 265.625 469 L 296.875 469 L 296.875 500.25 L 265.625 500.25 Z M 265.625 469 " fill="#000000" fill-opacity="1" stroke="none"/><path d="M 328.125 469 L 359.375 469 L 359.375 500.25 L 328.125 500.25 Z M 328.125 469 " fill="#000000" fill-opacity="1" stroke="none"/><path d="M 390.625 469 L 421.875 469 L 421.875 500.25 L 390.625 500.25 Z M 390.625 469 " fill="#000000" fill-opacity="1" stroke="none"/><path d="M 453.125 469 L 484.375 469 L 484.375 500.25 L 453.125 500.25 Z M 453.125 469 " fill="#000000" fill-opacity="1" stroke="none"/><path d="M 171.875 125.25 L 265.625 125.25 L 265.625 156.5 L 171.875 156.5 Z M 171.875 125.25 " fill="#000000" fill-opacity="1" stroke="none"/><path d="M 296.875 125.25 L 328.125 125.25 L 328.125 156.5 L 296.875 156.5 Z M 296.875 125.25 " fill="#000000" fill-opacity="1" stroke="none"/></g><g transform="matrix(0.10775861889123917 0 0 0.10775861889123917 150 325)" id="L1_12"><path d="M448,440V120c0-13.255-10.745-24-24-24H40c-13.255,0-24,10.745-24,24v320H448z" fill="#cccccc"/><path d="M464,416v24c0,13.255-10.745,24-24,24l0,0H24c-13.255,0-24-10.745-24-24l0,0v-24h160l16,16h112l16-16  H464z" fill="#999999"/><path d="M48,128h368v240H48V128z" fill="#29abe2"/><path d="M224,392h16v16h-16V392z" fill="#f2f2f2"/><circle cx="232" cy="112" r="112" fill="#0071bc"/><circle cx="232" cy="72" r="32" fill="#f7931e"/><path d="M256,104h-48c-22.091,0-40,17.909-40,40v59.84c38.433,26.881,89.567,26.881,128,0V144  C296,121.909,278.091,104,256,104z" fill="#fbb03b"/><g><path d="M192,152v64.536c5.205,2,10.554,3.604,16,4.8V152L192,152z" fill="#f7931e"/><path d="M256,152v69.344c5.446-1.196,10.795-2.8,16-4.8V152H256z" fill="#f7931e"/></g><path d="M104,256h256v64H104V256z" fill="#fbb03b"/><g><path d="M224,280h16v16h-16V280z" fill="#f15a24"/><path d="M256,280h16v16h-16V280z" fill="#f15a24"/><path d="M288,280h16v16h-16V280z" fill="#f15a24"/><path d="M320,280h16v16h-16V280z" fill="#f15a24"/><path d="M128,280h16v16h-16V280z" fill="#f15a24"/><path d="M160,280h16v16h-16V280z" fill="#f15a24"/><path d="M192,280h16v16h-16V280z" fill="#f15a24"/></g></g><g transform="matrix(0.15006112692917514 0.017314744911876817 -0.017314744911876817 0.15006112692917514 6.339479758927254 300.85433122884876)" id="L1_13"><circle cx="245" cy="245" r="245" fill="#45b39c"/><path d="M328.141,110.489c-2.816-3.379-7.066-5.529-11.776-5.529H175.155  c-8.448,0-15.309,6.861-15.309,15.309v250.983c0,4.403,1.895,8.397,4.915,11.213l107.6,107.6  C386.817,477.74,477.71,386.86,490.057,272.413L328.141,110.541V110.489z" opacity="0.1"/><path d="M316.361,114.841H175.159c-8.46,0-15.319,6.859-15.319,15.319v241.081  c0,8.461,6.859,15.319,15.319,15.319h141.202c8.461,0,15.319-6.858,15.319-15.319V130.16  C331.68,121.699,324.822,114.841,316.361,114.841z" fill="#e1e6e9"/><path d="M316.361,104.96H175.159c-8.46,0-15.319,6.859-15.319,15.319V361.36  c0,8.461,6.859,15.319,15.319,15.319h141.202c8.461,0,15.319-6.858,15.319-15.319V120.279  C331.68,111.819,324.822,104.96,316.361,104.96z" fill="#ebf0f3"/><path d="M175.157,336.097c-0.275,0-0.497-0.188-0.497-0.422V131.142c0-0.233,0.222-0.424,0.497-0.424h141.205  c0.275,0,0.497,0.19,0.497,0.424v204.533c0,0.233-0.222,0.422-0.497,0.422H175.157z" fill="#64798a"/><path d="M245.76,370.723c-7.531,0-13.658-6.127-13.658-13.661c0-7.534,6.127-13.661,13.658-13.661  c7.531,0,13.658,6.127,13.658,13.661C259.418,364.596,253.291,370.723,245.76,370.723z M245.76,348.342  c-4.805,0-8.718,3.913-8.718,8.72c0,4.808,3.913,8.72,8.718,8.72c4.805,0,8.718-3.913,8.718-8.72  C254.478,352.255,250.565,348.342,245.76,348.342z" fill="#3a556a"/><path d="M267.148,121.268h-42.776c-2.06,0-3.73-1.67-3.73-3.73l0,0c0-2.06,1.67-3.73,3.73-3.73h42.776  c2.06,0,3.73,1.67,3.73,3.73l0,0C270.879,119.598,269.208,121.268,267.148,121.268z" fill="#64798a"/><circle cx="245" cy="186" r="42" fill="#f6c358"/><circle cx="245" cy="186" r="35" fill="#fcd462"/><g><path d="M245.76,222.051c12.641,0,23.686-6.711,29.856-16.742c-6.313-9.813-17.32-16.32-29.856-16.32   c-12.536,0-23.543,6.506-29.856,16.32C222.074,215.34,233.119,222.051,245.76,222.051z" fill="#dc8744"/><circle cx="245" cy="169" r="11" fill="#dc8744"/></g><g><rect x="191px" y="239px" width="107px" height="19px" fill="#ebf0f3"/><rect x="191px" y="267px" width="107px" height="19px" fill="#ebf0f3"/></g><rect x="217px" y="297px" width="57px" height="19px" fill="#2f4859"/></g><g transform="matrix(0.1171875 0 0 0.1171875 67 49)" id="L1_14"><path d="m256.632812 272.164062h-112.210937c0-31.019531 25.085937-56.109374 56.105469-56.109374 31.019531 0 56.105468 25.089843 56.105468 56.109374zm0 0" fill="#d9eef7"/><path d="m200.527344 143.921875c17.714844 0 32.0625 16.109375 32.0625 36.066406 0 19.960938-14.347656 36.070313-32.0625 36.070313s-32.058594-16.109375-32.058594-36.070313c0-19.957031 14.34375-36.066406 32.058594-36.066406zm0 0" fill="#d9eef7"/><path d="m64.269531 400.40625h272.515625v64.121094h-272.515625zm0 0" fill="#d9eef7"/><path d="m64.269531 304.222656h272.515625v64.121094h-272.515625zm0 0" fill="#d9eef7"/><path d="m272.664062 111.859375v160.304687h-16.03125c0-31.019531-25.085937-56.109374-56.105468-56.109374 17.714844 0 32.058594-16.109376 32.058594-36.066407s-14.34375-36.066406-32.058594-36.066406-32.0625 16.109375-32.0625 36.066406 14.347656 36.066407 32.0625 36.066407c-31.019532 0-56.105469 25.089843-56.105469 56.109374h-16.03125v-160.304687zm0 0" fill="#fd6149"/><path d="m440.980469 87.816406 16.03125 32.058594h-16.03125v40.074219h-32.058594v-40.074219h-16.03125l16.03125-32.058594zm0 0" fill="#95adc0"/><path d="m505.101562 55.753906v136.257813h-160.300781v-136.257813zm-48.089843 64.121094-16.03125-32.058594h-32.058594l-16.03125 32.058594h16.03125v40.074219h32.058594v-40.074219zm0 0" fill="#d9eef7"/><path d="m505.101562 192.011719v312.589843h-496.9375v-432.816406h336.636719v120.226563zm-232.4375 80.152343v-160.304687h-144.273437v160.304687zm64.121094 192.363282v-64.121094h-272.515625v64.121094zm0-96.183594v-64.121094h-272.515625v64.121094zm0 0" fill="#ffe451"/><path d="m8.164062 71.785156v-64.121094h392.742188l-8.015625 8.015626v40.074218h-48.089844v16.03125zm0 0" fill="#69f0f7"/><path d="m344.800781 55.753906h32.058594v136.257813h-32.058594zm0 0" fill="#aac4da"/><path d="m8.164062 7.664062h80.152344v64.121094h-80.152344zm0 0" fill="#1dbcc5"/><path d="m8.164062 71.785156h56.105469v432.816406h-56.105469zm0 0" fill="#fbb040"/><path d="m64.269531 304.222656h32.0625v64.121094h-32.0625zm0 0" fill="#aac4da"/><path d="m64.269531 400.40625h32.0625v64.121094h-32.0625zm0 0" fill="#aac4da"/><path d="m63.636719 32.0625h16.03125v15.0625h-16.03125zm0 0" fill="#ffffff"/><path d="m47.121094 215.925781h-15.0625v-119.742187h47.609375v15.0625h-32.546875zm0 0" fill="#ffffff"/><path d="m87.683594 328.621094h16.027344v15.0625h-16.027344zm0 0" fill="#ffffff"/><path d="m151.804688 328.621094h16.027343v15.0625h-16.027343zm0 0" fill="#ffffff"/><path d="m264.015625 424.800781h16.027344v15.0625h-16.027344zm0 0" fill="#ffffff"/><path d="m199.894531 424.800781h16.03125v15.0625h-16.03125zm0 0" fill="#ffffff"/><path d="m464.394531 432.816406h16.027344v15.0625h-16.027344zm0 0" fill="#ffffff"/><path d="m432.332031 464.878906h16.03125v15.0625h-16.03125zm0 0" fill="#ffffff"/><g fill="#231f20"><path d="m496.9375 496.9375h-481.875v-281.011719h-15.0625v296.074219h512v-296.074219h-15.0625zm0 0"/><path d="m15.0625 79.183594h305.058594v-15.0625h-305.058594v-49.058594h353.148438v-15.0625h-368.210938v191.878906h15.0625zm0 0"/><path d="m31.578125 32.0625h16.027344v15.0625h-16.027344zm0 0"/><path d="m95.699219 32.0625h16.03125v15.0625h-16.03125zm0 0"/><path d="m32.058594 231.953125h15.0625v16.03125h-15.0625zm0 0"/><path d="m120.226562 104.199219v175.363281h159.335938v-175.363281zm55.136719 75.65625c0-15.734375 11.003907-28.535157 24.53125-28.535157 13.523438 0 24.527344 12.800782 24.527344 28.535157s-11.003906 28.539062-24.527344 28.539062c-13.527343 0-24.53125-12.804687-24.53125-28.539062zm-23.457031 84.644531c3.628906-23.222656 23.765625-41.042969 47.988281-41.042969 24.222657 0 44.359375 17.820313 47.988281 41.042969zm112.59375 0h-1.429688c-2.714843-22.917969-17.644531-42.136719-38.085937-50.941406 8.847656-8.003906 14.5-20.140625 14.5-33.703125 0-24.039063-17.757813-43.597657-39.589844-43.597657s-39.59375 19.558594-39.59375 43.597657c0 13.5625 5.65625 25.699219 14.503907 33.703125-20.441407 8.804687-35.371094 28.023437-38.085938 50.941406h-1.429688v-145.238281h129.207032v145.238281zm0 0"/><path d="m343.683594 296.558594h-287.578125v79.183594h287.578125zm-15.0625 64.121094h-257.453125v-49.058594h257.453125zm0 0"/><path d="m264.015625 392.742188h-207.910156v79.183593h287.578125v-79.183593h-55.621094v15.0625h40.558594v49.058593h-257.453125v-49.058593h192.847656zm0 0"/><path d="m119.742188 328.621094h16.03125v15.0625h-16.03125zm0 0"/><path d="m183.863281 328.621094h16.03125v15.0625h-16.03125zm0 0"/><path d="m296.074219 424.800781h16.03125v15.0625h-16.03125zm0 0"/><path d="m231.953125 424.800781h16.03125v15.0625h-16.03125zm0 0"/><path d="m463.910156 48.09375v-35.667969l-12.429687-12.425781h-54.328125l-12.425782 12.425781v35.667969h-48.089843v151.316406h175.363281v-151.316406zm-64.121094-29.425781 3.601563-3.605469h41.851563l3.605468 3.605469v29.425781h-49.058594zm97.148438 165.679687h-145.238281v-121.191406h145.238281zm0 0"/><path d="m400.757812 167.351562h47.121094v-40.078124h20.683594l-23.558594-47.121094h-41.371094l-23.5625 47.121094h20.6875zm12.183594-72.136718h22.75l8.5 16.996094h-11.375v40.078124h-16.996094v-40.078124h-11.378906zm0 0"/><path d="m464.394531 464.878906h16.027344v15.0625h-16.027344zm0 0"/><path d="m464.394531 400.757812h16.027344v15.0625h-16.027344zm0 0"/></g></g><g transform="matrix(0.1171877309679985 0 0 0.1171877309679985 276 24)" id="L1_17"><path d="M418.071,297.743h-40.208H93.929c-31.846,0-57.754,25.909-57.754,57.755s25.909,57.754,57.754,57.754h33.852     l-4.369,3.549c-5.031,4.088-7.295,10.561-5.909,16.892c1.386,6.332,6.147,11.268,12.426,12.879l2.269,0.583l-11.198,43.629     c-1.373,5.35,1.851,10.799,7.2,12.172l34.009,8.729c0.819,0.211,1.654,0.314,2.486,0.314c1.776,0,3.537-0.474,5.091-1.393     c2.283-1.351,3.936-3.553,4.595-6.121l11.199-43.631l2.269,0.583c6.279,1.611,12.828-0.421,17.092-5.304     c4.264-4.882,5.396-11.645,2.956-17.649l-10.257-25.233h180.223h40.208v0.001c31.846,0,57.754-25.908,57.754-57.754     S449.915,297.743,418.071,297.743z M134.364,438.712l-0.004,0.015c0.002-0.006,0.003-0.013,0.005-0.019     C134.364,438.71,134.364,438.711,134.364,438.712z M182.116,439.318c-2.921-0.752-5.959-0.32-8.556,1.216     c-2.596,1.535-4.438,3.989-5.186,6.907l-10.879,42.387l-14.638-3.758l10.878-42.382c0.751-2.922,0.319-5.961-1.218-8.558     c-1.537-2.596-3.992-4.438-6.906-5.182l-5.064-1.301l18.953-15.396l12.441-10.106l4.108,10.106l11.123,27.364L182.116,439.318z      M367.862,393.252H189.51l-4.126-10.15c-1.194-2.936-3.708-5.133-6.778-5.92c-3.072-0.79-6.332-0.075-8.792,1.924L152.4,393.252     H93.929c-20.818,0-37.754-16.937-37.754-37.754c0-20.818,16.937-37.755,37.754-37.755h273.934V393.252z M418.071,393.252h-30.208     v-75.509h30.208c20.818,0,37.754,16.937,37.754,37.755C455.824,376.315,438.887,393.252,418.071,393.252z"/><path d="M423.868,332.589c-3.425-4.332-9.714-5.069-14.046-1.642c-4.333,3.425-5.067,9.714-1.642,14.046l6.735,8.519     l-6.735,8.519c-3.425,4.332-2.69,10.621,1.642,14.046c1.836,1.452,4.023,2.156,6.195,2.156c2.953-0.001,5.877-1.302,7.851-3.798     l11.64-14.721c2.875-3.635,2.875-8.77,0-12.404L423.868,332.589z"/><path d="M96.979,359.319c0.25,0.61,0.56,1.19,0.92,1.73c0.37,0.55,0.79,1.06,1.25,1.52c0.46,0.461,0.97,0.881,1.52,1.24     c0.54,0.36,1.12,0.67,1.72,0.92c0.61,0.25,1.23,0.44,1.87,0.57c0.65,0.13,1.3,0.2,1.96,0.2c0.65,0,1.3-0.07,1.95-0.2     c0.64-0.13,1.27-0.32,1.87-0.57c0.6-0.25,1.19-0.56,1.73-0.92c0.54-0.359,1.06-0.779,1.52-1.24c0.46-0.46,0.88-0.97,1.24-1.52     c0.36-0.54,0.67-1.12,0.92-1.73c0.25-0.6,0.44-1.229,0.57-1.869c0.13-0.641,0.2-1.301,0.2-1.95c0-0.65-0.07-1.311-0.2-1.96     c-0.13-0.63-0.32-1.26-0.57-1.87c-0.25-0.601-0.56-1.18-0.92-1.72c-0.36-0.551-0.78-1.061-1.24-1.521     c-0.46-0.46-0.98-0.88-1.52-1.25c-0.54-0.36-1.13-0.67-1.73-0.92c-0.6-0.25-1.23-0.44-1.87-0.57c-3.25-0.649-6.7,0.41-9.02,2.74     c-0.46,0.46-0.88,0.97-1.25,1.521c-0.36,0.54-0.67,1.119-0.92,1.72c-0.25,0.61-0.44,1.24-0.57,1.87     c-0.13,0.649-0.19,1.31-0.19,1.96c0,0.649,0.06,1.31,0.19,1.95S96.729,358.72,96.979,359.319z"/><path d="M150.16,359.319c0.25,0.61,0.56,1.19,0.92,1.73c0.37,0.55,0.79,1.06,1.25,1.52c0.46,0.461,0.97,0.881,1.52,1.24     c0.54,0.36,1.12,0.67,1.72,0.92c0.61,0.25,1.24,0.44,1.87,0.57c0.65,0.13,1.31,0.2,1.96,0.2s1.31-0.07,1.95-0.2     c0.64-0.13,1.27-0.32,1.87-0.57c0.61-0.25,1.19-0.56,1.73-0.92c0.55-0.359,1.06-0.779,1.52-1.24c0.46-0.46,0.88-0.97,1.24-1.52     c0.36-0.54,0.67-1.12,0.92-1.73c0.25-0.6,0.44-1.229,0.57-1.869c0.13-0.641,0.2-1.301,0.2-1.95c0-0.65-0.07-1.311-0.2-1.96     c-0.13-0.63-0.32-1.26-0.57-1.87c-0.25-0.601-0.56-1.18-0.92-1.72c-0.36-0.551-0.78-1.061-1.24-1.521     c-2.32-2.33-5.77-3.39-9.03-2.74c-0.63,0.13-1.26,0.32-1.87,0.57c-0.6,0.25-1.18,0.56-1.72,0.92c-0.55,0.37-1.06,0.79-1.52,1.25     c-0.46,0.46-0.88,0.97-1.25,1.521c-0.36,0.54-0.67,1.119-0.92,1.72c-0.25,0.61-0.44,1.24-0.57,1.87     c-0.13,0.649-0.19,1.31-0.19,1.96c0,0.649,0.06,1.31,0.19,1.95S149.91,358.72,150.16,359.319z"/><path d="M203.349,359.319c0.25,0.61,0.56,1.19,0.92,1.73c0.36,0.55,0.78,1.06,1.24,1.52c0.46,0.461,0.97,0.881,1.52,1.24     c0.54,0.36,1.12,0.67,1.73,0.92c0.6,0.25,1.23,0.44,1.87,0.57c0.64,0.13,1.3,0.2,1.95,0.2c0.65,0,1.31-0.07,1.95-0.2     s1.27-0.32,1.87-0.57c0.61-0.25,1.19-0.56,1.73-0.92c0.55-0.359,1.06-0.779,1.52-1.24c0.46-0.46,0.88-0.97,1.24-1.52     c0.36-0.54,0.67-1.12,0.92-1.73c0.25-0.6,0.44-1.229,0.57-1.869c0.13-0.641,0.2-1.301,0.2-1.95c0-0.65-0.07-1.311-0.2-1.96     c-0.12-0.63-0.32-1.26-0.57-1.87c-0.25-0.601-0.56-1.18-0.92-1.72c-0.36-0.551-0.78-1.061-1.24-1.521     c-2.32-2.33-5.78-3.39-9.02-2.74c-0.64,0.13-1.27,0.32-1.88,0.57c-0.6,0.25-1.18,0.56-1.72,0.92c-0.55,0.37-1.06,0.79-1.52,1.25     c-0.46,0.46-0.88,0.97-1.24,1.521c-0.36,0.54-0.67,1.119-0.92,1.72c-0.25,0.61-0.45,1.24-0.57,1.87     c-0.13,0.649-0.2,1.31-0.2,1.96c0,0.649,0.07,1.31,0.2,1.95C202.899,358.09,203.099,358.72,203.349,359.319z"/><path d="M256.53,359.319c0.25,0.61,0.56,1.19,0.92,1.73c0.36,0.55,0.78,1.06,1.24,1.52c0.46,0.461,0.97,0.881,1.52,1.24     c0.54,0.36,1.12,0.67,1.73,0.92c0.6,0.25,1.23,0.44,1.87,0.57c0.64,0.13,1.3,0.2,1.95,0.2s1.31-0.07,1.95-0.2     s1.27-0.32,1.87-0.57c0.61-0.25,1.19-0.56,1.73-0.92c0.55-0.359,1.06-0.779,1.52-1.24c0.46-0.46,0.88-0.97,1.24-1.52     c0.36-0.54,0.67-1.12,0.92-1.73c0.25-0.6,0.45-1.229,0.57-1.869c0.13-0.641,0.2-1.301,0.2-1.95c0-0.65-0.07-1.311-0.2-1.96     c-0.12-0.63-0.32-1.26-0.57-1.87c-0.25-0.601-0.56-1.18-0.92-1.72c-0.36-0.551-0.78-1.061-1.24-1.521     c-2.32-2.33-5.78-3.39-9.02-2.74c-0.64,0.13-1.27,0.32-1.87,0.57c-0.61,0.25-1.19,0.56-1.73,0.92c-0.55,0.37-1.06,0.79-1.52,1.25     c-0.46,0.46-0.88,0.97-1.24,1.521c-0.36,0.54-0.67,1.119-0.92,1.72c-0.25,0.61-0.44,1.24-0.57,1.87     c-0.13,0.649-0.2,1.31-0.2,1.96c0,0.649,0.07,1.31,0.2,1.95C256.09,358.09,256.28,358.72,256.53,359.319z"/><path d="M309.71,359.319c0.25,0.61,0.56,1.19,0.92,1.73c0.36,0.55,0.78,1.06,1.24,1.52c0.46,0.461,0.97,0.881,1.52,1.24     c0.54,0.36,1.12,0.67,1.73,0.92c0.6,0.25,1.23,0.44,1.87,0.57c0.64,0.13,1.3,0.2,1.95,0.2s1.31-0.07,1.96-0.2     c0.63-0.13,1.26-0.32,1.87-0.57c0.6-0.25,1.18-0.56,1.72-0.92c0.55-0.359,1.06-0.779,1.52-1.24c0.46-0.46,0.88-0.97,1.25-1.52     c0.36-0.54,0.67-1.12,0.92-1.73c0.25-0.6,0.44-1.229,0.57-1.869c0.13-0.641,0.19-1.301,0.19-1.95c0-0.65-0.06-1.311-0.19-1.96     c-0.13-0.63-0.32-1.26-0.57-1.87c-0.25-0.601-0.56-1.18-0.92-1.72c-0.37-0.551-0.79-1.061-1.25-1.521     c-0.46-0.46-0.97-0.88-1.52-1.25c-0.54-0.36-1.12-0.67-1.72-0.92c-0.61-0.25-1.24-0.44-1.87-0.57c-1.29-0.26-2.62-0.26-3.91,0     c-0.64,0.13-1.27,0.32-1.87,0.57c-0.61,0.25-1.19,0.56-1.73,0.92c-0.55,0.37-1.06,0.79-1.52,1.25     c-0.46,0.46-0.88,0.97-1.24,1.521c-0.36,0.54-0.67,1.119-0.92,1.72c-0.25,0.61-0.44,1.24-0.57,1.87     c-0.13,0.649-0.2,1.31-0.2,1.96c0,0.649,0.07,1.31,0.2,1.95S309.46,358.72,309.71,359.319z"/><path d="M168.259,252.763c0.245,0.233,0.498,0.459,0.768,0.668c22.963,17.766,50.111,27.821,78.925,29.321     c0.205,0.011,0.411,0.021,0.616,0.031c0.914,0.044,1.831,0.078,2.748,0.105c0.27,0.008,0.54,0.018,0.81,0.025     c1.131,0.026,2.263,0.043,3.399,0.043c1.142,0,2.281-0.017,3.419-0.043c0.26-0.006,0.518-0.016,0.777-0.024     c0.94-0.027,1.877-0.062,2.813-0.107c0.18-0.009,0.359-0.018,0.538-0.028c29.286-1.515,56.797-11.843,79.972-30.112     c0.318-0.251,0.617-0.522,0.899-0.806C376.267,225.885,397,186.061,397,141.479C397.001,63.467,333.535,0,255.525,0     S114.046,63.467,114.046,141.478C114.046,186.591,135.27,226.839,168.259,252.763z M268.515,262.259     c-0.62,0.065-1.241,0.125-1.863,0.181c-0.688,0.063-1.375,0.126-2.066,0.177c-1.199,0.087-2.401,0.157-3.607,0.209     c-0.413,0.019-0.826,0.033-1.24,0.047c-1.401,0.047-2.805,0.081-4.215,0.081c-1.392,0-2.778-0.033-4.162-0.079     c-0.408-0.014-0.815-0.029-1.221-0.046c-1.151-0.05-2.298-0.116-3.443-0.197c-0.666-0.048-1.33-0.106-1.993-0.165     c-0.718-0.063-1.435-0.131-2.151-0.206c-0.799-0.085-1.597-0.173-2.392-0.274c-0.141-0.018-0.281-0.039-0.422-0.057     c-20.159-2.627-38.78-10.213-54.596-21.493v-18.105c0-23.827,11.834-44.928,29.92-57.779     c11.304,8.834,25.509,14.119,40.934,14.119s29.631-5.284,40.934-14.119c18.086,12.851,29.92,33.952,29.92,57.779v17.412h0.001     C310.113,251.929,290.157,259.948,268.515,262.259z M255.525,20c66.983,0,121.478,54.494,121.478,121.478     c0,30.622-11.394,58.63-30.159,80.018c-0.265-29.199-14.371-55.15-36.064-71.597c7.453-10.756,11.835-23.793,11.835-37.841     c0-3.305-0.245-6.629-0.729-9.88c-0.813-5.462-5.897-9.231-11.363-8.419c-5.463,0.813-9.232,5.899-8.419,11.362     c0.339,2.279,0.511,4.613,0.511,6.937c0,10.303-3.366,19.832-9.048,27.557c-4.61,6.268-10.747,11.341-17.859,14.673     c-5.99,2.807-12.667,4.385-19.707,4.385c-7.04,0-13.717-1.578-19.707-4.385c-7.112-3.332-13.249-8.405-17.859-14.673     c-5.682-7.725-9.048-17.253-9.048-27.557c0-25.703,20.911-46.614,46.614-46.614c3.538,0,7.061,0.396,10.473,1.179     c5.389,1.239,10.749-2.129,11.982-7.513c1.234-5.383-2.129-10.747-7.512-11.981c-4.875-1.118-9.903-1.685-14.942-1.685     c-36.731,0-66.614,29.883-66.614,66.614c0,14.048,4.382,27.085,11.835,37.841c-21.901,16.604-36.075,42.893-36.075,72.433v0.222     c-19.326-21.518-31.101-49.946-31.101-81.076C134.046,74.494,188.541,20,255.525,20z"/><path d="M288.259,77.37c0.25,0.6,0.56,1.18,0.92,1.72c0.36,0.55,0.78,1.06,1.24,1.52c0.46,0.471,0.97,0.881,1.52,1.25     c0.54,0.36,1.12,0.671,1.73,0.921c0.6,0.25,1.23,0.439,1.87,0.569s1.3,0.19,1.95,0.19s1.31-0.061,1.95-0.19     c0.64-0.13,1.27-0.319,1.88-0.569c0.6-0.25,1.18-0.561,1.72-0.921c0.55-0.369,1.06-0.779,1.52-1.25     c0.46-0.46,0.88-0.97,1.24-1.52c0.36-0.54,0.67-1.12,0.92-1.72c0.25-0.61,0.45-1.23,0.57-1.87c0.13-0.65,0.2-1.3,0.2-1.96     c0-0.65-0.07-1.311-0.2-1.95c-0.12-0.64-0.32-1.271-0.57-1.87s-0.56-1.189-0.92-1.729c-0.36-0.551-0.78-1.061-1.24-1.521     c-0.46-0.46-0.97-0.88-1.52-1.24c-0.54-0.359-1.12-0.67-1.72-0.92c-0.61-0.25-1.24-0.439-1.88-0.569     c-1.29-0.261-2.61-0.261-3.9,0c-0.64,0.13-1.27,0.319-1.87,0.569c-0.61,0.25-1.19,0.561-1.73,0.92     c-0.55,0.36-1.06,0.78-1.52,1.24c-0.46,0.46-0.88,0.97-1.24,1.521c-0.36,0.54-0.67,1.13-0.92,1.729s-0.44,1.23-0.57,1.87     c-0.13,0.64-0.2,1.3-0.2,1.95c0,0.66,0.07,1.31,0.2,1.96C287.819,76.14,288.009,76.76,288.259,77.37z"/></g><g transform="matrix(0.1171875 0 0 0.1171875 256 114)" id="L1_18"><path d="M308.127,64c-11.046,0-20,8.954-20,20v5c0,52.467-42.533,95-95,95H145c-52.467,0-95-42.533-95-95v-5  c0-11.046-8.954-20-20-20s-20,8.954-20,20v5c0,61.588,41.456,113.674,97.928,129.823v110.708h120V219.453  C285.557,204.066,328.127,151.411,328.127,89v-5C328.127,72.954,319.173,64,308.127,64z" fill="#72d8ff"/><rect x="119px" y="329px" width="96px" height="172px" fill="#5a54e0"/><g><path d="M167.668,100.61L167.668,100.61c-21.1,0-38.204,17.105-38.204,38.204v6.946   c0,21.1,17.105,38.204,38.204,38.204l0,0c21.1,0,38.204-17.105,38.204-38.204v-6.946   C205.872,117.714,188.767,100.61,167.668,100.61z" fill="#fcc69d"/><path d="M341.541,273.079L341.541,273.079c-21.1,0-38.204,17.105-38.204,38.204v6.946   c0,21.1,17.105,38.204,38.204,38.204l0,0c21.1,0,38.204-17.105,38.204-38.204v-6.946   C379.745,290.184,362.64,273.079,341.541,273.079z" fill="#fcc69d"/></g><path d="M482,236.469c-11.046,0-20,8.954-20,20v5c0,52.467-42.533,95-95,95h-48.127  c-52.467,0-95-42.533-95-95v-5c0-11.046-8.954-20-20-20s-20,8.954-20,20v5c0,61.588,41.456,113.674,97.928,129.823V502h120V391.922  C459.43,376.535,502,323.88,502,261.469v-5C502,245.424,493.046,236.469,482,236.469z" fill="#a0e557"/><path d="M309.126,158.729c-4.505-3.195-10.747-2.137-13.943,2.368l-0.194,0.273c-3.196,4.504-2.136,10.746,2.368,13.942  c1.757,1.246,3.777,1.846,5.779,1.846c3.131,0,6.214-1.466,8.164-4.214l0.194-0.273C314.69,168.167,313.63,161.925,309.126,158.729z  "/><path d="M272.271,185.68c-13.893,11.396-29.68,19.508-46.923,24.112c-5.336,1.425-8.507,6.905-7.082,12.241  c1.194,4.472,5.236,7.423,9.655,7.423c0.854,0,1.722-0.11,2.586-0.342c20.017-5.345,38.335-14.756,54.447-27.972  c4.271-3.502,4.893-9.804,1.39-14.073C282.842,182.798,276.541,182.177,272.271,185.68z"/><path d="M482,226.47c-16.542,0-30,13.458-30,29.999v5.001c0,41.937-30.535,76.854-70.535,83.743  c5.224-7.705,8.28-16.994,8.28-26.984v-6.946c0-26.58-21.625-48.204-48.205-48.204c-26.58,0-48.204,21.624-48.204,48.204v6.946  c0,9.736,2.91,18.8,7.893,26.387c-38.429-8.146-67.357-42.326-67.357-83.146v-5.001c0-16.541-13.458-29.999-30-29.999  s-30,13.458-30,29.999v5.001c0,20.297,4.13,39.926,12.098,58.061h-66.217h-1.826V218.823c0-4.464-2.958-8.388-7.25-9.614  C57.288,193.94,20,144.509,20,89v-5c0-5.514,4.486-10,10-10s10,4.486,10,10v5c0,57.897,47.103,105,105,105h48.127  c57.897,0,105-47.103,105-105v-5c0-5.514,4.486-10,10-10s10,4.486,10,10v5c0,15.371-2.769,30.386-8.231,44.625  c-1.978,5.156,0.599,10.94,5.756,12.918c5.154,1.979,10.94-0.6,12.918-5.756c6.342-16.534,9.557-33.958,9.557-51.787v-5  c0-16.542-13.458-30-30-30s-30,13.458-30,30v5c0,41.936-30.535,76.853-70.534,83.743c5.224-7.705,8.279-16.993,8.279-26.982v-6.946  c0-26.58-21.625-48.205-48.205-48.205s-48.204,21.625-48.204,48.205v6.946c0,9.735,2.91,18.799,7.893,26.385  C88.927,164,60,129.82,60,89v-5c0-16.542-13.458-30-30-30S0,67.458,0,84v5c0,32.106,10.322,62.548,29.849,88.033  c17.344,22.635,41.309,39.875,68.079,49.118V329.53c0,5.522,4.477,10,10,10h1.826V502c0,5.522,4.477,10,10,10s10-4.478,10-10V339.53  h66.96c2.186,3.399,4.521,6.726,7.008,9.972c0.662,0.864,1.351,1.704,2.032,2.552V502c0,5.522,4.477,10,10,10s10-4.478,10-10V372.49  c13.625,11.419,29.286,20.342,46.047,26.13V502c0,5.522,4.477,10,10,10s10-4.478,10-10V391.292c0-4.464-2.958-8.388-7.25-9.614  c-53.39-15.269-90.678-64.699-90.678-120.208v-5.001c0-5.514,4.486-9.999,10-9.999s10,4.485,10,9.999v5.001  c0,57.897,47.103,105,105,105H367c57.897,0,105-47.103,105-105v-5.001c0-5.514,4.486-9.999,10-9.999s10,4.485,10,9.999v5.001  c0,56.534-38.152,106.205-92.778,120.791c-4.376,1.168-7.42,5.132-7.42,9.661v72.411c0,5.522,4.477,10,10,10s10-4.478,10-10V399.39  C471.176,380.101,512,324.459,512,261.47v-5.001C512,239.928,498.542,226.47,482,226.47z M139.463,138.814  c0-15.553,12.652-28.205,28.204-28.205s28.205,12.652,28.205,28.205v6.946c0,15.552-12.652,28.204-28.205,28.204  c-15.552,0-28.204-12.652-28.204-28.204V138.814z M313.336,311.283c0-15.552,12.652-28.204,28.204-28.204  s28.205,12.652,28.205,28.204v6.946c0,15.552-12.652,28.204-28.205,28.204c-15.552,0-28.204-12.652-28.204-28.204V311.283z"/><path d="M401.8,492c-2.63,0-5.21,1.069-7.07,2.93c-1.86,1.86-2.93,4.44-2.93,7.07s1.07,5.21,2.93,7.069  c1.86,1.86,4.44,2.931,7.07,2.931s5.21-1.07,7.07-2.931c1.86-1.859,2.93-4.439,2.93-7.069s-1.07-5.21-2.93-7.07  C407.01,493.069,404.43,492,401.8,492z"/><path d="M167.667,374c-5.523,0-10,4.478-10,10v118c0,5.522,4.477,10,10,10s10-4.478,10-10V384  C177.667,378.478,173.19,374,167.667,374z"/><path d="M466,114.43c5.523,0,10-4.478,10-10V92c0-5.522-4.477-10-10-10s-10,4.478-10,10v12.43  C456,109.952,460.477,114.43,466,114.43z"/><path d="M466,174c5.523,0,10-4.478,10-10v-12.43c0-5.522-4.477-10-10-10s-10,4.478-10,10V164C456,169.522,460.477,174,466,174z"/><path d="M489.57,138H502c5.523,0,10-4.478,10-10s-4.477-10-10-10h-12.43c-5.523,0-10,4.478-10,10S484.047,138,489.57,138z"/><path d="M430,138h12.43c5.523,0,10-4.478,10-10s-4.477-10-10-10H430c-5.523,0-10,4.478-10,10S424.477,138,430,138z"/><path d="M219.873,32.43c5.523,0,10-4.478,10-10V10c0-5.522-4.477-10-10-10s-10,4.478-10,10v12.43  C209.873,27.952,214.35,32.43,219.873,32.43z"/><path d="M219.873,92c5.523,0,10-4.478,10-10V69.57c0-5.522-4.477-10-10-10s-10,4.478-10,10V82C209.873,87.522,214.35,92,219.873,92z  "/><path d="M243.443,56h12.43c5.523,0,10-4.478,10-10s-4.477-10-10-10h-12.43c-5.523,0-10,4.478-10,10S237.92,56,243.443,56z"/><path d="M183.873,56h12.43c5.523,0,10-4.478,10-10s-4.477-10-10-10h-12.43c-5.523,0-10,4.478-10,10S178.35,56,183.873,56z"/></g><g transform="matrix(0.11717994511127472 0 0 0.11717994511127472 62 236)" id="L1_19"><path d="M256.017,160.002c-4.422,0-8-3.582-8-8c0-50.566-7.742-117.113-29.562-138.254     c-3.18-3.074-3.258-8.141-0.18-11.312c3.063-3.184,8.148-3.25,11.305-0.18c31.953,30.953,34.437,122.441,34.437,149.746     C264.017,156.42,260.439,160.002,256.017,160.002z" fill="#7e5c62"/><path d="M368.407,128.092c-28.422-4.332-50.734,2.18-70.406,7.918c-14.07,4.109-27.359,7.992-41.984,7.992    s-27.914-3.883-41.984-7.992c-19.68-5.742-42-12.238-70.406-7.918C96.142,135.334,39.54,162.92,39.54,253.213    c0,85.32,28.312,202.008,108.109,250.078c21.016,12.656,45.125,8.938,70.656,5.023c12.375-1.906,25.172-3.875,37.711-3.875    s25.336,1.969,37.711,3.875c12.25,1.883,24.18,3.719,35.594,3.719c12.367,0,24.141-2.156,35.063-8.742    c79.797-48.07,108.109-164.758,108.109-250.078C472.493,162.92,415.892,135.334,368.407,128.092z" fill="#ff4f19"/><path d="M256.02,144.002h-0.003c-14.625,0-27.914-3.883-41.984-7.992c-19.68-5.742-42-12.238-70.406-7.918    C96.142,135.334,39.54,162.92,39.54,253.213c0,85.32,28.312,202.008,108.109,250.078c21.016,12.656,45.125,8.938,70.656,5.023    c12.375-1.906,25.172-3.875,37.711-3.875h0.003V144.002H256.02z" fill="#e3001e"/><path d="M367.73,21.908c0.946-7.382,0.837-14.378-0.021-20.999c-6.62-0.858-13.617-0.967-20.999-0.021    c-47.93,6.139-91.762,49.971-97.901,97.901c-0.945,7.382-0.837,14.378,0.022,20.998c6.62,0.858,13.617,0.966,20.998,0.021    C317.759,113.669,361.591,69.837,367.73,21.908z" fill="#60dc4d"/><circle cx="383" cy="216" r="40" fill="#ff8c62"/><path d="M367.065,0.866c-6.434-0.785-13.205-0.893-20.354,0.022c-47.93,6.139-91.762,49.97-97.901,97.901    c-0.916,7.149-0.807,13.919-0.022,20.354L367.065,0.866z" fill="#00c37a"/></g><g transform="matrix(0.1171875 0 0 0.1171875 176 42)" id="L1_20"><path d="M377.078,458.898c-17.828,0-37.922-3.766-59.703-11.344     c-50.266-17.484-104.203-53.367-151.883-101.047S81.93,244.891,64.445,194.625C46.289,142.422,50.031,99.937,74.984,74.984     c24.945-24.945,67.43-28.703,119.641-10.539c50.266,17.484,104.203,53.367,151.883,101.047s83.562,101.617,101.047,151.883     c18.156,52.203,14.414,94.687-10.539,119.641l0,0l0,0C422.476,451.555,401.984,458.898,377.078,458.898z M134.906,69.055     c-20.539,0-37.141,5.773-48.609,17.242c-20.383,20.375-22.773,56.984-6.742,103.07c16.711,48.031,51.242,99.82,97.25,145.828     s97.797,80.539,145.828,97.25c46.094,16.023,82.687,13.633,103.07-6.742l0,0c20.383-20.375,22.773-56.984,6.742-103.07     c-16.711-48.031-51.242-99.82-97.25-145.828s-97.797-80.539-145.828-97.25C169.211,72.547,150.867,69.055,134.906,69.055z" fill="#ffcd00"/><path d="M134.922,458.898c-24.906,0-45.398-7.344-59.937-21.883     c-24.953-24.953-28.695-67.437-10.539-119.641c17.484-50.266,53.367-104.203,101.047-151.883S267.109,81.93,317.375,64.445     c52.211-18.164,94.695-14.406,119.641,10.539l0,0l0,0c24.953,24.953,28.695,67.437,10.539,119.641     c-17.484,50.266-53.367,104.203-101.047,151.883S244.891,430.07,194.625,447.555C172.844,455.133,152.75,458.898,134.922,458.898     z M377.094,69.055c-15.969,0-34.305,3.492-54.461,10.5c-48.031,16.711-99.82,51.242-145.828,97.25s-80.539,97.797-97.25,145.828     c-16.031,46.086-13.641,82.695,6.742,103.07c20.375,20.391,56.992,22.766,103.07,6.742c48.031-16.711,99.82-51.242,145.828-97.25     s80.539-97.797,97.25-145.828c16.031-46.086,13.641-82.695-6.742-103.07l0,0C414.234,74.828,397.633,69.055,377.094,69.055z" fill="#ff9100"/><path d="M256,512c-71.773,0-128-112.445-128-256S184.227,0,256,0s128,112.445,128,256S327.773,512,256,512     z M256,16c-60.711,0-112,109.906-112,240s51.289,240,112,240s112-109.906,112-240S316.711,16,256,16z" fill="#ff4f19"/><circle cx="255" cy="256" r="55" fill="#ff4f19"/><circle cx="269" cy="242" r="19" fill="#ff8c62"/><path d="M256,384C112.445,384,0,327.773,0,256s112.445-128,256-128s256,56.227,256,128     S399.555,384,256,384z M256,144c-130.094,0-240,51.289-240,112s109.906,112,240,112s240-51.289,240-112S386.094,144,256,144z" fill="#e3001e"/></g><g transform="matrix(0.1171875 0 0 0.1171875 189.00000223159805 226)" id="L1_21"><path d="M335.921,88.801c-4.204,0-7.612,3.407-7.612,7.611c0,46.166-37.559,83.726-83.726,83.726h-45.669  v15.223h45.669c54.561,0,98.949-44.388,98.949-98.949C343.532,92.208,340.124,88.801,335.921,88.801z" fill="#a45e43"/><path d="M160.856,289.237v199.515l-25.24,8.413c-3.988,1.329-6.143,5.64-4.815,9.628  c1.329,3.988,5.642,6.144,9.628,4.815l30.444-10.149c3.108-1.036,5.204-3.945,5.204-7.221V289.237H160.856z" fill="#4f4f4f"/><path d="M236.971,289.237v199.515l25.24,8.413c3.988,1.329,6.143,5.64,4.815,9.628  c-1.329,3.988-5.642,6.144-9.628,4.815l-30.444-10.149c-3.108-1.036-5.204-3.945-5.204-7.221V289.237H236.971z" fill="#353535"/><path d="M244.583,258.791h-30.446l15.223,106.561h30.446v-66.306  C259.806,283.608,254.051,269.523,244.583,258.791z" fill="#ffa754"/><path d="M214.137,258.791h-60.892c-9.468,10.732-15.223,24.818-15.223,40.255v66.306h91.338v-66.306  C229.36,283.608,223.605,269.523,214.137,258.791z" fill="#ffcb63"/><path d="M267.417,68.503c0-5.098-2.515-9.599-6.361-12.361c2.497-4.025,3.097-9.145,1.147-13.854  s-5.996-7.906-10.607-8.986c0.766-4.673-0.638-9.634-4.242-13.238c-3.605-3.605-8.564-5.009-13.238-4.242  c-1.081-4.611-4.277-8.657-8.986-10.607c-4.709-1.951-9.83-1.35-13.854,1.147C208.512,2.515,204.012,0,198.914,0  s-9.599,2.515-12.361,6.361c-4.025-2.497-9.145-3.097-13.854-1.147c-4.709,1.951-7.906,5.996-8.986,10.607  c-4.673-0.766-9.634,0.638-13.238,4.242c-3.605,3.605-5.009,8.564-4.242,13.238c-4.611,1.081-8.657,4.277-10.607,8.986  c-1.951,4.709-1.35,9.83,1.147,13.854c-3.846,2.762-6.361,7.263-6.361,12.361c0,5.098,2.515,9.599,6.361,12.361  c-2.497,4.025-3.097,9.145-1.147,13.854c1.951,4.709,5.996,7.906,10.607,8.986c-0.766,4.673,0.638,9.634,4.242,13.238  c3.748,3.748,8.964,5.133,13.798,4.155h69.283c4.833,0.978,10.049-0.407,13.798-4.155c3.605-3.605,5.009-8.564,4.242-13.238  c4.611-1.081,8.657-4.277,10.607-8.986c1.951-4.709,1.35-9.83-1.147-13.854C264.903,78.102,267.417,73.601,267.417,68.503z" fill="#40211d"/><path d="M198.914,45.669v91.338c25.222,0,45.669-20.447,45.669-45.669S224.136,45.669,198.914,45.669z" fill="#a45e43"/><path d="M214.137,91.338c0-25.222-6.816-45.669-15.223-45.669c-25.222,0-45.669,20.447-45.669,45.669  s20.447,45.669,45.669,45.669C207.321,137.007,214.137,116.56,214.137,91.338z" fill="#c27749"/><path d="M224.286,167.453H193.84v106.561h50.743V187.75C244.583,176.54,235.496,167.453,224.286,167.453z" fill="#353535"/><path d="M193.84,167.453h-20.297c-11.21,0-20.297,9.087-20.297,20.297v86.264h60.892V187.75  C214.137,176.54,205.05,167.453,193.84,167.453z" fill="#4f4f4f"/><path d="M300.401,289.237 285.178,274.014 300.401,258.791 346.07,258.791 346.07,289.237z" fill="#49c9ff"/><rect x="160px" y="258px" width="139px" height="30px" fill="#c27749"/><path d="M172.242,309.534h21.597c11.164,0,20.297-9.134,20.297-20.297v-15.223l-91.338-45.669l-60.892,45.669  c0,33.63,27.262,60.892,60.892,60.892C143.168,334.906,161.188,324.894,172.242,309.534z" fill="#2dade3"/><path d="M214.137,258.791c0-11.164-9.134-20.297-20.297-20.297h-21.597  c-11.054-15.36-29.075-25.372-49.443-25.372c-33.63,0-60.892,27.262-60.892,60.892h152.23V258.791z" fill="#49c9ff"/><g><path d="M183.691,286.7c-4.204,0-7.611-3.407-7.611-7.611V268.94c0-4.205,3.408-7.611,7.611-7.611   c4.204,0,7.611,3.407,7.611,7.611v10.149C191.302,283.293,187.895,286.7,183.691,286.7z" fill="#084f6d"/><path d="M153.245,286.7c-4.204,0-7.611-3.407-7.611-7.611V268.94c0-4.205,3.408-7.611,7.611-7.611   c4.204,0,7.611,3.407,7.611,7.611v10.149C160.856,283.293,157.449,286.7,153.245,286.7z" fill="#084f6d"/></g><path d="M122.799,235.956c-4.204,0-7.611-3.407-7.611-7.611v-30.446c0-4.205,3.408-7.611,7.611-7.611  c4.204,0,7.612,3.407,7.612,7.611v30.446C130.41,232.549,127.003,235.956,122.799,235.956z" fill="#c27749"/><path d="M373.978,137.007v367.382c0,4.205,3.408,7.611,7.612,7.611c4.204,0,7.611-3.407,7.611-7.611V137.007  H373.978z" fill="#696969"/><path d="M381.59,96.412c-8.407,0-15.223,6.816-15.223,15.223v30.446c0,8.407,6.816,15.223,15.223,15.223  c8.407,0,15.223-6.816,15.223-15.223v-30.446C396.813,103.228,389.997,96.412,381.59,96.412z" fill="#b3b3b3"/><path d="M442.482,512c-1.948,0-3.896-0.743-5.382-2.229l-55.51-55.511l-55.51,55.51  c-2.973,2.972-7.792,2.972-10.764,0c-2.973-2.974-2.973-7.792,0-10.765l60.892-60.892c2.973-2.972,7.792-2.972,10.764,0  l60.892,60.892c2.973,2.974,2.973,7.792,0,10.765C446.378,511.257,444.429,512,442.482,512z" fill="#696969"/><path d="M391.738,235.956h-20.297c-4.204,0-7.611-3.407-7.611-7.611c0-4.205,3.408-7.612,7.611-7.612h20.297  c4.204,0,7.612,3.407,7.612,7.612C399.35,232.549,395.942,235.956,391.738,235.956z" fill="#4f4f4f"/></g><g transform="matrix(0.1015591248869896 0 0 0.1015591248869896 298 217)" id="L1_24"><path d="M 41.1875 234.5625 L 153.210938 591 L 265.234375 234.5625 Z M 41.1875 234.5625 " fill="#f2a32c" fill-opacity="1" stroke="none"/><path d="M 41.1875 234.5625 L 153.210938 591 L 198.019531 448.300781 C 225.25 361.65625 177.082031 269.347656 90.445312 242.128906 C 74.496094 237.117188 57.886719 234.5625 41.1875 234.5625 Z M 41.1875 234.5625 " fill="#fab349" fill-opacity="1" stroke="none"/><path d="M 291.3125 178.03125 C 310.878906 101.753906 264.90625 24.070312 188.628906 4.503906 C 112.351562 -15.058594 34.667969 30.902344 15.105469 107.179688 C 9.148438 130.421875 9.148438 154.789062 15.105469 178.03125 C 0.714844 186.769531 -3.859375 205.515625 4.878906 219.90625 C 10.417969 229.03125 20.328125 234.59375 31.003906 234.5625 L 275.417969 234.5625 C 292.25 234.601562 305.929688 220.988281 305.96875 204.152344 C 305.988281 193.480469 300.429688 183.570312 291.3125 178.03125 Z M 291.3125 178.03125 " fill="#995c32" fill-opacity="1" stroke="none"/><path d="M 291.3125 178.03125 C 310.824219 101.863281 264.90625 24.304688 188.75 4.789062 C 167.109375 -0.75 144.472656 -1.125 122.65625 3.691406 C 199.40625 20.351562 248.105469 96.082031 231.441406 172.828125 C 231.066406 174.566406 230.648438 176.296875 230.210938 178.03125 C 244.601562 186.769531 249.171875 205.515625 240.433594 219.90625 C 234.894531 229.03125 224.984375 234.59375 214.3125 234.5625 L 275.417969 234.5625 C 292.25 234.601562 305.925781 220.988281 305.96875 204.152344 C 305.988281 193.480469 300.429688 183.570312 291.3125 178.03125 Z M 291.3125 178.03125 " fill="#8a532d" fill-opacity="1" stroke="none"/></g><g transform="matrix(0.10161586105823517 0 0 0.10161586105823517 60.000000025404006 141)" id="L1_25"><path d="M 86.867188 102.367188 L 83.226562 93.882812 C 71.433594 66.386719 39.597656 53.648438 12.097656 65.429688 C 11.121094 65.847656 10.15625 66.292969 9.210938 66.773438 L 0.117188 48.574219 C 36.917969 30.164062 81.667969 45.074219 100.082031 81.867188 C 100.742188 83.179688 101.351562 84.511719 101.933594 85.867188 L 105.5625 94.359375 Z M 86.867188 102.367188 " fill="#995c32" fill-opacity="1" stroke="none"/><path d="M 197.929688 590 L 14.824219 590 C 14.824219 567.53125 33.042969 549.3125 55.515625 549.3125 L 157.242188 549.3125 C 179.722656 549.3125 197.929688 567.53125 197.929688 590 Z M 197.929688 590 " fill="#f0ece9" fill-opacity="1" stroke="none"/><path d="M 86.035156 455.640625 L 86.035156 549.308594 L 126.722656 549.308594 L 126.722656 455.640625 C 113.316406 458.460938 99.449219 458.460938 86.035156 455.640625 Z M 86.035156 455.640625 " fill="#f0ece9" fill-opacity="1" stroke="none"/><path d="M 86.035156 455.640625 L 86.035156 488.273438 L 126.722656 488.273438 L 126.722656 455.640625 C 120.152344 456.101562 113.375 456.386719 106.378906 456.386719 C 99.378906 456.386719 92.605469 456.101562 86.035156 455.640625 Z M 86.035156 455.640625 " fill="#ded7d3" fill-opacity="1" stroke="none"/><path d="M 208.101562 152.585938 L 4.652344 152.585938 C 11.234375 172.363281 15.417969 192.847656 17.085938 213.621094 L 195.671875 213.621094 C 197.351562 192.847656 201.519531 172.359375 208.101562 152.585938 Z M 208.101562 152.585938 " fill="#f0ece9" fill-opacity="1" stroke="none"/><path d="M 208.375 337.347656 L 198.335938 277.078125 C 194.847656 256.109375 193.953125 234.800781 195.671875 213.621094 L 17.09375 213.621094 C 18.8125 234.800781 17.917969 256.109375 14.429688 277.078125 L 4.390625 337.347656 C -4.988281 393.683594 33.074219 446.945312 89.410156 456.324219 C 145.746094 465.703125 199.007812 427.636719 208.386719 371.304688 C 210.257812 360.0625 210.257812 348.585938 208.375 337.347656 Z M 208.375 337.347656 " fill="#fab349" fill-opacity="1" stroke="none"/><path d="M 299.652344 142.414062 L 116.550781 40.6875 L 258.964844 0 Z M 299.652344 142.414062 " fill="#ed5a2d" fill-opacity="1" stroke="none"/><path d="M 136.894531 122.070312 C 136.894531 138.921875 123.230469 152.585938 106.378906 152.585938 C 89.523438 152.585938 75.859375 138.921875 75.859375 122.070312 C 75.859375 105.214844 89.523438 91.550781 106.378906 91.550781 C 123.230469 91.550781 136.894531 105.214844 136.894531 122.070312 Z M 136.894531 122.070312 " fill="#ed3124" fill-opacity="1" stroke="none"/><path d="M 188.195312 152.585938 L 217.15625 96.199219 L 199.046875 86.902344 L 165.328125 152.585938 Z M 188.195312 152.585938 " fill="#995c32" fill-opacity="1" stroke="none"/><path d="M 195.671875 213.621094 C 197.339844 192.847656 201.519531 172.363281 208.101562 152.585938 L 165.703125 152.585938 C 159.121094 172.363281 154.941406 192.847656 153.273438 213.621094 Z M 195.671875 213.621094 " fill="#ded7d3" fill-opacity="1" stroke="none"/><path d="M 208.375 337.347656 L 198.335938 277.078125 C 194.847656 256.109375 193.953125 234.800781 195.671875 213.621094 L 153.273438 213.621094 C 151.554688 234.800781 152.449219 256.109375 155.9375 277.078125 L 165.976562 337.347656 C 175.074219 392.023438 139.429688 444.148438 85.179688 455.5 C 140.914062 467.363281 195.710938 431.789062 207.5625 376.042969 C 210.277344 363.316406 210.554688 350.1875 208.375 337.347656 Z M 208.375 337.347656 " fill="#f2a32c" fill-opacity="1" stroke="none"/><path d="M 258.964844 0 L 256.757812 0.628906 L 238.191406 108.265625 L 299.652344 142.414062 Z M 258.964844 0 " fill="#e04e2d" fill-opacity="1" stroke="none"/></g></defs><g fi:class="KUsePattern"><pattern id="pattern_L1_9" width="350" height="350" patternUnits="userSpaceOnUse"><use xlink:href="#L1_9" x="-350" y="-350"/><use xlink:href="#L1_9" x="0" y="-350"/><use xlink:href="#L1_9" x="350" y="-350"/><use xlink:href="#L1_9" x="-350" y="0"/><use xlink:href="#L1_9" x="0" y="0"/><use xlink:href="#L1_9" x="350" y="0"/><use xlink:href="#L1_9" x="-350" y="350"/><use xlink:href="#L1_9" x="0" y="350"/><use xlink:href="#L1_9" x="350" y="350"/></pattern><rect x="0" y="0" width="100%" height="100%" fill="url(#pattern_L1_9)"/></g><g fi:class="KUsePattern"><pattern id="pattern_L1_10" width="350" height="350" patternUnits="userSpaceOnUse"><use xlink:href="#L1_10" x="-350" y="-350"/><use xlink:href="#L1_10" x="0" y="-350"/><use xlink:href="#L1_10" x="350" y="-350"/><use xlink:href="#L1_10" x="-350" y="0"/><use xlink:href="#L1_10" x="0" y="0"/><use xlink:href="#L1_10" x="350" y="0"/><use xlink:href="#L1_10" x="-350" y="350"/><use xlink:href="#L1_10" x="0" y="350"/><use xlink:href="#L1_10" x="350" y="350"/></pattern><rect x="0" y="0" width="100%" height="100%" fill="url(#pattern_L1_10)"/></g><g fi:class="KUsePattern"><pattern id="pattern_L1_22" width="350" height="350" patternUnits="userSpaceOnUse"><use xlink:href="#L1_22" x="-350" y="-350"/><use xlink:href="#L1_22" x="0" y="-350"/><use xlink:href="#L1_22" x="350" y="-350"/><use xlink:href="#L1_22" x="-350" y="0"/><use xlink:href="#L1_22" x="0" y="0"/><use xlink:href="#L1_22" x="350" y="0"/><use xlink:href="#L1_22" x="-350" y="350"/><use xlink:href="#L1_22" x="0" y="350"/><use xlink:href="#L1_22" x="350" y="350"/></pattern><rect x="0" y="0" width="100%" height="100%" fill="url(#pattern_L1_22)"/></g><g fi:class="KUsePattern"><pattern id="pattern_L1_12" width="350" height="350" patternUnits="userSpaceOnUse"><use xlink:href="#L1_12" x="-350" y="-350"/><use xlink:href="#L1_12" x="0" y="-350"/><use xlink:href="#L1_12" x="350" y="-350"/><use xlink:href="#L1_12" x="-350" y="0"/><use xlink:href="#L1_12" x="0" y="0"/><use xlink:href="#L1_12" x="350" y="0"/><use xlink:href="#L1_12" x="-350" y="350"/><use xlink:href="#L1_12" x="0" y="350"/><use xlink:href="#L1_12" x="350" y="350"/></pattern><rect x="0" y="0" width="100%" height="100%" fill="url(#pattern_L1_12)"/></g><g fi:class="KUsePattern"><pattern id="pattern_L1_13" width="350" height="350" patternUnits="userSpaceOnUse"><use xlink:href="#L1_13" x="-350" y="-350"/><use xlink:href="#L1_13" x="0" y="-350"/><use xlink:href="#L1_13" x="350" y="-350"/><use xlink:href="#L1_13" x="-350" y="0"/><use xlink:href="#L1_13" x="0" y="0"/><use xlink:href="#L1_13" x="350" y="0"/><use xlink:href="#L1_13" x="-350" y="350"/><use xlink:href="#L1_13" x="0" y="350"/><use xlink:href="#L1_13" x="350" y="350"/></pattern><rect x="0" y="0" width="100%" height="100%" fill="url(#pattern_L1_13)"/></g><g fi:class="KUsePattern"><pattern id="pattern_L1_14" width="350" height="350" patternUnits="userSpaceOnUse"><use xlink:href="#L1_14" x="-350" y="-350"/><use xlink:href="#L1_14" x="0" y="-350"/><use xlink:href="#L1_14" x="350" y="-350"/><use xlink:href="#L1_14" x="-350" y="0"/><use xlink:href="#L1_14" x="0" y="0"/><use xlink:href="#L1_14" x="350" y="0"/><use xlink:href="#L1_14" x="-350" y="350"/><use xlink:href="#L1_14" x="0" y="350"/><use xlink:href="#L1_14" x="350" y="350"/></pattern><rect x="0" y="0" width="100%" height="100%" fill="url(#pattern_L1_14)"/></g><g fi:class="KUsePattern"><pattern id="pattern_L1_17" width="350" height="350" patternUnits="userSpaceOnUse"><use xlink:href="#L1_17" x="-350" y="-350"/><use xlink:href="#L1_17" x="0" y="-350"/><use xlink:href="#L1_17" x="350" y="-350"/><use xlink:href="#L1_17" x="-350" y="0"/><use xlink:href="#L1_17" x="0" y="0"/><use xlink:href="#L1_17" x="350" y="0"/><use xlink:href="#L1_17" x="-350" y="350"/><use xlink:href="#L1_17" x="0" y="350"/><use xlink:href="#L1_17" x="350" y="350"/></pattern><rect x="0" y="0" width="100%" height="100%" fill="url(#pattern_L1_17)"/></g><g fi:class="KUsePattern"><pattern id="pattern_L1_18" width="350" height="350" patternUnits="userSpaceOnUse"><use xlink:href="#L1_18" x="-350" y="-350"/><use xlink:href="#L1_18" x="0" y="-350"/><use xlink:href="#L1_18" x="350" y="-350"/><use xlink:href="#L1_18" x="-350" y="0"/><use xlink:href="#L1_18" x="0" y="0"/><use xlink:href="#L1_18" x="350" y="0"/><use xlink:href="#L1_18" x="-350" y="350"/><use xlink:href="#L1_18" x="0" y="350"/><use xlink:href="#L1_18" x="350" y="350"/></pattern><rect x="0" y="0" width="100%" height="100%" fill="url(#pattern_L1_18)"/></g><g fi:class="KUsePattern"><pattern id="pattern_L1_19" width="350" height="350" patternUnits="userSpaceOnUse"><use xlink:href="#L1_19" x="-350" y="-350"/><use xlink:href="#L1_19" x="0" y="-350"/><use xlink:href="#L1_19" x="350" y="-350"/><use xlink:href="#L1_19" x="-350" y="0"/><use xlink:href="#L1_19" x="0" y="0"/><use xlink:href="#L1_19" x="350" y="0"/><use xlink:href="#L1_19" x="-350" y="350"/><use xlink:href="#L1_19" x="0" y="350"/><use xlink:href="#L1_19" x="350" y="350"/></pattern><rect x="0" y="0" width="100%" height="100%" fill="url(#pattern_L1_19)"/></g><g fi:class="KUsePattern"><pattern id="pattern_L1_20" width="350" height="350" patternUnits="userSpaceOnUse"><use xlink:href="#L1_20" x="-350" y="-350"/><use xlink:href="#L1_20" x="0" y="-350"/><use xlink:href="#L1_20" x="350" y="-350"/><use xlink:href="#L1_20" x="-350" y="0"/><use xlink:href="#L1_20" x="0" y="0"/><use xlink:href="#L1_20" x="350" y="0"/><use xlink:href="#L1_20" x="-350" y="350"/><use xlink:href="#L1_20" x="0" y="350"/><use xlink:href="#L1_20" x="350" y="350"/></pattern><rect x="0" y="0" width="100%" height="100%" fill="url(#pattern_L1_20)"/></g><g fi:class="KUsePattern"><pattern id="pattern_L1_21" width="350" height="350" patternUnits="userSpaceOnUse"><use xlink:href="#L1_21" x="-350" y="-350"/><use xlink:href="#L1_21" x="0" y="-350"/><use xlink:href="#L1_21" x="350" y="-350"/><use xlink:href="#L1_21" x="-350" y="0"/><use xlink:href="#L1_21" x="0" y="0"/><use xlink:href="#L1_21" x="350" y="0"/><use xlink:href="#L1_21" x="-350" y="350"/><use xlink:href="#L1_21" x="0" y="350"/><use xlink:href="#L1_21" x="350" y="350"/></pattern><rect x="0" y="0" width="100%" height="100%" fill="url(#pattern_L1_21)"/></g><g fi:class="KUsePattern"><pattern id="pattern_L1_24" width="350" height="350" patternUnits="userSpaceOnUse"><use xlink:href="#L1_24" x="-350" y="-350"/><use xlink:href="#L1_24" x="0" y="-350"/><use xlink:href="#L1_24" x="350" y="-350"/><use xlink:href="#L1_24" x="-350" y="0"/><use xlink:href="#L1_24" x="0" y="0"/><use xlink:href="#L1_24" x="350" y="0"/><use xlink:href="#L1_24" x="-350" y="350"/><use xlink:href="#L1_24" x="0" y="350"/><use xlink:href="#L1_24" x="350" y="350"/></pattern><rect x="0" y="0" width="100%" height="100%" fill="url(#pattern_L1_24)"/></g><g fi:class="KUsePattern"><pattern id="pattern_L1_25" width="350" height="350" patternUnits="userSpaceOnUse"><use xlink:href="#L1_25" x="-350" y="-350"/><use xlink:href="#L1_25" x="0" y="-350"/><use xlink:href="#L1_25" x="350" y="-350"/><use xlink:href="#L1_25" x="-350" y="0"/><use xlink:href="#L1_25" x="0" y="0"/><use xlink:href="#L1_25" x="350" y="0"/><use xlink:href="#L1_25" x="-350" y="350"/><use xlink:href="#L1_25" x="0" y="350"/><use xlink:href="#L1_25" x="350" y="350"/></pattern><rect x="0" y="0" width="100%" height="100%" fill="url(#pattern_L1_25)"/></g></svg>