<svg xmlns="http://www.w3.org/2000/svg" xmlns:xlink="http://www.w3.org/1999/xlink" xmlns:fi="http://pattern.flaticon.com/" x="0" y="0" width="700" height="350" viewBox="0 0 700 350"><rect x="0px" y="0px" width="100%" height="100%" opacity="1" fill="#e4f9f7"/><defs><path d="M23.895,29.731c-1.237,0-2.731-0.31-4.374-0.93c-3.602-1.358-7.521-4.042-11.035-7.556   c-3.515-3.515-6.199-7.435-7.558-11.037C-0.307,6.933-0.31,4.245,0.921,3.015c0.177-0.177,0.357-0.367,0.543-0.563   c1.123-1.181,2.392-2.51,4.074-2.45C6.697,0.05,7.82,0.77,8.97,2.201c3.398,4.226,1.866,5.732,0.093,7.478l-0.313,0.31   c-0.29,0.29-0.838,1.633,4.26,6.731c1.664,1.664,3.083,2.882,4.217,3.619c0.714,0.464,1.991,1.166,2.515,0.642l0.315-0.318   c1.744-1.769,3.25-3.296,7.473,0.099c1.431,1.15,2.15,2.272,2.198,3.433c0.069,1.681-1.27,2.953-2.452,4.075   c-0.195,0.186-0.385,0.366-0.562,0.542C26.103,29.424,25.126,29.731,23.895,29.731z M5.418,1C4.223,1,3.144,2.136,2.189,3.141   C1.997,3.343,1.811,3.539,1.628,3.722C0.711,4.638,0.804,7.045,1.864,9.856c1.31,3.472,3.913,7.266,7.33,10.683   c3.416,3.415,7.208,6.018,10.681,7.327c2.811,1.062,5.218,1.152,6.133,0.237c0.183-0.183,0.379-0.369,0.581-0.56   c1.027-0.976,2.192-2.082,2.141-3.309c-0.035-0.843-0.649-1.75-1.825-2.695c-3.519-2.83-4.503-1.831-6.135-0.176l-0.32,0.323   c-0.78,0.781-2.047,0.608-3.767-0.51c-1.193-0.776-2.667-2.038-4.379-3.751c-4.231-4.23-5.584-6.819-4.26-8.146l0.319-0.315   c1.659-1.632,2.66-2.617-0.171-6.138C7.245,1.651,6.339,1.037,5.496,1.001C5.47,1,5.444,1,5.418,1z" transform="matrix(2.274218983064152 -0.6093751399235686 0.6093751399235686 2.274218983064152 132.32733397861807 149.99921303640156)" id="L1_62"/><g transform="matrix(0.2053704410791397 0 0 0.2053704410791397 77.5 340)" id="L1_63"><path d="M97.265,71.261c-0.093-0.108-0.23-0.172-0.374-0.172H0.494c-0.144,0-0.28,0.063-0.374,0.172    c-0.094,0.108-0.136,0.253-0.115,0.396c0.014,0.09,1.468,9.016,12.753,9.016h71.869c11.284,0,12.738-8.926,12.753-9.016    C97.4,71.514,97.358,71.369,97.265,71.261z M55.942,77.547h-14.5v-3.334h14.5V77.547z"/><path d="M10.507,67.619h76.37c1.104,0,2-0.896,2-2V18.713c0-1.104-0.896-2-2-2h-76.37c-1.104,0-2,0.896-2,2v46.906    C8.507,66.723,9.403,67.619,10.507,67.619z M15.507,23.713h66.37v36.906h-66.37V23.713z"/></g><g transform="matrix(0.06666667014360428 0 0 0.06666667014360428 252.5 340)" id="L1_64"><circle cx="150" cy="226" r="11"/><path d="M182.691,68.248h-65.382c-3.665,0-6.647,2.843-6.647,6.331v123.592c0,3.491,2.98,6.331,6.647,6.331h65.382     c3.665,0,6.647-2.843,6.647-6.331V74.579C189.336,71.088,186.356,68.248,182.691,68.248z"/><path d="M149.996,0C67.157,0,0.001,67.161,0.001,149.997S67.157,300,149.996,300s150.003-67.163,150.003-150.003     S232.835,0,149.996,0z M208.354,224.021c0,11.458-9.29,20.749-20.749,20.749h-75.214c-11.458,0-20.749-9.29-20.749-20.749V75.323     c0-11.458,9.29-20.749,20.749-20.749h75.214c11.458,0,20.749,9.29,20.749,20.749V224.021z"/></g><g transform="matrix(0.12455432862043381 0 0 0.12455432862043381 67.5 67.5)" id="L1_65"><path d="M320.973,200.981c-0.8-18.4-4-38.8-8.8-58c-4.8-18.4-10.8-35.6-18-48.8c-28-49.2-58.4-41.6-94.8-32    c-11.6,2.8-24,6-36.8,7.2h-4c-12.8-1.2-25.2-4.4-36.8-7.2c-36.4-9.2-66.8-17.2-94.8,32.4c-7.2,13.2-13.6,30.4-18,48.8    c-4.8,19.2-8,39.6-8.8,58c-0.8,20.4,1.2,35.2,5.6,45.6c4.4,9.6,10.8,15.6,19.2,18c7.6,2,16.4,1.2,25.6-2.8    c15.6-6.4,33.6-20,51.2-36.4c12.4-12,35.6-18,58.8-18s46.4,6,58.8,18c17.6,16.4,35.6,30,51.2,36.4c9.2,3.6,18,4.8,25.6,2.8    c8-2.4,14.8-8,19.2-18.4C319.773,236.581,321.773,221.781,320.973,200.981z M301.773,240.981c-2.4,5.6-5.6,8.8-9.6,10    c-4.4,1.2-10,0.4-16.4-2c-14-5.6-30.4-18-46.4-33.2c-15.2-15.2-42-22.8-68.8-22.8s-53.6,7.6-69.2,22c-16.4,15.2-32.8,28-46.4,33.2    c-6.4,2.4-12,3.6-16.4,2c-4-1.2-7.2-4.4-9.6-10c-3.2-7.6-4.8-20-4-38.4c0.8-17.2,3.6-36.8,8.4-55.2c4.4-17.2,10-33.2,16.8-45.2    c22-39.6,47.6-33.2,78-25.2c12.4,3.2,25.2,6.4,39.2,7.6c0.4,0,0.4,0,0.8,0h4.4c0.4,0,0.4,0,0.8,0c14.4-1.2,27.2-4.4,39.6-7.6    c30.4-7.6,56-14.4,78,25.2c6.8,12,12.4,27.6,16.8,45.2c4.4,18.4,7.6,37.6,8.4,55.2    C306.973,220.181,305.373,232.581,301.773,240.981z"/><path d="M123.773,122.981c-4-3.6-8.8-6.4-14.4-6.8c-0.4-5.2-2.8-10.4-6.4-14l-0.4-0.4c-4.4-4.4-10-6.8-16.4-6.8    c-6.4,0-12.4,2.8-16.4,6.8c-3.6,3.6-6.4,8.8-6.8,14.4c-5.6,0.4-10.4,2.8-14.4,6.4l-0.4,0.4c-4.4,4.4-6.8,10-6.8,16.4    c0,6.4,2.8,12.4,6.8,16.4c4,4,8.8,6.4,14.8,6.8c0.4,5.6,2.8,10.8,6.8,14.4c4.4,4.4,10,6.8,16.4,6.8c6.4,0,12.4-2.8,16.4-6.8    c3.6-4,6.4-8.8,6.8-14.4c5.6-0.4,10.8-2.8,14.4-6.8c4.4-4.4,6.8-10,6.8-16.4C130.573,132.981,127.773,126.981,123.773,122.981z     M113.773,145.381c-1.6,1.6-3.6,2.4-6,2.4h-5.6c-4,0-7.6,3.2-7.6,7.6v5.2c0,2.4-0.8,4.4-2.4,6c-1.6,1.6-3.6,2.4-6,2.4    c-2.4,0-4.4-0.8-6-2.4c-1.6-1.6-2.4-3.6-2.4-6v-5.6c0-4-3.2-7.6-7.6-7.6h-5.6c-2.4,0-4.4-0.8-6-2.4c-1.2-1.2-2.4-3.2-2.4-5.6    c0-2.4,0.8-4.4,2.4-6c0,0,0,0,0.4-0.4c1.6-1.2,3.6-2,5.6-2h5.6c4,0,7.6-3.2,7.6-7.6v-5.6c0-2.4,0.8-4.4,2.4-6    c1.6-1.6,3.6-2.4,6-2.4c2.4,0,4.4,0.8,6,2.4c0,0,0,0,0.4,0.4c1.2,1.6,2,3.6,2,5.6v5.6c0,4,3.2,7.6,7.6,7.6h5.6    c2.4,0,4.4,0.8,6,2.4c1.6,1.6,2.4,3.6,2.4,6C116.173,141.781,115.373,143.781,113.773,145.381z"/><circle cx="230" cy="110" r="14"/><circle cx="230" cy="167" r="14"/><circle cx="201" cy="139" r="14"/><circle cx="258" cy="139" r="14"/></g><g transform="matrix(0.1697911741696328 0.04549540800068521 -0.04549540800068521 0.1697911741696328 317.9525303394838 296.61551229985236)" id="L1_66"><path d="M 435.488281 138.917969 L 435.472656 138.519531 C 435.25 133.601562 435.101562 128.398438 435.011719 122.609375 C 434.59375 94.378906 412.152344 71.027344 383.917969 69.449219 C 325.050781 66.164062 279.511719 46.96875 240.601562 9.042969 L 240.269531 8.726562 C 227.578125 -2.910156 208.433594 -2.910156 195.738281 8.726562 L 195.40625 9.042969 C 156.496094 46.96875 110.957031 66.164062 52.089844 69.453125 C 23.859375 71.027344 1.414062 94.378906 0.996094 122.613281 C 0.910156 128.363281 0.757812 133.566406 0.535156 138.519531 L 0.511719 139.445312 C -0.632812 199.472656 -2.054688 274.179688 22.9375 341.988281 C 36.679688 379.277344 57.492188 411.691406 84.792969 438.335938 C 115.886719 468.679688 156.613281 492.769531 205.839844 509.933594 C 207.441406 510.492188 209.105469 510.945312 210.800781 511.285156 C 213.191406 511.761719 215.597656 512 218.003906 512 C 220.410156 512 222.820312 511.761719 225.207031 511.285156 C 226.902344 510.945312 228.578125 510.488281 230.1875 509.925781 C 279.355469 492.730469 320.039062 468.628906 351.105469 438.289062 C 378.394531 411.636719 399.207031 379.214844 412.960938 341.917969 C 438.046875 273.90625 436.628906 199.058594 435.488281 138.917969 Z M 384.773438 331.523438 C 358.414062 402.992188 304.605469 452.074219 220.273438 481.566406 C 219.972656 481.667969 219.652344 481.757812 219.320312 481.824219 C 218.449219 481.996094 217.5625 481.996094 216.679688 481.820312 C 216.351562 481.753906 216.03125 481.667969 215.734375 481.566406 C 131.3125 452.128906 77.46875 403.074219 51.128906 331.601562 C 28.09375 269.097656 29.398438 200.519531 30.550781 140.019531 L 30.558594 139.683594 C 30.792969 134.484375 30.949219 129.039062 31.035156 123.054688 C 31.222656 110.519531 41.207031 100.148438 53.765625 99.449219 C 87.078125 97.589844 116.34375 91.152344 143.234375 79.769531 C 170.089844 68.402344 193.941406 52.378906 216.144531 30.785156 C 217.273438 29.832031 218.738281 29.828125 219.863281 30.785156 C 242.070312 52.378906 265.921875 68.402344 292.773438 79.769531 C 319.664062 91.152344 348.929688 97.589844 382.246094 99.449219 C 394.804688 100.148438 404.789062 110.519531 404.972656 123.058594 C 405.0625 129.074219 405.21875 134.519531 405.453125 139.683594 C 406.601562 200.253906 407.875 268.886719 384.773438 331.523438 Z M 384.773438 331.523438 " fill="#000000" fill-opacity="1" stroke="none"/><path d="M 217.996094 128.410156 C 147.636719 128.410156 90.398438 185.652344 90.398438 256.007812 C 90.398438 326.367188 147.636719 383.609375 217.996094 383.609375 C 288.351562 383.609375 345.59375 326.367188 345.59375 256.007812 C 345.59375 185.652344 288.351562 128.410156 217.996094 128.410156 Z M 217.996094 353.5625 C 164.203125 353.5625 120.441406 309.800781 120.441406 256.007812 C 120.441406 202.214844 164.203125 158.453125 217.996094 158.453125 C 271.785156 158.453125 315.546875 202.214844 315.546875 256.007812 C 315.546875 309.800781 271.785156 353.5625 217.996094 353.5625 Z M 217.996094 353.5625 " fill="#000000" fill-opacity="1" stroke="none"/><path d="M 254.667969 216.394531 L 195.402344 275.660156 L 179.316406 259.574219 C 173.449219 253.707031 163.9375 253.707031 158.070312 259.574219 C 152.207031 265.441406 152.207031 274.953125 158.070312 280.816406 L 184.78125 307.527344 C 187.714844 310.460938 191.558594 311.925781 195.402344 311.925781 C 199.246094 311.925781 203.089844 310.460938 206.023438 307.527344 L 275.914062 237.636719 C 281.777344 231.769531 281.777344 222.257812 275.914062 216.394531 C 270.046875 210.523438 260.535156 210.523438 254.667969 216.394531 Z M 254.667969 216.394531 " fill="#000000" fill-opacity="1" stroke="none"/></g><path d="M467.2,235.7c0-62.4-24.3-121.1-68.4-165.2S296,2.1,233.6,2.1S112.5,26.4,68.4,70.5S0,173.3,0,235.7v110.6   c0,62.5,50.9,113.4,113.4,113.4c7.5,0,13.5-6,13.5-13.5V246.5c0-7.5-6-13.5-13.5-13.5c-34.6,0-65.6,15.5-86.4,40v-37.3   c0-113.9,92.7-206.6,206.6-206.6s206.6,92.7,206.6,206.6c0,0.9,0.1,1.8,0.3,2.7c-0.2,0.9-0.3,1.8-0.3,2.7v37.3   c-20.8-24.5-51.8-40-86.4-40c-7.5,0-13.5,6-13.5,13.5v199.7c0,7.5,6,13.5,13.5,13.5c62.5,0,113.4-50.9,113.4-113.4V241.1   c0-0.9-0.1-1.8-0.3-2.7C467.1,237.5,467.2,236.6,467.2,235.7z M99.8,261v170.6c-41.2-6.5-72.9-42.3-72.9-85.3   C27,303.3,58.6,267.5,99.8,261z M367.4,437V266.4c41.2,6.5,72.9,42.3,72.9,85.3C440.2,394.8,408.6,430.5,367.4,437z" transform="matrix(0.08561643958091736 0 0 0.08561643958091736 242.5 67.5)" id="L1_67"/><g transform="matrix(0.6666666865348816 0 0 0.6666666865348816 155 330)" id="L1_68"><path d="M59,6H1C0.447,6,0,6.447,0,7v38c0,0.553,0.447,1,1,1h26v3h-5v5h16v-5h-5v-3h26c0.553,0,1-0.447,1-1V7   C60,6.447,59.553,6,59,6z M36,51v1H24v-1h5v-5h2v5H36z M58,44H33h-6H2V8h56V44z"/><path d="M55,34H42.374l-0.085-0.075c-0.353-0.312-0.73-0.571-1.125-0.775l-4.621-2.989l-0.096-0.055   c-0.35-0.175-0.738-0.256-1.08-0.328c-0.109-0.022-0.251-0.053-0.367-0.083v-1.302c0.045-0.03,0.092-0.063,0.14-0.096   c0.677-0.466,0.994-0.699,1.185-0.968c0.693-0.981,1.387-2.037,1.83-3.171c0.961-0.44,1.846-1.29,1.846-2.369v-2.245   c0-0.413-0.162-0.816-0.48-1.196c-0.237-0.284-0.52-0.744-0.52-1.32v-1.054C38.937,13.562,37.183,9,31,9s-7.937,4.562-8,7v1.027   c0,0.576-0.282,1.036-0.519,1.319C22.162,18.728,22,19.131,22,19.544v2.245c0,0.964,0.793,1.647,1.353,2.04   c0.666,2.016,2.682,3.515,3.647,4.138v1.327c-0.261,0.254-1.059,0.633-1.416,0.803c-0.22,0.105-0.414,0.198-0.58,0.289l-4.685,2.72   c-0.396,0.216-0.777,0.496-1.132,0.83L19.119,34H14v7h41V34z M25.985,32.129c0.117-0.064,0.277-0.14,0.458-0.226   C27.582,31.361,29,30.687,29,29.455V26.81l-0.521-0.284c-0.787-0.429-2.912-1.902-3.289-3.547l-0.091-0.396l-0.341-0.221   c-0.618-0.399-0.734-0.604-0.758-0.573v-2.141c0.004-0.004,0.009-0.01,0.016-0.02C24.65,18.869,25,17.944,25,17.027v-1.001   C25.005,15.821,25.199,11,31,11c5.656,0,5.982,4.516,6,5v1.027c0,0.905,0.34,1.816,1,2.627l0.001,2.121   c-0.033,0.142-0.438,0.51-0.929,0.66l-0.497,0.153l-0.16,0.496c-0.339,1.053-1.028,2.106-1.673,3.026   c-0.103,0.102-0.516,0.386-0.737,0.539c-0.424,0.292-0.617,0.428-0.756,0.585L33,27.519V30c0,1.325,1.321,1.602,1.956,1.735   c0.203,0.042,0.431,0.09,0.56,0.143L38.796,34H22.761L25.985,32.129z M53,39H16v-3h4.069h21.379H53V39z"/><path d="M55,10h-6v6h6V10z M53,14h-2v-2h2V14z"/><path d="M12,34H5v7h7V34z M10,39H7v-3h3V39z"/></g><g transform="matrix(0.13671875 0 0 0.13671875 315 140)" id="L1_69"><path d="M437.019,74.98C388.667,26.629,324.38,0,256,0C187.619,0,123.331,26.629,74.98,74.98C26.628,123.332,0,187.62,0,256    s26.628,132.667,74.98,181.019C123.332,485.371,187.619,512,256,512c68.38,0,132.667-26.629,181.019-74.981    C485.371,388.667,512,324.38,512,256S485.371,123.333,437.019,74.98z M256,482C131.383,482,30,380.617,30,256S131.383,30,256,30    s226,101.383,226,226S380.617,482,256,482z"/><path d="M378.305,173.859c-5.857-5.856-15.355-5.856-21.212,0.001L224.634,306.319l-69.727-69.727    c-5.857-5.857-15.355-5.857-21.213,0c-5.858,5.857-5.858,15.355,0,21.213l80.333,80.333c2.929,2.929,6.768,4.393,10.606,4.393    c3.838,0,7.678-1.465,10.606-4.393l143.066-143.066C384.163,189.215,384.163,179.717,378.305,173.859z"/></g><g transform="matrix(0.9433962106704712 0 0 0.9433962106704712 62.5 237.5)" id="L1_70"><path d="M26.5,9c-8.837,0-16,7.164-16,16c0,7.089,4.615,13.091,11,15.192V50h2v3h6v-3h2v-9.808  c6.385-2.101,11-8.103,11-15.192C42.5,16.164,35.337,9,26.5,9z" fill="#efce4a"/><g><path d="M26.5,0c-0.553,0-1,0.447-1,1v4c0,0.553,0.447,1,1,1s1-0.447,1-1V1C27.5,0.447,27.053,0,26.5,0z" fill="#efce4a"/><path d="M50.5,24h-4c-0.553,0-1,0.447-1,1s0.447,1,1,1h4c0.553,0,1-0.447,1-1S51.053,24,50.5,24z" fill="#efce4a"/><path d="M6.5,24h-4c-0.553,0-1,0.447-1,1s0.447,1,1,1h4c0.553,0,1-0.447,1-1S7.053,24,6.5,24z" fill="#efce4a"/><path d="M42.764,7.322l-2.828,2.828c-0.391,0.391-0.391,1.023,0,1.414c0.195,0.195,0.451,0.293,0.707,0.293   s0.512-0.098,0.707-0.293l2.828-2.828c0.391-0.391,0.391-1.023,0-1.414S43.154,6.932,42.764,7.322z" fill="#efce4a"/><path d="M11.65,38.436l-2.828,2.828c-0.391,0.391-0.391,1.023,0,1.414c0.195,0.195,0.451,0.293,0.707,0.293   s0.512-0.098,0.707-0.293l2.828-2.828c0.391-0.391,0.391-1.023,0-1.414S12.041,38.045,11.65,38.436z" fill="#efce4a"/><path d="M41.35,38.436c-0.391-0.391-1.023-0.391-1.414,0s-0.391,1.023,0,1.414l2.828,2.828   c0.195,0.195,0.451,0.293,0.707,0.293s0.512-0.098,0.707-0.293c0.391-0.391,0.391-1.023,0-1.414L41.35,38.436z" fill="#efce4a"/><path d="M10.236,7.322c-0.391-0.391-1.023-0.391-1.414,0s-0.391,1.023,0,1.414l2.828,2.828   c0.195,0.195,0.451,0.293,0.707,0.293s0.512-0.098,0.707-0.293c0.391-0.391,0.391-1.023,0-1.414L10.236,7.322z" fill="#efce4a"/></g><path d="M15.5,26c-0.553,0-1-0.447-1-1c0-6.617,5.383-12,12-12c0.553,0,1,0.447,1,1s-0.447,1-1,1  c-5.514,0-10,4.486-10,10C16.5,25.553,16.053,26,15.5,26z" fill="#f7e6a1"/><path d="M21.5,43 21.5,50 23.5,50 23.5,53 29.5,53 29.5,50 31.5,50 31.5,43z" fill="#556080"/></g><g transform="matrix(1.5 0 0 1.5 217.5 217.5)" id="L1_71"><path d="M42.536,4H36V0H24v4h-6.536C15.554,4,14,5.554,14,7.464v49.072C14,58.446,15.554,60,17.464,60h25.071   C44.446,60,46,58.446,46,56.536V7.464C46,5.554,44.446,4,42.536,4z M26,2h8v2h-8V2z M44,56.536C44,57.344,43.343,58,42.536,58   H17.464C16.657,58,16,57.344,16,56.536V7.464C16,6.656,16.657,6,17.464,6H24h12h6.536C43.343,6,44,6.656,44,7.464V56.536z"/><path d="M34,17.108c0.021-0.423-0.212-0.822-0.605-1.007l-0.78-0.319l-0.494,0.61L21.204,34H27l0.002,12.884   c-0.022,0.412,0.201,0.813,0.58,1.003l0.795,0.351l0.506-0.636L38.653,29H34V17.108z M35.347,31l-6.345,12.105L29,32h-4.204   L32,20.372V31H35.347z"/></g></defs><g fi:class="KUsePattern"><pattern id="pattern_L1_62" width="350" height="350" patternUnits="userSpaceOnUse"><use xlink:href="#L1_62" x="-350" y="-350"/><use xlink:href="#L1_62" x="0" y="-350"/><use xlink:href="#L1_62" x="350" y="-350"/><use xlink:href="#L1_62" x="-350" y="0"/><use xlink:href="#L1_62" x="0" y="0"/><use xlink:href="#L1_62" x="350" y="0"/><use xlink:href="#L1_62" x="-350" y="350"/><use xlink:href="#L1_62" x="0" y="350"/><use xlink:href="#L1_62" x="350" y="350"/></pattern><rect x="0" y="0" width="100%" height="100%" fill="url(#pattern_L1_62)"/></g><g fi:class="KUsePattern"><pattern id="pattern_L1_63" width="350" height="350" patternUnits="userSpaceOnUse"><use xlink:href="#L1_63" x="-350" y="-350"/><use xlink:href="#L1_63" x="0" y="-350"/><use xlink:href="#L1_63" x="350" y="-350"/><use xlink:href="#L1_63" x="-350" y="0"/><use xlink:href="#L1_63" x="0" y="0"/><use xlink:href="#L1_63" x="350" y="0"/><use xlink:href="#L1_63" x="-350" y="350"/><use xlink:href="#L1_63" x="0" y="350"/><use xlink:href="#L1_63" x="350" y="350"/></pattern><rect x="0" y="0" width="100%" height="100%" fill="url(#pattern_L1_63)"/></g><g fi:class="KUsePattern"><pattern id="pattern_L1_64" width="350" height="350" patternUnits="userSpaceOnUse"><use xlink:href="#L1_64" x="-350" y="-350"/><use xlink:href="#L1_64" x="0" y="-350"/><use xlink:href="#L1_64" x="350" y="-350"/><use xlink:href="#L1_64" x="-350" y="0"/><use xlink:href="#L1_64" x="0" y="0"/><use xlink:href="#L1_64" x="350" y="0"/><use xlink:href="#L1_64" x="-350" y="350"/><use xlink:href="#L1_64" x="0" y="350"/><use xlink:href="#L1_64" x="350" y="350"/></pattern><rect x="0" y="0" width="100%" height="100%" fill="url(#pattern_L1_64)"/></g><g fi:class="KUsePattern"><pattern id="pattern_L1_65" width="350" height="350" patternUnits="userSpaceOnUse"><use xlink:href="#L1_65" x="-350" y="-350"/><use xlink:href="#L1_65" x="0" y="-350"/><use xlink:href="#L1_65" x="350" y="-350"/><use xlink:href="#L1_65" x="-350" y="0"/><use xlink:href="#L1_65" x="0" y="0"/><use xlink:href="#L1_65" x="350" y="0"/><use xlink:href="#L1_65" x="-350" y="350"/><use xlink:href="#L1_65" x="0" y="350"/><use xlink:href="#L1_65" x="350" y="350"/></pattern><rect x="0" y="0" width="100%" height="100%" fill="url(#pattern_L1_65)"/></g><g fi:class="KUsePattern"><pattern id="pattern_L1_66" width="350" height="350" patternUnits="userSpaceOnUse"><use xlink:href="#L1_66" x="-350" y="-350"/><use xlink:href="#L1_66" x="0" y="-350"/><use xlink:href="#L1_66" x="350" y="-350"/><use xlink:href="#L1_66" x="-350" y="0"/><use xlink:href="#L1_66" x="0" y="0"/><use xlink:href="#L1_66" x="350" y="0"/><use xlink:href="#L1_66" x="-350" y="350"/><use xlink:href="#L1_66" x="0" y="350"/><use xlink:href="#L1_66" x="350" y="350"/></pattern><rect x="0" y="0" width="100%" height="100%" fill="url(#pattern_L1_66)"/></g><g fi:class="KUsePattern"><pattern id="pattern_L1_67" width="350" height="350" patternUnits="userSpaceOnUse"><use xlink:href="#L1_67" x="-350" y="-350"/><use xlink:href="#L1_67" x="0" y="-350"/><use xlink:href="#L1_67" x="350" y="-350"/><use xlink:href="#L1_67" x="-350" y="0"/><use xlink:href="#L1_67" x="0" y="0"/><use xlink:href="#L1_67" x="350" y="0"/><use xlink:href="#L1_67" x="-350" y="350"/><use xlink:href="#L1_67" x="0" y="350"/><use xlink:href="#L1_67" x="350" y="350"/></pattern><rect x="0" y="0" width="100%" height="100%" fill="url(#pattern_L1_67)"/></g><g fi:class="KUsePattern"><pattern id="pattern_L1_68" width="350" height="350" patternUnits="userSpaceOnUse"><use xlink:href="#L1_68" x="-350" y="-350"/><use xlink:href="#L1_68" x="0" y="-350"/><use xlink:href="#L1_68" x="350" y="-350"/><use xlink:href="#L1_68" x="-350" y="0"/><use xlink:href="#L1_68" x="0" y="0"/><use xlink:href="#L1_68" x="350" y="0"/><use xlink:href="#L1_68" x="-350" y="350"/><use xlink:href="#L1_68" x="0" y="350"/><use xlink:href="#L1_68" x="350" y="350"/></pattern><rect x="0" y="0" width="100%" height="100%" fill="url(#pattern_L1_68)"/></g><g fi:class="KUsePattern"><pattern id="pattern_L1_69" width="350" height="350" patternUnits="userSpaceOnUse"><use xlink:href="#L1_69" x="-350" y="-350"/><use xlink:href="#L1_69" x="0" y="-350"/><use xlink:href="#L1_69" x="350" y="-350"/><use xlink:href="#L1_69" x="-350" y="0"/><use xlink:href="#L1_69" x="0" y="0"/><use xlink:href="#L1_69" x="350" y="0"/><use xlink:href="#L1_69" x="-350" y="350"/><use xlink:href="#L1_69" x="0" y="350"/><use xlink:href="#L1_69" x="350" y="350"/></pattern><rect x="0" y="0" width="100%" height="100%" fill="url(#pattern_L1_69)"/></g><g fi:class="KUsePattern"><pattern id="pattern_L1_70" width="350" height="350" patternUnits="userSpaceOnUse"><use xlink:href="#L1_70" x="-350" y="-350"/><use xlink:href="#L1_70" x="0" y="-350"/><use xlink:href="#L1_70" x="350" y="-350"/><use xlink:href="#L1_70" x="-350" y="0"/><use xlink:href="#L1_70" x="0" y="0"/><use xlink:href="#L1_70" x="350" y="0"/><use xlink:href="#L1_70" x="-350" y="350"/><use xlink:href="#L1_70" x="0" y="350"/><use xlink:href="#L1_70" x="350" y="350"/></pattern><rect x="0" y="0" width="100%" height="100%" fill="url(#pattern_L1_70)"/></g><g fi:class="KUsePattern"><pattern id="pattern_L1_71" width="350" height="350" patternUnits="userSpaceOnUse"><use xlink:href="#L1_71" x="-350" y="-350"/><use xlink:href="#L1_71" x="0" y="-350"/><use xlink:href="#L1_71" x="350" y="-350"/><use xlink:href="#L1_71" x="-350" y="0"/><use xlink:href="#L1_71" x="0" y="0"/><use xlink:href="#L1_71" x="350" y="0"/><use xlink:href="#L1_71" x="-350" y="350"/><use xlink:href="#L1_71" x="0" y="350"/><use xlink:href="#L1_71" x="350" y="350"/></pattern><rect x="0" y="0" width="100%" height="100%" fill="url(#pattern_L1_71)"/></g></svg>